<svg xmlns="http://www.w3.org/2000/svg" xmlns:xlink="http://www.w3.org/1999/xlink" contentStyleType="text/css" data-diagram-type="DESCRIPTION" height="537px" preserveAspectRatio="none" style="width:1072px;height:537px;background:#FAFAFA;" version="1.1" viewBox="0 0 1072 537" width="1072px" zoomAndPan="magnify"><title>Webtensor &#8212; Package Dependency Layers</title><defs/><g><rect fill="#FAFAFA" height="537" style="stroke:none;stroke-width:1;" width="1072" x="0" y="0"/><text fill="#000000" font-family="Segoe UI" font-size="14" font-weight="bold" lengthAdjust="spacing" textLength="279.125" x="389.5303" y="25.1074">Webtensor &#8212; Package Dependency Layers</text><!--entity ir--><g class="entity" data-entity="ir" data-source-line="9" data-uid="ent0002" id="entity_ir"><rect fill="#FFF8EE" height="57.2422" rx="4" ry="4" style="stroke:#181818;stroke-width:0.5;" width="175.0459" x="213.5" y="46.6211"/><text fill="#000000" font-family="Segoe UI" font-size="14" font-weight="bold" lengthAdjust="spacing" textLength="9.5498" x="223.5" y="71.7285">ir</text><text fill="#000000" font-family="Segoe UI" font-size="14" lengthAdjust="spacing" textLength="155.0459" x="223.5" y="90.3496">pure types &#8212; no runtime</text></g><!--entity runtime--><g class="entity" data-entity="runtime" data-source-line="11" data-uid="ent0003" id="entity_runtime"><rect fill="#EEFFF0" height="57.2422" rx="4" ry="4" style="stroke:#181818;stroke-width:0.5;" width="238.8047" x="479.5" y="164.6211"/><text fill="#000000" font-family="Segoe UI" font-size="14" font-weight="bold" lengthAdjust="spacing" textLength="52.3359" x="489.5" y="189.7285">runtime</text><text fill="#000000" font-family="Segoe UI" font-size="14" lengthAdjust="spacing" textLength="218.8047" x="489.5" y="208.3496">Engine, Backend interface, view ops</text></g><!--entity core--><g class="entity" data-entity="core" data-source-line="13" data-uid="ent0004" id="entity_core"><rect fill="#EEF4FF" height="75.8633" rx="4" ry="4" style="stroke:#181818;stroke-width:0.5;" width="256.3047" x="7" y="300.6211"/><text fill="#000000" font-family="Segoe UI" font-size="14" font-weight="bold" lengthAdjust="spacing" textLength="28.4238" x="17" y="325.7285">core</text><text fill="#000000" font-family="Segoe UI" font-size="14" lengthAdjust="spacing" textLength="93.6113" x="17" y="344.3496">user-facing API</text><text fill="#000000" font-family="Segoe UI" font-size="14" lengthAdjust="spacing" textLength="236.3047" x="17" y="362.9707">(Tensor, ops, autograd, compileGraph)</text></g><!--entity cpu--><g class="entity" data-entity="cpu" data-source-line="15" data-uid="ent0005" id="entity_cpu"><rect fill="#FFF0F0" height="57.2422" rx="4" ry="4" style="stroke:#181818;stroke-width:0.5;" width="132.3555" x="533" y="310.1211"/><text fill="#000000" font-family="Segoe UI" font-size="14" font-weight="bold" lengthAdjust="spacing" textLength="85.0049" x="543" y="335.2285">backend-cpu</text><text fill="#000000" font-family="Segoe UI" font-size="14" lengthAdjust="spacing" textLength="112.3555" x="543" y="353.8496">TypeScript kernels</text></g><!--entity wasm--><g class="entity" data-entity="wasm" data-source-line="16" data-uid="ent0006" id="entity_wasm"><rect fill="#FFF0F0" height="57.2422" rx="4" ry="4" style="stroke:#181818;stroke-width:0.5;" width="163.9854" x="700" y="310.1211"/><text fill="#000000" font-family="Segoe UI" font-size="14" font-weight="bold" lengthAdjust="spacing" textLength="98.8135" x="710" y="335.2285">backend-wasm</text><text fill="#000000" font-family="Segoe UI" font-size="14" lengthAdjust="spacing" textLength="143.9854" x="710" y="353.8496">Rust via wasm-bindgen</text></g><!--entity webgpu--><g class="entity" data-entity="webgpu" data-source-line="17" data-uid="ent0007" id="entity_webgpu"><rect fill="#FFF0F0" height="57.2422" rx="4" ry="4" style="stroke:#181818;stroke-width:0.5;" width="166.6855" x="899.5" y="310.1211"/><text fill="#000000" font-family="Segoe UI" font-size="14" font-weight="bold" lengthAdjust="spacing" textLength="114.3721" x="909.5" y="335.2285">backend-webgpu</text><text fill="#000000" font-family="Segoe UI" font-size="14" lengthAdjust="spacing" textLength="146.6855" x="909.5" y="353.8496">WGSL compute shaders</text></g><!--entity user--><g class="entity" data-entity="user" data-source-line="19" data-uid="ent0008" id="entity_user"><rect fill="#F5F5F5" height="75.8633" rx="4" ry="4" style="stroke:#181818;stroke-width:0.5;" width="203.4424" x="579.5" y="455.6211"/><text fill="#000000" font-family="Segoe UI" font-size="14" font-weight="bold" lengthAdjust="spacing" textLength="63.1572" x="589.5" y="480.7285">user code</text><text fill="#000000" font-family="Segoe UI" font-size="14" lengthAdjust="spacing" textLength="91.54" x="589.5" y="499.3496">imports core +</text><text fill="#000000" font-family="Segoe UI" font-size="14" lengthAdjust="spacing" textLength="183.4424" x="589.5" y="517.9707">side-effect imports a backend</text></g><g class="entity" data-entity="GMN19" data-source-line="34" data-uid="ent0020" id="entity_GMN19"><path d="M298,311.6211 L298,334.6211 L263.16,338.6211 L298,342.6211 L298,365.4941 A4,4 0 0 0 302,369.4941 L493.8008,369.4941 A4,4 0 0 0 497.8008,365.4941 L497.8008,317.6211 L487.8008,307.6211 L302,307.6211 A4,4 0 0 0 298,311.6211" fill="#FEFFDD" style="stroke:#181818;stroke-width:0.5;"/><path d="M487.8008,307.6211 L487.8008,315.6211 A2,2 0 0 0 489.8008,317.6211 L497.8008,317.6211 L487.8008,307.6211" fill="#FEFFDD" style="stroke:#181818;stroke-width:0.5;"/><text fill="#000000" font-family="Segoe UI" font-size="13" lengthAdjust="spacing" textLength="178.8008" x="304" y="326.6494">core is unaware of backends &#8212;</text><text fill="#000000" font-family="Segoe UI" font-size="13" lengthAdjust="spacing" textLength="176.7759" x="304" y="343.9404">the user picks one and imports</text><text fill="#000000" font-family="Segoe UI" font-size="13" lengthAdjust="spacing" textLength="149.2715" x="304" y="361.2314">for the side-effect register</text></g><!--reverse link ir to runtime--><g class="link" data-entity-1="ir" data-entity-2="runtime" data-source-line="21" data-uid="lnk9" id="link_ir_runtime"><path d="M377.5916,105.9369 C424.8516,124.3269 481.09,146.2211 528.29,164.5911" fill="none" id="ir-backto-runtime" style="stroke:#555555;stroke-width:1;"/><polygon fill="#555555" points="372,103.7611,378.9368,110.7525,376.6597,105.5743,381.8379,103.2971,372,103.7611" style="stroke:#555555;stroke-width:1;"/></g><!--reverse link ir to core--><g class="link" data-entity-1="ir" data-entity-2="core" data-source-line="22" data-uid="lnk10" id="link_ir_core"><path d="M280.0241,109.1765 C249.9941,156.4765 192.41,247.1811 158.76,300.2011" fill="none" id="ir-backto-core" style="stroke:#555555;stroke-width:1;"/><polygon fill="#555555" points="283.24,104.1111,275.0392,109.5652,280.5601,108.3322,281.793,113.8531,283.24,104.1111" style="stroke:#555555;stroke-width:1;"/></g><!--reverse link runtime to core--><g class="link" data-entity-1="runtime" data-entity-2="core" data-source-line="23" data-uid="lnk11" id="link_runtime_core"><path d="M504.0779,223.474 C431.6879,245.864 334.66,275.8711 255.05,300.4911" fill="none" id="runtime-backto-core" style="stroke:#555555;stroke-width:1;"/><polygon fill="#555555" points="509.81,221.7011,500.0299,220.5391,505.0333,223.1785,502.3938,228.1819,509.81,221.7011" style="stroke:#555555;stroke-width:1;"/></g><!--reverse link runtime to cpu--><g class="link" data-entity-1="runtime" data-entity-2="cpu" data-source-line="24" data-uid="lnk12" id="link_runtime_cpu"><path d="M599,239.7911 C599,265.2011 599,284.6511 599,310.0411" fill="none" id="runtime-backto-cpu" style="stroke:#555555;stroke-width:1;stroke-dasharray:7.0,7.0;"/><polygon fill="none" points="599,221.7911,593,239.7911,605,239.7911,599,221.7911" style="stroke:#555555;stroke-width:1;"/><text fill="#000000" font-family="Segoe UI" font-size="13" lengthAdjust="spacing" textLength="119.1138" x="600" y="266.6494">implements Backend</text></g><!--reverse link runtime to wasm--><g class="link" data-entity-1="runtime" data-entity-2="wasm" data-source-line="25" data-uid="lnk13" id="link_runtime_wasm"><path d="M696.6967,229.359 C713.5467,237.369 714.11,239.5711 728,251.6211 C746.38,267.5711 760.63,291.3111 769.87,309.8111" fill="none" id="runtime-backto-wasm" style="stroke:#555555;stroke-width:1;stroke-dasharray:7.0,7.0;"/><polygon fill="none" points="680.44,221.6311,694.1207,234.7779,699.2726,223.9402,680.44,221.6311" style="stroke:#555555;stroke-width:1;"/><text fill="#000000" font-family="Segoe UI" font-size="13" lengthAdjust="spacing" textLength="119.1138" x="745" y="266.6494">implements Backend</text></g><!--reverse link runtime to webgpu--><g class="link" data-entity-1="runtime" data-entity-2="webgpu" data-source-line="26" data-uid="lnk14" id="link_runtime_webgpu"><path d="M736.5046,210.1526 C785.8946,218.5626 824.96,229.2811 873,251.6211 C903.99,266.0311 934.22,290.6611 955.11,309.8711" fill="none" id="runtime-backto-webgpu" style="stroke:#555555;stroke-width:1;stroke-dasharray:7.0,7.0;"/><polygon fill="none" points="718.76,207.1311,735.4974,216.0675,737.5118,204.2377,718.76,207.1311" style="stroke:#555555;stroke-width:1;"/><text fill="#000000" font-family="Segoe UI" font-size="13" lengthAdjust="spacing" textLength="119.1138" x="907" y="266.6494">implements Backend</text></g><!--reverse link core to user--><g class="link" data-entity-1="core" data-entity-2="user" data-source-line="28" data-uid="lnk15" id="link_core_user"><path d="M268.7874,377.1102 C365.2374,404.1402 489.93,439.0811 579.3,464.1211" fill="none" id="core-backto-user" style="stroke:#555555;stroke-width:1;"/><polygon fill="#555555" points="263.01,375.4911,270.5967,381.7714,267.8245,376.8404,272.7555,374.0682,263.01,375.4911" style="stroke:#555555;stroke-width:1;"/></g><!--reverse link cpu to user--><g class="link" data-entity-1="cpu" data-entity-2="user" data-source-line="29" data-uid="lnk16" id="link_cpu_user"><path d="M603.6466,373.0991 C606.7466,390.5991 611.27,407.4011 621,425.6211 C626.59,436.0911 634.15,446.2511 642.01,455.3611" fill="none" id="cpu-backto-user" style="stroke:#555555;stroke-width:1;"/><polygon fill="#555555" points="602.6,367.1911,600.2312,376.7508,603.4721,372.1144,608.1085,375.3554,602.6,367.1911" style="stroke:#555555;stroke-width:1;"/><text fill="#000000" font-family="Segoe UI" font-size="13" lengthAdjust="spacing" textLength="107.3833" x="622" y="421.6494">side-effect register</text></g><!--reverse link wasm to user--><g class="link" data-entity-1="wasm" data-entity-2="user" data-source-line="30" data-uid="lnk17" id="link_wasm_user"><path d="M765.156,372.7109 C756.116,389.8909 746.54,406.8511 734,425.6211 C727.32,435.6111 719.57,445.9811 712.08,455.5011" fill="none" id="wasm-backto-user" style="stroke:#555555;stroke-width:1;"/><polygon fill="#555555" points="767.95,367.4011,760.2192,373.5031,765.6217,371.8259,767.2989,377.2284,767.95,367.4011" style="stroke:#555555;stroke-width:1;"/><text fill="#000000" font-family="Segoe UI" font-size="13" lengthAdjust="spacing" textLength="107.3833" x="746" y="421.6494">side-effect register</text></g><!--reverse link webgpu to user--><g class="link" data-entity-1="webgpu" data-entity-2="user" data-source-line="31" data-uid="lnk18" id="link_webgpu_user"><path d="M944.6279,370.8899 C921.1779,389.1699 893.33,409.0611 862,425.6211 C837.12,438.7711 809.07,450.5111 782.63,460.3411" fill="none" id="webgpu-backto-user" style="stroke:#555555;stroke-width:1;"/><polygon fill="#555555" points="949.36,367.2011,939.8027,369.5796,945.4166,370.2751,944.7211,375.889,949.36,367.2011" style="stroke:#555555;stroke-width:1;"/><text fill="#000000" font-family="Segoe UI" font-size="13" lengthAdjust="spacing" textLength="107.3833" x="894" y="421.6494">side-effect register</text></g><!--SRC=[ZLFDYjim4BxhAORaqcRZPGyDBAMNj6il2qjPcYrxoKMsnug8FHAIt13eeG_H9-oJT2Gx9PiDfEXYIz_Fp3TIqA55UC4o87dZuC-lt_0agwrK27TeaMgaQW-FSe_E2-6tcgnqieEIGSgPdkelfcNYj5Z6TOJm6rcRdIO5ZMmz7fsCD4VeuFPe_muRsRUXC1I-oWvXia9b4Bu_J8v0I-VCRlHSB1P2EAo29CLjJ6OpxMQpDTdU8OIzHPyQ8WEkfw0xd83qe6ErHN6RvoVa4HGLSbAQS0wVkKqE0JG5T8siUEk7nXqOwvFMI85fdhFapObWPLnIwpswZDanZENJmvhUFQUuvr5d3h8FHZbPpw4odTKjtZjfD- -JGPH8wX-AuaIz76hBAjj7asVkTrKvRGDiaRDjXmhvDBLxmzMTfU-axoB_M-y3DoSXRcIbfbeX9OcuSK43IpLKyNA_Uanjz07J5U1xCuWao3-Prpen86RLAItTMUF2sFhLchokCSEcOG8SpYICraaxqQV58YuXUBwVikmmciDlL1E7SRtT-7bzdQBw62rQx93OPPp-QrHAupzWGxzdWIAr5ek8bOleU_XXmd6_3fNsVFL4Shq86ZmlmGGP7exJQXF0D4CGCCIjEKoIEycVV39cd5uH8y861rshgwq7GmWolerX9Wne-556q5dN-8oYiVWB]--></g></svg>