<svg xmlns="http://www.w3.org/2000/svg" xmlns:xlink="http://www.w3.org/1999/xlink" contentStyleType="text/css" data-diagram-type="DESCRIPTION" height="649px" preserveAspectRatio="none" style="width:1265px;height:649px;background:#FFFFFF;" version="1.1" viewBox="0 0 1265 649" width="1265px" zoomAndPan="magnify"><defs/><g><!--cluster React App--><g class="cluster" data-entity="React App" data-source-line="2" data-uid="ent0002" id="cluster_React App"><path d="M131.5,6 L201.7344,6 A3.75,3.75 0 0 1 204.2344,8.5 L211.2344,29.6094 L506.5,29.6094 A2.5,2.5 0 0 1 509,32.1094 L509,120.5 A2.5,2.5 0 0 1 506.5,123 L131.5,123 A2.5,2.5 0 0 1 129,120.5 L129,8.5 A2.5,2.5 0 0 1 131.5,6" fill="#E8F0FF" style="stroke:#000000;stroke-width:1.5;"/><line style="stroke:#000000;stroke-width:1.5;" x1="129" x2="211.2344" y1="29.6094" y2="29.6094"/><text fill="#000000" font-family="sans-serif" font-size="14" font-weight="bold" lengthAdjust="spacing" textLength="69.2344" x="133" y="22.5332">React App</text></g><!--cluster Authoring--><g class="cluster" data-entity="Authoring" data-source-line="6" data-uid="ent0004" id="cluster_Authoring"><path d="M8.5,182 L76.3691,182 A3.75,3.75 0 0 1 78.8691,184.5 L85.8691,205.6094 L329.5,205.6094 A2.5,2.5 0 0 1 332,208.1094 L332,472.5 A2.5,2.5 0 0 1 329.5,475 L8.5,475 A2.5,2.5 0 0 1 6,472.5 L6,184.5 A2.5,2.5 0 0 1 8.5,182" fill="#EEF4FF" style="stroke:#000000;stroke-width:1.5;"/><line style="stroke:#000000;stroke-width:1.5;" x1="6" x2="85.8691" y1="205.6094" y2="205.6094"/><text fill="#000000" font-family="sans-serif" font-size="14" font-weight="bold" lengthAdjust="spacing" textLength="66.8691" x="10" y="198.5332">Authoring</text></g><!--cluster Import--><g class="cluster" data-entity="Import" data-source-line="11" data-uid="ent0007" id="cluster_Import"><path d="M891.5,358 L936.0518,358 A3.75,3.75 0 0 1 938.5518,360.5 L945.5518,381.6094 L1088.5,381.6094 A2.5,2.5 0 0 1 1091,384.1094 L1091,472.5 A2.5,2.5 0 0 1 1088.5,475 L891.5,475 A2.5,2.5 0 0 1 889,472.5 L889,360.5 A2.5,2.5 0 0 1 891.5,358" fill="#FFF0F8" style="stroke:#000000;stroke-width:1.5;"/><line style="stroke:#000000;stroke-width:1.5;" x1="889" x2="945.5518" y1="381.6094" y2="381.6094"/><text fill="#000000" font-family="sans-serif" font-size="14" font-weight="bold" lengthAdjust="spacing" textLength="43.5518" x="893" y="374.5332">Import</text></g><!--cluster Graph--><g class="cluster" data-entity="Graph" data-source-line="15" data-uid="ent0009" id="cluster_Graph"><path d="M450.5,525 L492.7275,525 A3.75,3.75 0 0 1 495.2275,527.5 L502.2275,548.6094 L701.5,548.6094 A2.5,2.5 0 0 1 704,551.1094 L704,639.5 A2.5,2.5 0 0 1 701.5,642 L450.5,642 A2.5,2.5 0 0 1 448,639.5 L448,527.5 A2.5,2.5 0 0 1 450.5,525" fill="#FFF8EE" style="stroke:#000000;stroke-width:1.5;"/><line style="stroke:#000000;stroke-width:1.5;" x1="448" x2="502.2275" y1="548.6094" y2="548.6094"/><text fill="#000000" font-family="sans-serif" font-size="14" font-weight="bold" lengthAdjust="spacing" textLength="41.2275" x="452" y="541.5332">Graph</text></g><!--cluster Execution--><g class="cluster" data-entity="Execution" data-source-line="19" data-uid="ent0011" id="cluster_Execution"><path d="M625.5,358 L693.4033,358 A3.75,3.75 0 0 1 695.9033,360.5 L702.9033,381.6094 L862.5,381.6094 A2.5,2.5 0 0 1 865,384.1094 L865,472.5 A2.5,2.5 0 0 1 862.5,475 L625.5,475 A2.5,2.5 0 0 1 623,472.5 L623,360.5 A2.5,2.5 0 0 1 625.5,358" fill="#EEFFF0" style="stroke:#000000;stroke-width:1.5;"/><line style="stroke:#000000;stroke-width:1.5;" x1="623" x2="702.9033" y1="381.6094" y2="381.6094"/><text fill="#000000" font-family="sans-serif" font-size="14" font-weight="bold" lengthAdjust="spacing" textLength="66.9033" x="627" y="374.5332">Execution</text></g><!--cluster Backends--><g class="cluster" data-entity="Backends" data-source-line="23" data-uid="ent0013" id="cluster_Backends"><path d="M650.5,182 L717.6445,182 A3.75,3.75 0 0 1 720.1445,184.5 L727.1445,205.6094 L1255.5,205.6094 A2.5,2.5 0 0 1 1258,208.1094 L1258,296.5 A2.5,2.5 0 0 1 1255.5,299 L650.5,299 A2.5,2.5 0 0 1 648,296.5 L648,184.5 A2.5,2.5 0 0 1 650.5,182" fill="#FFF0F0" style="stroke:#000000;stroke-width:1.5;"/><line style="stroke:#000000;stroke-width:1.5;" x1="648" x2="727.1445" y1="205.6094" y2="205.6094"/><text fill="#000000" font-family="sans-serif" font-size="14" font-weight="bold" lengthAdjust="spacing" textLength="66.1445" x="652" y="198.5332">Backends</text></g><!--cluster Visualization--><g class="cluster" data-entity="Visualization" data-source-line="29" data-uid="ent0017" id="cluster_Visualization"><path d="M358.5,173 L445.0723,173 A3.75,3.75 0 0 1 447.5723,175.5 L454.5723,196.6094 L621.5,196.6094 A2.5,2.5 0 0 1 624,199.1094 L624,305.5 A2.5,2.5 0 0 1 621.5,308 L358.5,308 A2.5,2.5 0 0 1 356,305.5 L356,175.5 A2.5,2.5 0 0 1 358.5,173" fill="#F0F4FF" style="stroke:#000000;stroke-width:1.5;"/><line style="stroke:#000000;stroke-width:1.5;" x1="356" x2="454.5723" y1="196.6094" y2="196.6094"/><text fill="#000000" font-family="sans-serif" font-size="14" font-weight="bold" lengthAdjust="spacing" textLength="85.5723" x="360" y="189.5332">Visualization</text></g><!--entity usercode--><g class="entity" data-entity="usercode" data-source-line="3" data-uid="ent0003" id="entity_usercode"><rect fill="#F1F1F1" height="65.2188" rx="2.5" ry="2.5" style="stroke:#181818;stroke-width:0.5;" width="348.1504" x="145" y="42"/><rect fill="#F1F1F1" height="10" style="stroke:#181818;stroke-width:0.5;" width="15" x="473.1504" y="47"/><rect fill="#F1F1F1" height="2" style="stroke:#181818;stroke-width:0.5;" width="4" x="471.1504" y="49"/><rect fill="#F1F1F1" height="2" style="stroke:#181818;stroke-width:0.5;" width="4" x="471.1504" y="53"/><text fill="#000000" font-family="sans-serif" font-size="14" lengthAdjust="spacing" textLength="63.8066" x="160" y="76.5332">User code</text><text fill="#000000" font-family="sans-serif" font-size="14" lengthAdjust="spacing" textLength="308.1504" x="160" y="94.1426">(import from @webtensor/core + @webtensor/nn)</text></g><!--entity core--><g class="entity" data-entity="core" data-source-line="7" data-uid="ent0005" id="entity_core"><rect fill="#F1F1F1" height="65.2188" rx="2.5" ry="2.5" style="stroke:#181818;stroke-width:0.5;" width="294.4541" x="22" y="394"/><rect fill="#F1F1F1" height="10" style="stroke:#181818;stroke-width:0.5;" width="15" x="296.4541" y="399"/><rect fill="#F1F1F1" height="2" style="stroke:#181818;stroke-width:0.5;" width="4" x="294.4541" y="401"/><rect fill="#F1F1F1" height="2" style="stroke:#181818;stroke-width:0.5;" width="4" x="294.4541" y="405"/><text fill="#000000" font-family="sans-serif" font-size="14" lengthAdjust="spacing" textLength="27.2344" x="37" y="428.5332">core</text><text fill="#000000" font-family="sans-serif" font-size="14" lengthAdjust="spacing" textLength="254.4541" x="37" y="446.1426">Tensor API - autograd - compile/grad/run</text></g><!--entity nn--><g class="entity" data-entity="nn" data-source-line="8" data-uid="ent0006" id="entity_nn"><rect fill="#F1F1F1" height="65.2188" rx="2.5" ry="2.5" style="stroke:#181818;stroke-width:0.5;" width="234.5029" x="30.5" y="218"/><rect fill="#F1F1F1" height="10" style="stroke:#181818;stroke-width:0.5;" width="15" x="245.0029" y="223"/><rect fill="#F1F1F1" height="2" style="stroke:#181818;stroke-width:0.5;" width="4" x="243.0029" y="225"/><rect fill="#F1F1F1" height="2" style="stroke:#181818;stroke-width:0.5;" width="4" x="243.0029" y="229"/><text fill="#000000" font-family="sans-serif" font-size="14" lengthAdjust="spacing" textLength="15.5723" x="45.5" y="252.5332">nn</text><text fill="#000000" font-family="sans-serif" font-size="14" lengthAdjust="spacing" textLength="194.5029" x="45.5" y="270.1426">activations - losses - optimizers</text></g><!--entity onnx--><g class="entity" data-entity="onnx" data-source-line="12" data-uid="ent0008" id="entity_onnx"><rect fill="#F1F1F1" height="65.2188" rx="2.5" ry="2.5" style="stroke:#181818;stroke-width:0.5;" width="169.5615" x="905" y="394"/><rect fill="#F1F1F1" height="10" style="stroke:#181818;stroke-width:0.5;" width="15" x="1054.5615" y="399"/><rect fill="#F1F1F1" height="2" style="stroke:#181818;stroke-width:0.5;" width="4" x="1052.5615" y="401"/><rect fill="#F1F1F1" height="2" style="stroke:#181818;stroke-width:0.5;" width="4" x="1052.5615" y="405"/><text fill="#000000" font-family="sans-serif" font-size="14" lengthAdjust="spacing" textLength="30.3584" x="920" y="428.5332">onnx</text><text fill="#000000" font-family="sans-serif" font-size="14" lengthAdjust="spacing" textLength="129.5615" x="920" y="446.1426">protobuf parser -&gt; IR</text></g><!--entity ir--><g class="entity" data-entity="ir" data-source-line="16" data-uid="ent0010" id="entity_ir"><rect fill="#F1F1F1" height="65.2188" rx="2.5" ry="2.5" style="stroke:#181818;stroke-width:0.5;" width="222.8682" x="464.5" y="561"/><rect fill="#F1F1F1" height="10" style="stroke:#181818;stroke-width:0.5;" width="15" x="667.3682" y="566"/><rect fill="#F1F1F1" height="2" style="stroke:#181818;stroke-width:0.5;" width="4" x="665.3682" y="568"/><rect fill="#F1F1F1" height="2" style="stroke:#181818;stroke-width:0.5;" width="4" x="665.3682" y="572"/><text fill="#000000" font-family="sans-serif" font-size="14" lengthAdjust="spacing" textLength="7.7725" x="479.5" y="595.5332">ir</text><text fill="#000000" font-family="sans-serif" font-size="14" lengthAdjust="spacing" textLength="182.8682" x="479.5" y="613.1426">ONNX-aligned graph schema</text></g><!--entity runtime--><g class="entity" data-entity="runtime" data-source-line="20" data-uid="ent0012" id="entity_runtime"><rect fill="#F1F1F1" height="65.2188" rx="2.5" ry="2.5" style="stroke:#181818;stroke-width:0.5;" width="210.0645" x="639" y="394"/><rect fill="#F1F1F1" height="10" style="stroke:#181818;stroke-width:0.5;" width="15" x="829.0645" y="399"/><rect fill="#F1F1F1" height="2" style="stroke:#181818;stroke-width:0.5;" width="4" x="827.0645" y="401"/><rect fill="#F1F1F1" height="2" style="stroke:#181818;stroke-width:0.5;" width="4" x="827.0645" y="405"/><text fill="#000000" font-family="sans-serif" font-size="14" lengthAdjust="spacing" textLength="46.6826" x="654" y="428.5332">runtime</text><text fill="#000000" font-family="sans-serif" font-size="14" lengthAdjust="spacing" textLength="170.0645" x="654" y="446.1426">Engine + Backend dispatch</text></g><!--entity cpu--><g class="entity" data-entity="cpu" data-source-line="24" data-uid="ent0014" id="entity_cpu"><rect fill="#F1F1F1" height="65.2188" rx="2.5" ry="2.5" style="stroke:#181818;stroke-width:0.5;" width="180.8203" x="664.5" y="218"/><rect fill="#F1F1F1" height="10" style="stroke:#181818;stroke-width:0.5;" width="15" x="825.3203" y="223"/><rect fill="#F1F1F1" height="2" style="stroke:#181818;stroke-width:0.5;" width="4" x="823.3203" y="225"/><rect fill="#F1F1F1" height="2" style="stroke:#181818;stroke-width:0.5;" width="4" x="823.3203" y="229"/><text fill="#000000" font-family="sans-serif" font-size="14" lengthAdjust="spacing" textLength="80.165" x="679.5" y="252.5332">backend-cpu</text><text fill="#000000" font-family="sans-serif" font-size="14" lengthAdjust="spacing" textLength="140.8203" x="679.5" y="270.1426">(correctness / Node.js)</text></g><!--entity wasm--><g class="entity" data-entity="wasm" data-source-line="25" data-uid="ent0015" id="entity_wasm"><rect fill="#F1F1F1" height="65.2188" rx="2.5" ry="2.5" style="stroke:#181818;stroke-width:0.5;" width="134.1514" x="881" y="218"/><rect fill="#F1F1F1" height="10" style="stroke:#181818;stroke-width:0.5;" width="15" x="995.1514" y="223"/><rect fill="#F1F1F1" height="2" style="stroke:#181818;stroke-width:0.5;" width="4" x="993.1514" y="225"/><rect fill="#F1F1F1" height="2" style="stroke:#181818;stroke-width:0.5;" width="4" x="993.1514" y="229"/><text fill="#000000" font-family="sans-serif" font-size="14" lengthAdjust="spacing" textLength="94.1514" x="896" y="252.5332">backend-wasm</text><text fill="#000000" font-family="sans-serif" font-size="14" lengthAdjust="spacing" textLength="92.5654" x="896" y="270.1426">(browser CPU)</text></g><!--entity webgpu--><g class="entity" data-entity="webgpu" data-source-line="26" data-uid="ent0016" id="entity_webgpu"><rect fill="#F1F1F1" height="65.2188" rx="2.5" ry="2.5" style="stroke:#181818;stroke-width:0.5;" width="192.4551" x="1050" y="218"/><rect fill="#F1F1F1" height="10" style="stroke:#181818;stroke-width:0.5;" width="15" x="1222.4551" y="223"/><rect fill="#F1F1F1" height="2" style="stroke:#181818;stroke-width:0.5;" width="4" x="1220.4551" y="225"/><rect fill="#F1F1F1" height="2" style="stroke:#181818;stroke-width:0.5;" width="4" x="1220.4551" y="229"/><text fill="#000000" font-family="sans-serif" font-size="14" lengthAdjust="spacing" textLength="106.6338" x="1065" y="252.5332">backend-webgpu</text><text fill="#000000" font-family="sans-serif" font-size="14" lengthAdjust="spacing" textLength="152.4551" x="1065" y="270.1426">(browser GPU - primary)</text></g><!--entity devtools--><g class="entity" data-entity="devtools" data-source-line="30" data-uid="ent0018" id="entity_devtools"><rect fill="#F1F1F1" height="82.8281" rx="2.5" ry="2.5" style="stroke:#181818;stroke-width:0.5;" width="235.3027" x="372.5" y="209"/><rect fill="#F1F1F1" height="10" style="stroke:#181818;stroke-width:0.5;" width="15" x="587.8027" y="214"/><rect fill="#F1F1F1" height="2" style="stroke:#181818;stroke-width:0.5;" width="4" x="585.8027" y="216"/><rect fill="#F1F1F1" height="2" style="stroke:#181818;stroke-width:0.5;" width="4" x="585.8027" y="220"/><text fill="#000000" font-family="sans-serif" font-size="14" lengthAdjust="spacing" textLength="52.1445" x="387.5" y="243.5332">devtools</text><text fill="#000000" font-family="sans-serif" font-size="14" lengthAdjust="spacing" textLength="189.0889" x="387.5" y="261.1426">Graph view - weight heatmaps</text><text fill="#000000" font-family="sans-serif" font-size="14" lengthAdjust="spacing" textLength="195.3027" x="387.5" y="278.752">activation inspector - loss curve</text></g><!--link usercode to core--><g class="link" data-entity-1="usercode" data-entity-2="core" data-source-line="33" data-uid="lnk19" id="link_usercode_core"><path d="M320.56,107.06 C321.59,154.98 318.28,247.74 283,316 C266.93,347.08 243.2724,370.6183 218.8724,390.1683" fill="none" id="usercode-to-core" style="stroke:#181818;stroke-width:1;"/><polygon fill="#181818" points="214.19,393.92,223.7147,391.4141,218.092,390.7936,218.7125,385.1709,214.19,393.92" style="stroke:#181818;stroke-width:1;"/></g><!--link usercode to nn--><g class="link" data-entity-1="usercode" data-entity-2="nn" data-source-line="34" data-uid="lnk20" id="link_usercode_nn"><path d="M288.03,107.01 C257.14,138.45 214.1458,182.1908 183.2258,213.6508" fill="none" id="usercode-to-nn" style="stroke:#181818;stroke-width:1;"/><polygon fill="#181818" points="179.02,217.93,188.1814,214.315,182.5248,214.364,182.4758,208.7074,179.02,217.93" style="stroke:#181818;stroke-width:1;"/></g><!--link nn to core--><g class="link" data-entity-1="nn" data-entity-2="core" data-source-line="35" data-uid="lnk21" id="link_nn_core"><path d="M151.8,283.01 C155.6,314.45 160.6705,356.5133 164.4705,387.9733" fill="none" id="nn-to-core" style="stroke:#181818;stroke-width:1;"/><polygon fill="#181818" points="165.19,393.93,168.0819,384.5153,164.5904,388.9661,160.1396,385.4746,165.19,393.93" style="stroke:#181818;stroke-width:1;"/></g><!--link usercode to devtools--><g class="link" data-entity-1="usercode" data-entity-2="devtools" data-source-line="36" data-uid="lnk22" id="link_usercode_devtools"><path d="M349.97,107.01 C377.97,135.51 415.174,173.361 445.704,204.421" fill="none" id="usercode-to-devtools" style="stroke:#181818;stroke-width:1;"/><polygon fill="#181818" points="449.91,208.7,446.4537,199.4775,446.405,205.1342,440.7484,205.0855,449.91,208.7" style="stroke:#181818;stroke-width:1;"/><text fill="#000000" font-family="sans-serif" font-size="13" lengthAdjust="spacing" textLength="164.7534" x="395" y="153.4951">subscribes to training events</text></g><!--link core to ir--><g class="link" data-entity-1="core" data-entity-2="ir" data-source-line="37" data-uid="lnk23" id="link_core_ir"><path d="M246.99,459.12 C319.24,488.41 420.5497,529.4754 492.7097,558.7354" fill="none" id="core-to-ir" style="stroke:#181818;stroke-width:1;"/><polygon fill="#181818" points="498.27,560.99,491.4327,553.9012,493.6364,559.1111,488.4265,561.3149,498.27,560.99" style="stroke:#181818;stroke-width:1;"/><text fill="#000000" font-family="sans-serif" font-size="13" lengthAdjust="spacing" textLength="65.749" x="361" y="505.4951">compiles to</text></g><!--link onnx to ir--><g class="link" data-entity-1="onnx" data-entity-2="ir" data-source-line="38" data-uid="lnk24" id="link_onnx_ir"><path d="M920.87,459.02 C902.78,467.04 883.23,475.51 865,483 C797.76,510.64 726.3599,537.6253 668.7499,558.8553" fill="none" id="onnx-to-ir" style="stroke:#181818;stroke-width:1;"/><polygon fill="#181818" points="663.12,560.93,672.948,561.5712,667.8116,559.2011,670.1817,554.0647,663.12,560.93" style="stroke:#181818;stroke-width:1;"/><text fill="#000000" font-family="sans-serif" font-size="13" lengthAdjust="spacing" textLength="53.4727" x="842" y="505.4951">parses to</text></g><!--link runtime to ir--><g class="link" data-entity-1="runtime" data-entity-2="ir" data-source-line="39" data-uid="lnk25" id="link_runtime_ir"><path d="M711.61,459.31 C681.86,488.53 642.2914,527.3964 612.5714,556.5764" fill="none" id="runtime-to-ir" style="stroke:#181818;stroke-width:1;"/><polygon fill="#181818" points="608.29,560.78,617.5144,557.3289,611.8578,557.277,611.9097,551.6204,608.29,560.78" style="stroke:#181818;stroke-width:1;"/><text fill="#000000" font-family="sans-serif" font-size="13" lengthAdjust="spacing" textLength="52.0317" x="676" y="505.4951">executes</text></g><!--link cpu to runtime--><g class="link" data-entity-1="cpu" data-entity-2="runtime" data-source-line="40" data-uid="lnk26" id="link_cpu_runtime"><path d="M753.01,283.01 C751.02,314.45 749.1106,344.5055 747.1306,375.9655" fill="none" id="cpu-to-runtime" style="stroke:#181818;stroke-width:1;stroke-dasharray:7.0,7.0;"/><polygon fill="none" points="746,393.93,753.1188,376.3424,741.1425,375.5887,746,393.93" style="stroke:#181818;stroke-width:1;"/></g><!--link wasm to runtime--><g class="link" data-entity-1="wasm" data-entity-2="runtime" data-source-line="41" data-uid="lnk27" id="link_wasm_runtime"><path d="M911.06,283.01 C874.2,314.45 831.5844,350.7882 794.7044,382.2482" fill="none" id="wasm-to-runtime" style="stroke:#181818;stroke-width:1;stroke-dasharray:7.0,7.0;"/><polygon fill="none" points="781.01,393.93,798.5983,386.813,790.8104,377.6834,781.01,393.93" style="stroke:#181818;stroke-width:1;"/></g><!--link webgpu to runtime--><g class="link" data-entity-1="webgpu" data-entity-2="runtime" data-source-line="42" data-uid="lnk28" id="link_webgpu_runtime"><path d="M1097.75,283.11 C1078.26,294.78 1055.17,307.27 1033,316 C971.82,340.1 950.64,327.08 889,350 C857.34,361.77 839.5105,370.1426 812.6505,385.1226" fill="none" id="webgpu-to-runtime" style="stroke:#181818;stroke-width:1;stroke-dasharray:7.0,7.0;"/><polygon fill="none" points="796.93,393.89,815.5729,390.3627,809.728,379.8824,796.93,393.89" style="stroke:#181818;stroke-width:1;"/></g><!--link devtools to runtime--><g class="link" data-entity-1="devtools" data-entity-2="runtime" data-source-line="43" data-uid="lnk29" id="link_devtools_runtime"><path d="M544.94,292.22 C566.59,308.02 591.79,326.1 615,342 C640.75,359.64 664.854,375.3694 688.924,390.7494" fill="none" id="devtools-to-runtime" style="stroke:#181818;stroke-width:1;"/><polygon fill="#181818" points="693.98,393.98,688.5498,385.7634,689.7667,391.2878,684.2423,392.5047,693.98,393.98" style="stroke:#181818;stroke-width:1;"/><text fill="#000000" font-family="sans-serif" font-size="13" lengthAdjust="spacing" textLength="124.2935" x="616" y="338.4951">reads execution trace</text></g><!--link devtools to ir--><g class="link" data-entity-1="devtools" data-entity-2="ir" data-source-line="44" data-uid="lnk30" id="link_devtools_ir"><path d="M497.81,292.34 C506.97,338.81 523.18,416.84 541,483 C548.11,509.4 555.7138,533.2242 563.0338,554.9442" fill="none" id="devtools-to-ir" style="stroke:#181818;stroke-width:1;"/><polygon fill="#181818" points="564.95,560.63,565.8662,550.8239,563.3532,555.8918,558.2852,553.3788,564.95,560.63" style="stroke:#181818;stroke-width:1;"/><text fill="#000000" font-family="sans-serif" font-size="13" lengthAdjust="spacing" textLength="80.939" x="542" y="431.9951">renders graph</text></g><!--SRC=[TLF1RjD04BtxAqRb0a99E728UgW8oAbo2L5545BDORsUsWlnx6fsdPG2_yxisaxZIjoSsJTlthnvSKh_L3N2rHqg7M3bt1MyofVhT-ir_Cu0xlSU6RIjiA3NfdMM0pomRU732Sk0v2qlj6M4jvSLeZVVGNdef3dsPd-pp8sJLbreB1kguwHy_NwS56aA-f8OOBNRm0nK5spDgf9FRLjd3hY8FnVSKUAFBR6Lg22HRuug64jUu0VhFSOFwu9fpHEoJnr44osRj948MQzbvMKln18z5kJO1bjs3-0KHmzcDx2vInpnVS9ooyerFSaoptiImmLztcw_pTJ1r8GLr144NZVOgaHZU4AIFwBkelpU5j7J4yckie4uarDjA1hzKLgGAgYCTohe9h4Di0db0FJZVWDZsPTdsdLoLF6GKGT2xs41MxdM_8VlpoU0I_n9-LOQIhQdQCYdtRw7nVe4XsMTg4VaxMulbt1iMiM_Xfw4cQZzQdmdPZsfmGGHVCv6XSTWxS4NbBo6ey6JK9xGr4s01bLebVEN8G13tibUagK-3Q0xFc8QFhB5yMD4OIO7JdcQL2GlHFzv6sdW6dnNUiscbCW52u6L8Gauu14f-2pzGMA7OS4EIOx8B4Rf-IKbBTM7Qpu_OKe72fVhO3x_StC-U7J_HILvEwsTjKR6aVqQ65Nb1_9ecYZNBy1fFCjTvI_KXpZx1m00]--></g></svg>