<svg xmlns="http://www.w3.org/2000/svg" xmlns:xlink="http://www.w3.org/1999/xlink" contentStyleType="text/css" data-diagram-type="ACTIVITY" height="998px" preserveAspectRatio="none" style="width:1350px;height:998px;background:#FAFAFA;" version="1.1" viewBox="0 0 1350 998" width="1350px" zoomAndPan="magnify"><title>Engine Dispatch &#8212; Three Fast Paths Plus Kernel</title><defs/><g><rect fill="#FAFAFA" height="998" style="stroke:none;stroke-width:1;" width="1350" x="0" y="0"/><text fill="#000000" font-family="Segoe UI" font-size="14" font-weight="bold" lengthAdjust="spacing" textLength="312.3203" x="517.3851" y="35.1074">Engine Dispatch &#8212; Three Fast Paths Plus Kernel</text><ellipse cx="709.2498" cy="59.6211" fill="#222222" rx="10" ry="10" style="stroke:#222222;stroke-width:1;"/><rect fill="#F1F1F1" height="35.9609" rx="12.5" ry="12.5" style="stroke:#181818;stroke-width:0.5;" width="141.207" x="638.6462" y="89.6211"/><text fill="#000000" font-family="Segoe UI" font-size="12" lengthAdjust="spacing" textLength="121.207" x="648.6462" y="112.5703">Engine.evaluate(graph)</text><rect fill="#F1F1F1" height="35.9609" rx="12.5" ry="12.5" style="stroke:#181818;stroke-width:0.5;" width="101.293" x="658.6033" y="145.582"/><text fill="#000000" font-family="Segoe UI" font-size="12" lengthAdjust="spacing" textLength="81.293" x="668.6033" y="168.5313">topologicalSort</text><rect fill="#F1F1F1" height="35.9609" rx="12.5" ry="12.5" style="stroke:#181818;stroke-width:0.5;" width="97.5195" x="660.49" y="264.1738"/><text fill="#000000" font-family="Segoe UI" font-size="12" lengthAdjust="spacing" textLength="77.5195" x="670.49" y="287.123">pop next node</text><polygon fill="#F1F1F1" points="60.4807,321.3418,178.7361,321.3418,190.7361,333.3418,178.7361,345.3418,60.4807,345.3418,48.4807,333.3418,60.4807,321.3418" style="stroke:#181818;stroke-width:0.5;"/><text fill="#000000" font-family="Segoe UI" font-size="11" lengthAdjust="spacing" textLength="15.7427" x="123.6084" y="357.2119">yes</text><text fill="#000000" font-family="Segoe UI" font-size="11" lengthAdjust="spacing" textLength="118.2554" x="60.4807" y="337.8965">node.op == "Constant"?</text><rect fill="#F1F1F1" height="51.9219" rx="12.5" ry="12.5" style="stroke:#181818;stroke-width:0.5;" width="149.2168" x="45" y="379.9727"/><text fill="#000000" font-family="Segoe UI" font-size="12" lengthAdjust="spacing" textLength="129.2168" x="55" y="402.9219">backend.allocate + write</text><text fill="#000000" font-family="Segoe UI" font-size="12" lengthAdjust="spacing" textLength="81.2402" x="55" y="418.8828">(initializer data)</text><polygon fill="#F1F1F1" points="226.2168,311.3955,361.0205,311.3955,373.0205,333.3418,361.0205,355.2881,226.2168,355.2881,214.2168,333.3418,226.2168,311.3955" style="stroke:#181818;stroke-width:0.5;"/><text fill="#000000" font-family="Segoe UI" font-size="11" lengthAdjust="spacing" textLength="15.7427" x="297.6187" y="367.1582">yes</text><text fill="#000000" font-family="Segoe UI" font-size="11" lengthAdjust="spacing" textLength="93.4087" x="226.2168" y="323.2656">op in viewRegistry?</text><text fill="#000000" font-family="Segoe UI" font-size="11" lengthAdjust="spacing" textLength="120.2266" x="226.2168" y="337.8965">Transpose|Slice|Permute|</text><text fill="#000000" font-family="Segoe UI" font-size="11" lengthAdjust="spacing" textLength="134.8037" x="226.2168" y="352.5273">Expand|Squeeze|Unsqueeze</text><path d="M394.9155,389.9189 L394.9155,434.1465 L374.9155,438.1465 L394.9155,442.1465 L394.9155,486.374 A0,0 0 0 0 394.9155,486.374 L517.9478,486.374 A0,0 0 0 0 517.9478,486.374 L517.9478,399.9189 L507.9478,389.9189 L394.9155,389.9189 A0,0 0 0 0 394.9155,389.9189" fill="#FEFFDD" style="stroke:#181818;stroke-width:0.5;"/><path d="M507.9478,389.9189 L507.9478,399.9189 L517.9478,399.9189 L507.9478,389.9189" fill="#FEFFDD" style="stroke:#181818;stroke-width:0.5;"/><text fill="#000000" font-family="Segoe UI" font-size="13" lengthAdjust="spacing" textLength="100.3818" x="400.9155" y="408.9473">Pure metadata &#8212;</text><text fill="#000000" font-family="Segoe UI" font-size="13" lengthAdjust="spacing" textLength="85.8267" x="400.9155" y="426.2383">shares storage,</text><text fill="#000000" font-family="Segoe UI" font-size="13" lengthAdjust="spacing" textLength="77.9937" x="400.9155" y="443.5293">isView = true.</text><text fill="#000000" font-family="Segoe UI" font-size="13" lengthAdjust="spacing" textLength="102.0322" x="400.9155" y="460.8203">Track viewParents</text><text fill="#000000" font-family="Segoe UI" font-size="13" lengthAdjust="spacing" textLength="88.3213" x="400.9155" y="478.1113">for cascade GC.</text><rect fill="#F1F1F1" height="35.9609" rx="12.5" ry="12.5" style="stroke:#181818;stroke-width:0.5;" width="162.5938" x="212.3218" y="420.166"/><text fill="#000000" font-family="Segoe UI" font-size="12" lengthAdjust="spacing" textLength="142.5938" x="222.3218" y="443.1152">viewRegistry[op](node, src)</text><polygon fill="#F1F1F1" points="606.5566,321.3418,715.5898,321.3418,727.5898,333.3418,715.5898,345.3418,606.5566,345.3418,594.5566,333.3418,606.5566,321.3418" style="stroke:#181818;stroke-width:0.5;"/><text fill="#000000" font-family="Segoe UI" font-size="11" lengthAdjust="spacing" textLength="15.7427" x="665.0732" y="357.2119">yes</text><text fill="#000000" font-family="Segoe UI" font-size="11" lengthAdjust="spacing" textLength="109.0332" x="606.5566" y="337.8965">op in {Reshape, View}?</text><text fill="#000000" font-family="Segoe UI" font-size="11" lengthAdjust="spacing" textLength="45.6113" x="727.5898" y="330.5811">kernel op</text><polygon fill="#F1F1F1" points="616.8799,379.9727,705.2666,379.9727,717.2666,391.9727,705.2666,403.9727,616.8799,403.9727,604.8799,391.9727,616.8799,379.9727" style="stroke:#181818;stroke-width:0.5;"/><text fill="#000000" font-family="Segoe UI" font-size="11" lengthAdjust="spacing" textLength="88.3867" x="616.8799" y="396.5273">isContiguous(src)?</text><text fill="#000000" font-family="Segoe UI" font-size="11" lengthAdjust="spacing" textLength="15.7427" x="589.1372" y="389.2119">yes</text><text fill="#000000" font-family="Segoe UI" font-size="11" lengthAdjust="spacing" textLength="12.6704" x="717.2666" y="389.2119">no</text><rect fill="#F1F1F1" height="35.9609" rx="12.5" ry="12.5" style="stroke:#181818;stroke-width:0.5;" width="100.0273" x="527.9478" y="413.9727"/><text fill="#000000" font-family="Segoe UI" font-size="12" lengthAdjust="spacing" textLength="80.0273" x="537.9478" y="436.9219">zero-copy view</text><rect fill="#F1F1F1" height="51.9219" rx="12.5" ry="12.5" style="stroke:#181818;stroke-width:0.5;" width="172.4199" x="657.9751" y="463.2881"/><text fill="#000000" font-family="Segoe UI" font-size="12" lengthAdjust="spacing" textLength="152.4199" x="667.9751" y="486.2373">backend.execute Contiguous</text><text fill="#000000" font-family="Segoe UI" font-size="12" lengthAdjust="spacing" textLength="68.9766" x="667.9751" y="502.1982">then reshape</text><polygon fill="#F1F1F1" points="711.2791,413.9727,777.0911,413.9727,789.0911,425.9727,777.0911,437.9727,711.2791,437.9727,699.2791,425.9727,711.2791,413.9727" style="stroke:#181818;stroke-width:0.5;"/><text fill="#000000" font-family="Segoe UI" font-size="11" lengthAdjust="spacing" textLength="41.0405" x="748.1851" y="449.8428">Reshape</text><text fill="#000000" font-family="Segoe UI" font-size="11" lengthAdjust="spacing" textLength="65.812" x="711.2791" y="430.5273">op == "View"</text><text fill="#000000" font-family="Segoe UI" font-size="11" lengthAdjust="spacing" textLength="28.1714" x="789.0911" y="423.2119">throw</text><ellipse cx="839.2625" cy="425.9727" fill="none" rx="11" ry="11" style="stroke:#222222;stroke-width:1;"/><ellipse cx="839.2625" cy="425.9727" fill="#222222" rx="6" ry="6" style="stroke:#222222;stroke-width:1;"/><polygon fill="#F1F1F1" points="661.0732,546.5254,673.0732,558.5254,661.0732,570.5254,649.0732,558.5254,661.0732,546.5254" style="stroke:#181818;stroke-width:0.5;"/><rect fill="#F1F1F1" height="35.9609" rx="12.5" ry="12.5" style="stroke:#181818;stroke-width:0.5;" width="156.4766" x="895.9812" y="390.8979"/><text fill="#000000" font-family="Segoe UI" font-size="12" lengthAdjust="spacing" textLength="136.4766" x="905.9812" y="413.8472">backend.allocate(outputs)</text><path d="M1108.1765,461.8589 L1108.1765,497.4409 L1088.1765,501.4409 L1108.1765,505.4409 L1108.1765,541.0229 A0,0 0 0 0 1108.1765,541.0229 L1312.0906,541.0229 A0,0 0 0 0 1312.0906,541.0229 L1312.0906,471.8589 L1302.0906,461.8589 L1108.1765,461.8589 A0,0 0 0 0 1108.1765,461.8589" fill="#FEFFDD" style="stroke:#181818;stroke-width:0.5;"/><path d="M1302.0906,461.8589 L1302.0906,471.8589 L1312.0906,471.8589 L1302.0906,461.8589" fill="#FEFFDD" style="stroke:#181818;stroke-width:0.5;"/><text fill="#000000" font-family="Segoe UI" font-size="13" lengthAdjust="spacing" textLength="128.8003" x="1114.1765" y="480.8872">Kernel registry lookup:</text><text fill="#000000" font-family="Segoe UI" font-size="13" lengthAdjust="spacing" textLength="149.4365" x="1121.2986" y="498.1782">CPU  &#8594; cpuKernelRegistry</text><text fill="#000000" font-family="Segoe UI" font-size="13" lengthAdjust="spacing" textLength="172.4404" x="1121.2986" y="515.4692">WASM &#8594; wasmKernelRegistry</text><text fill="#000000" font-family="Segoe UI" font-size="13" lengthAdjust="spacing" textLength="175.792" x="1121.2986" y="532.7603">GPU  &#8594; webgpuKernelRegistry</text><rect fill="#F1F1F1" height="35.9609" rx="12.5" ry="12.5" style="stroke:#181818;stroke-width:0.5;" width="227.9141" x="860.2625" y="483.4604"/><text fill="#000000" font-family="Segoe UI" font-size="12" lengthAdjust="spacing" textLength="207.9141" x="870.2625" y="506.4097">backend.execute(node, inputs, outputs)</text><rect fill="#F1F1F1" height="35.9609" rx="12.5" ry="12.5" style="stroke:#181818;stroke-width:0.5;" width="160.502" x="628.9988" y="629.814"/><text fill="#000000" font-family="Segoe UI" font-size="12" lengthAdjust="spacing" textLength="140.502" x="638.9988" y="652.7632">decrement input refcounts</text><rect fill="#F1F1F1" height="35.9609" rx="12.5" ry="12.5" style="stroke:#181818;stroke-width:0.5;" width="60.5176" x="678.991" y="735.0903"/><text fill="#000000" font-family="Segoe UI" font-size="12" lengthAdjust="spacing" textLength="40.5176" x="688.991" y="758.0396">dispose</text><rect fill="#F1F1F1" height="35.9609" rx="12.5" ry="12.5" style="stroke:#181818;stroke-width:0.5;" width="159.5703" x="629.4646" y="840.3667"/><text fill="#000000" font-family="Segoe UI" font-size="12" lengthAdjust="spacing" textLength="139.5703" x="639.4646" y="863.3159">cascade decrement parent</text><polygon fill="#F1F1F1" points="681.0488,791.0513,737.4507,791.0513,749.4507,803.0513,737.4507,815.0513,681.0488,815.0513,669.0488,803.0513,681.0488,791.0513" style="stroke:#181818;stroke-width:0.5;"/><text fill="#000000" font-family="Segoe UI" font-size="11" lengthAdjust="spacing" textLength="15.7427" x="713.2498" y="826.9214">yes</text><text fill="#000000" font-family="Segoe UI" font-size="11" lengthAdjust="spacing" textLength="56.4019" x="681.0488" y="807.606">was a view?</text><polygon fill="#F1F1F1" points="709.2498,896.3276,721.2498,908.3276,709.2498,920.3276,697.2498,908.3276,709.2498,896.3276" style="stroke:#181818;stroke-width:0.5;"/><polygon fill="#F1F1F1" points="631.3877,685.7749,787.1118,685.7749,799.1118,697.7749,787.1118,709.7749,631.3877,709.7749,619.3877,697.7749,631.3877,685.7749" style="stroke:#181818;stroke-width:0.5;"/><text fill="#000000" font-family="Segoe UI" font-size="11" lengthAdjust="spacing" textLength="15.7427" x="713.2498" y="721.645">yes</text><text fill="#000000" font-family="Segoe UI" font-size="11" lengthAdjust="spacing" textLength="155.7241" x="631.3877" y="702.3296">refcount == 0 &amp;&amp; not retained?</text><polygon fill="#F1F1F1" points="709.2498,940.3276,721.2498,952.3276,709.2498,964.3276,697.2498,952.3276,709.2498,940.3276" style="stroke:#181818;stroke-width:0.5;"/><polygon fill="#F1F1F1" points="677.7456,201.543,740.7539,201.543,752.7539,213.543,740.7539,225.543,677.7456,225.543,665.7456,213.543,677.7456,201.543" style="stroke:#181818;stroke-width:0.5;"/><text fill="#000000" font-family="Segoe UI" font-size="11" lengthAdjust="spacing" textLength="15.7427" x="713.2498" y="237.4131">yes</text><text fill="#000000" font-family="Segoe UI" font-size="11" lengthAdjust="spacing" textLength="63.0083" x="677.7456" y="218.0977">more nodes?</text><text fill="#000000" font-family="Segoe UI" font-size="11" lengthAdjust="spacing" textLength="12.6704" x="653.0752" y="210.7822">no</text><ellipse cx="24" cy="260.543" fill="none" rx="11" ry="11" style="stroke:#222222;stroke-width:1;"/><ellipse cx="24" cy="260.543" fill="#222222" rx="6" ry="6" style="stroke:#222222;stroke-width:1;"/><line style="stroke:#181818;stroke-width:1;" x1="709.2498" x2="709.2498" y1="69.6211" y2="89.6211"/><polygon fill="#181818" points="705.2498,79.6211,709.2498,89.6211,713.2498,79.6211,709.2498,83.6211" style="stroke:#181818;stroke-width:1;"/><line style="stroke:#181818;stroke-width:1;" x1="709.2498" x2="709.2498" y1="125.582" y2="145.582"/><polygon fill="#181818" points="705.2498,135.582,709.2498,145.582,713.2498,135.582,709.2498,139.582" style="stroke:#181818;stroke-width:1;"/><line style="stroke:#181818;stroke-width:1;" x1="744.1851" x2="744.1851" y1="437.9727" y2="463.2881"/><polygon fill="#181818" points="740.1851,453.2881,744.1851,463.2881,748.1851,453.2881,744.1851,457.2881" style="stroke:#181818;stroke-width:1;"/><line style="stroke:#181818;stroke-width:1;" x1="789.0911" x2="828.2625" y1="425.9727" y2="425.9727"/><polygon fill="#181818" points="818.2625,421.9727,828.2625,425.9727,818.2625,429.9727,822.2625,425.9727" style="stroke:#181818;stroke-width:1;"/><line style="stroke:#181818;stroke-width:1;" x1="744.1851" x2="744.1851" y1="515.21" y2="558.5254"/><line style="stroke:#181818;stroke-width:1;" x1="744.1851" x2="673.0732" y1="558.5254" y2="558.5254"/><polygon fill="#181818" points="683.0732,554.5254,673.0732,558.5254,683.0732,562.5254,679.0732,558.5254" style="stroke:#181818;stroke-width:1;"/><line style="stroke:#181818;stroke-width:1;" x1="604.8799" x2="577.9614" y1="391.9727" y2="391.9727"/><line style="stroke:#181818;stroke-width:1;" x1="577.9614" x2="577.9614" y1="391.9727" y2="413.9727"/><polygon fill="#181818" points="573.9614,403.9727,577.9614,413.9727,581.9614,403.9727,577.9614,407.9727" style="stroke:#181818;stroke-width:1;"/><line style="stroke:#181818;stroke-width:1;" x1="717.2666" x2="744.1851" y1="391.9727" y2="391.9727"/><line style="stroke:#181818;stroke-width:1;" x1="744.1851" x2="744.1851" y1="391.9727" y2="413.9727"/><polygon fill="#181818" points="740.1851,403.9727,744.1851,413.9727,748.1851,403.9727,744.1851,407.9727" style="stroke:#181818;stroke-width:1;"/><line style="stroke:#181818;stroke-width:1;" x1="577.9614" x2="577.9614" y1="449.9336" y2="558.5254"/><line style="stroke:#181818;stroke-width:1;" x1="577.9614" x2="649.0732" y1="558.5254" y2="558.5254"/><polygon fill="#181818" points="639.0732,554.5254,649.0732,558.5254,639.0732,562.5254,643.0732,558.5254" style="stroke:#181818;stroke-width:1;"/><line style="stroke:#181818;stroke-width:1;" x1="974.2195" x2="974.2195" y1="426.8589" y2="483.4604"/><polygon fill="#181818" points="970.2195,473.4604,974.2195,483.4604,978.2195,473.4604,974.2195,477.4604" style="stroke:#181818;stroke-width:1;"/><line style="stroke:#181818;stroke-width:1;" x1="119.6084" x2="119.6084" y1="345.3418" y2="379.9727"/><polygon fill="#181818" points="115.6084,369.9727,119.6084,379.9727,123.6084,369.9727,119.6084,373.9727" style="stroke:#181818;stroke-width:1;"/><line style="stroke:#181818;stroke-width:1;" x1="119.6084" x2="119.6084" y1="431.8945" y2="609.814"/><polygon fill="#181818" points="115.6084,599.814,119.6084,609.814,123.6084,599.814,119.6084,603.814" style="stroke:#181818;stroke-width:1;"/><line style="stroke:#181818;stroke-width:1;" x1="293.6187" x2="293.6187" y1="355.2881" y2="420.166"/><polygon fill="#181818" points="289.6187,410.166,293.6187,420.166,297.6187,410.166,293.6187,414.166" style="stroke:#181818;stroke-width:1;"/><line style="stroke:#181818;stroke-width:1;" x1="293.6187" x2="293.6187" y1="456.127" y2="609.814"/><polygon fill="#181818" points="289.6187,599.814,293.6187,609.814,297.6187,599.814,293.6187,603.814" style="stroke:#181818;stroke-width:1;"/><line style="stroke:#181818;stroke-width:1;" x1="661.0732" x2="661.0732" y1="345.3418" y2="379.9727"/><polygon fill="#181818" points="657.0732,369.9727,661.0732,379.9727,665.0732,369.9727,661.0732,373.9727" style="stroke:#181818;stroke-width:1;"/><line style="stroke:#181818;stroke-width:1;" x1="661.0732" x2="661.0732" y1="570.5254" y2="609.814"/><polygon fill="#181818" points="657.0732,599.814,661.0732,609.814,665.0732,599.814,661.0732,603.814" style="stroke:#181818;stroke-width:1;"/><line style="stroke:#181818;stroke-width:1;" x1="190.7361" x2="214.2168" y1="333.3418" y2="333.3418"/><polygon fill="#181818" points="204.2168,329.3418,214.2168,333.3418,204.2168,337.3418,208.2168,333.3418" style="stroke:#181818;stroke-width:1;"/><line style="stroke:#181818;stroke-width:1;" x1="373.0205" x2="594.5566" y1="333.3418" y2="333.3418"/><polygon fill="#181818" points="584.5566,329.3418,594.5566,333.3418,584.5566,337.3418,588.5566,333.3418" style="stroke:#181818;stroke-width:1;"/><line style="stroke:#181818;stroke-width:1;" x1="709.2498" x2="709.2498" y1="300.1348" y2="305.1348"/><line style="stroke:#181818;stroke-width:1;" x1="709.2498" x2="119.6084" y1="305.1348" y2="305.1348"/><line style="stroke:#181818;stroke-width:1;" x1="119.6084" x2="119.6084" y1="305.1348" y2="321.3418"/><polygon fill="#181818" points="115.6084,311.3418,119.6084,321.3418,123.6084,311.3418,119.6084,315.3418" style="stroke:#181818;stroke-width:1;"/><line style="stroke:#181818;stroke-width:1;" x1="727.5898" x2="974.2195" y1="333.3418" y2="333.3418"/><line style="stroke:#181818;stroke-width:1;" x1="974.2195" x2="974.2195" y1="333.3418" y2="390.8979"/><polygon fill="#181818" points="970.2195,380.8979,974.2195,390.8979,978.2195,380.8979,974.2195,384.8979" style="stroke:#181818;stroke-width:1;"/><line style="stroke:#181818;stroke-width:1;" x1="974.2195" x2="974.2195" y1="519.4214" y2="609.814"/><polygon fill="#181818" points="970.2195,599.814,974.2195,609.814,978.2195,599.814,974.2195,603.814" style="stroke:#181818;stroke-width:1;"/><line style="stroke:#181818;stroke-width:1;" x1="119.6084" x2="974.2195" y1="609.814" y2="609.814"/><line style="stroke:#181818;stroke-width:1;" x1="709.2498" x2="709.2498" y1="609.814" y2="629.814"/><polygon fill="#181818" points="705.2498,619.814,709.2498,629.814,713.2498,619.814,709.2498,623.814" style="stroke:#181818;stroke-width:1;"/><line style="stroke:#181818;stroke-width:1;" x1="709.2498" x2="709.2498" y1="815.0513" y2="840.3667"/><polygon fill="#181818" points="705.2498,830.3667,709.2498,840.3667,713.2498,830.3667,709.2498,834.3667" style="stroke:#181818;stroke-width:1;"/><line style="stroke:#181818;stroke-width:1;" x1="749.4507" x2="799.0349" y1="803.0513" y2="803.0513"/><polygon fill="#181818" points="795.0349,848.3472,799.0349,858.3472,803.0349,848.3472,799.0349,852.3472" style="stroke:#181818;stroke-width:1;"/><line style="stroke:#181818;stroke-width:1;" x1="799.0349" x2="799.0349" y1="803.0513" y2="908.3276"/><line style="stroke:#181818;stroke-width:1;" x1="799.0349" x2="721.2498" y1="908.3276" y2="908.3276"/><polygon fill="#181818" points="731.2498,904.3276,721.2498,908.3276,731.2498,912.3276,727.2498,908.3276" style="stroke:#181818;stroke-width:1;"/><line style="stroke:#181818;stroke-width:1;" x1="709.2498" x2="709.2498" y1="876.3276" y2="896.3276"/><polygon fill="#181818" points="705.2498,886.3276,709.2498,896.3276,713.2498,886.3276,709.2498,890.3276" style="stroke:#181818;stroke-width:1;"/><line style="stroke:#181818;stroke-width:1;" x1="709.2498" x2="709.2498" y1="771.0513" y2="791.0513"/><polygon fill="#181818" points="705.2498,781.0513,709.2498,791.0513,713.2498,781.0513,709.2498,785.0513" style="stroke:#181818;stroke-width:1;"/><line style="stroke:#181818;stroke-width:1;" x1="709.2498" x2="709.2498" y1="709.7749" y2="735.0903"/><polygon fill="#181818" points="705.2498,725.0903,709.2498,735.0903,713.2498,725.0903,709.2498,729.0903" style="stroke:#181818;stroke-width:1;"/><line style="stroke:#181818;stroke-width:1;" x1="799.1118" x2="821.0349" y1="697.7749" y2="697.7749"/><polygon fill="#181818" points="817.0349,812.8667,821.0349,822.8667,825.0349,812.8667,821.0349,816.8667" style="stroke:#181818;stroke-width:1;"/><line style="stroke:#181818;stroke-width:1;" x1="821.0349" x2="821.0349" y1="697.7749" y2="952.3276"/><line style="stroke:#181818;stroke-width:1;" x1="821.0349" x2="721.2498" y1="952.3276" y2="952.3276"/><polygon fill="#181818" points="731.2498,948.3276,721.2498,952.3276,731.2498,956.3276,727.2498,952.3276" style="stroke:#181818;stroke-width:1;"/><line style="stroke:#181818;stroke-width:1;" x1="709.2498" x2="709.2498" y1="920.3276" y2="940.3276"/><polygon fill="#181818" points="705.2498,930.3276,709.2498,940.3276,713.2498,930.3276,709.2498,934.3276" style="stroke:#181818;stroke-width:1;"/><line style="stroke:#181818;stroke-width:1;" x1="709.2498" x2="709.2498" y1="665.7749" y2="685.7749"/><polygon fill="#181818" points="705.2498,675.7749,709.2498,685.7749,713.2498,675.7749,709.2498,679.7749" style="stroke:#181818;stroke-width:1;"/><line style="stroke:#181818;stroke-width:1;" x1="709.2498" x2="709.2498" y1="225.543" y2="264.1738"/><polygon fill="#181818" points="705.2498,254.1738,709.2498,264.1738,713.2498,254.1738,709.2498,258.1738" style="stroke:#181818;stroke-width:1;"/><line style="stroke:#181818;stroke-width:1;" x1="709.2498" x2="709.2498" y1="964.3276" y2="974.3276"/><line style="stroke:#181818;stroke-width:1;" x1="709.2498" x2="1324.0906" y1="974.3276" y2="974.3276"/><polygon fill="#181818" points="1320.0906,590.5254,1324.0906,580.5254,1328.0906,590.5254,1324.0906,586.5254" style="stroke:#181818;stroke-width:1;"/><line style="stroke:#181818;stroke-width:1;" x1="1324.0906" x2="1324.0906" y1="213.543" y2="974.3276"/><line style="stroke:#181818;stroke-width:1;" x1="1324.0906" x2="752.7539" y1="213.543" y2="213.543"/><polygon fill="#181818" points="762.7539,209.543,752.7539,213.543,762.7539,217.543,758.7539,213.543" style="stroke:#181818;stroke-width:1;"/><line style="stroke:#181818;stroke-width:1;" x1="665.7456" x2="24" y1="213.543" y2="213.543"/><line style="stroke:#181818;stroke-width:1;" x1="24" x2="24" y1="213.543" y2="249.543"/><polygon fill="#181818" points="20,239.543,24,249.543,28,239.543,24,243.543" style="stroke:#181818;stroke-width:1;"/><line style="stroke:#181818;stroke-width:1;" x1="709.2498" x2="709.2498" y1="181.543" y2="201.543"/><polygon fill="#181818" points="705.2498,191.543,709.2498,201.543,713.2498,191.543,709.2498,195.543" style="stroke:#181818;stroke-width:1;"/><!--SRC=[TLHDJnin4BtlhnYb4WegZNfEX10A7wggLX61zj3qOBoJNIkxjckFMQ11wga_eEelv9TqxDqDeG7baBNzFFDctXkJeWhXL1TA8vmeRmN94Xv__ONBqY72cV04Cq6bXraLF7n4fx7AChzIsWedQhWMSbKu4tG-DPLnyERiEFws4BuKkMcKBc0fAezR9oUu5A6YCwFfiwWH1dCi3CBLXm5d8E4eoyOjjn7UY2e8mc7XX2tt9zcOZEM4XPAYcXj7aonhIiN536lZ4BJ9qH_jW_8ml4E_dm6ChR6WyPRI8UC1r1A6SJ7YayD364oDvhoQ1doJIjIRktmx5eew7ucgCfAPm5jed29SwA7IYfIer3qwo0K9fWU0N6kCpw6LXXk5pGKMofExErheIoUqjyRZUbufYUiPkZeGhXVwzDOAdQ_dFmBYFQwlj6-_TWbjX_ncxFTKoG5u9rD-u3APfLD5IMa9C0lScHf9H99HvMwV5NBemPDnei23RbVvBvm13e5Sm56toSJbAbKpupkQVBU_PEcby5Ba2EVJ5itTIXnscl7p0ZcbPR8nmyDkioDKULQ3L15CyCDOr2wCcy0jD- -aiNU9KrjtJ1PrxK5TuYXmp3Veur3fJDE389PlkqKReMFvXDXu06zHibpmn72XKqpNNfdqSNIkbjdsLnjvbSO8Z7t5MqCJo0RodP3_v-sKvZ5Yp04y1- -etiuiKskj0fKngs37cwgciok0nzz_GDhGOdjNRI1VZ-UV4gGHldu5Szw7QV2wU37IjXzIE-9GvYWTrkoajXockPJycf2VTFFPRqJztiFUNWp1A1ByBEGlp6ckqc1DDaPYpY2IFLvqKE_Q9o8sENloNBUMCFzrhqoqLvOiymy0]--></g></svg>