<svg xmlns="http://www.w3.org/2000/svg" xmlns:xlink="http://www.w3.org/1999/xlink" contentStyleType="text/css" data-diagram-type="CLASS" height="752px" preserveAspectRatio="none" style="width:1021px;height:752px;background:#FFFFFF;" version="1.1" viewBox="0 0 1021 752" width="1021px" zoomAndPan="magnify"><defs/><g><!--class Backend--><g class="entity" data-entity="Backend" data-source-line="2" data-uid="ent0002" id="entity_Backend"><rect fill="#F1F1F1" height="146.75" rx="2.5" ry="2.5" style="stroke:#181818;stroke-width:0.5;" width="391.4355" x="278" y="7"/><ellipse cx="442.2266" cy="28.3516" fill="#B4A7E5" rx="11" ry="11" style="stroke:#181818;stroke-width:1;"/><path d="M443.1797,24.9922 L443.1797,31.6484 L444.8984,31.6484 Q445.5078,31.6484 445.7734,31.8828 Q446.0391,32.1172 446.0391,32.5078 Q446.0391,32.8828 445.7734,33.1172 Q445.5078,33.3516 444.8984,33.3516 L439.7578,33.3516 Q439.1484,33.3516 438.8828,33.1172 Q438.6172,32.8828 438.6172,32.4922 Q438.6172,32.1172 438.8828,31.8828 Q439.1484,31.6484 439.7578,31.6484 L441.4766,31.6484 L441.4766,24.9922 L439.7578,24.9922 Q439.1484,24.9922 438.8828,24.7578 Q438.6172,24.5234 438.6172,24.1328 Q438.6172,23.7578 438.8828,23.5234 Q439.1484,23.2891 439.7578,23.2891 L444.8984,23.2891 Q445.5078,23.2891 445.7734,23.5234 Q446.0391,23.7578 446.0391,24.1328 Q446.0391,24.5234 445.7734,24.7578 Q445.5078,24.9922 444.8984,24.9922 L443.1797,24.9922 Z " fill="#000000"/><text fill="#000000" font-family="sans-serif" font-size="12" font-style="italic" lengthAdjust="spacing" textLength="53.3613" x="463.2871" y="24.457">&#171;runtime&#187;</text><text fill="#000000" font-family="sans-serif" font-size="14" font-style="italic" lengthAdjust="spacing" textLength="54.4824" x="462.7266" y="41.627">Backend</text><line style="stroke:#181818;stroke-width:0.5;" x1="279" x2="668.4355" y1="49.7031" y2="49.7031"/><line style="stroke:#181818;stroke-width:0.5;" x1="279" x2="668.4355" y1="57.7031" y2="57.7031"/><ellipse cx="289" cy="72.0078" fill="#84BE84" rx="3" ry="3" style="stroke:#038048;stroke-width:1;"/><text fill="#000000" font-family="sans-serif" font-size="14" lengthAdjust="spacing" textLength="241.2334" x="298" y="76.2363">allocate(shape, dtype): RuntimeTensor</text><ellipse cx="289" cy="89.6172" fill="#84BE84" rx="3" ry="3" style="stroke:#038048;stroke-width:1;"/><text fill="#000000" font-family="sans-serif" font-size="14" lengthAdjust="spacing" textLength="365.4355" x="298" y="93.8457">read(tensor): ArrayBufferView | Promise&lt;ArrayBufferView&gt;</text><ellipse cx="289" cy="107.2266" fill="#84BE84" rx="3" ry="3" style="stroke:#038048;stroke-width:1;"/><text fill="#000000" font-family="sans-serif" font-size="14" lengthAdjust="spacing" textLength="146.2822" x="298" y="111.4551">write(tensor, data): void</text><ellipse cx="289" cy="124.8359" fill="#84BE84" rx="3" ry="3" style="stroke:#038048;stroke-width:1;"/><text fill="#000000" font-family="sans-serif" font-size="14" lengthAdjust="spacing" textLength="237.3643" x="298" y="129.0645">execute(node, inputs[], outputs[]): void</text><ellipse cx="289" cy="142.4453" fill="#84BE84" rx="3" ry="3" style="stroke:#038048;stroke-width:1;"/><text fill="#000000" font-family="sans-serif" font-size="14" lengthAdjust="spacing" textLength="129.9512" x="298" y="146.6738">dispose(tensor): void</text></g><!--class RuntimeStorage--><g class="entity" data-entity="RuntimeStorage" data-source-line="10" data-uid="ent0003" id="entity_RuntimeStorage"><rect fill="#F1F1F1" height="93.9219" rx="2.5" ry="2.5" style="stroke:#181818;stroke-width:0.5;" width="360.0586" x="293.5" y="652"/><ellipse cx="418.6968" cy="673.3516" fill="#B4A7E5" rx="11" ry="11" style="stroke:#181818;stroke-width:1;"/><path d="M419.6499,669.9922 L419.6499,676.6484 L421.3687,676.6484 Q421.978,676.6484 422.2437,676.8828 Q422.5093,677.1172 422.5093,677.5078 Q422.5093,677.8828 422.2437,678.1172 Q421.978,678.3516 421.3687,678.3516 L416.228,678.3516 Q415.6187,678.3516 415.353,678.1172 Q415.0874,677.8828 415.0874,677.4922 Q415.0874,677.1172 415.353,676.8828 Q415.6187,676.6484 416.228,676.6484 L417.9468,676.6484 L417.9468,669.9922 L416.228,669.9922 Q415.6187,669.9922 415.353,669.7578 Q415.0874,669.5234 415.0874,669.1328 Q415.0874,668.7578 415.353,668.5234 Q415.6187,668.2891 416.228,668.2891 L421.3687,668.2891 Q421.978,668.2891 422.2437,668.5234 Q422.5093,668.7578 422.5093,669.1328 Q422.5093,669.5234 422.2437,669.7578 Q421.978,669.9922 421.3687,669.9922 L419.6499,669.9922 Z " fill="#000000"/><text fill="#000000" font-family="sans-serif" font-size="12" font-style="italic" lengthAdjust="spacing" textLength="53.3613" x="463.0986" y="669.457">&#171;runtime&#187;</text><text fill="#000000" font-family="sans-serif" font-size="14" font-style="italic" lengthAdjust="spacing" textLength="101.165" x="439.1968" y="686.627">RuntimeStorage</text><line style="stroke:#181818;stroke-width:0.5;" x1="294.5" x2="652.5586" y1="694.7031" y2="694.7031"/><ellipse cx="304.5" cy="709.0078" fill="none" rx="3" ry="3" style="stroke:#038048;stroke-width:1;"/><text fill="#000000" font-family="sans-serif" font-size="14" lengthAdjust="spacing" textLength="334.0586" x="313.5" y="713.2363">buffer: TypedArray | WasmTensorHandle | GPUBuffer</text><ellipse cx="304.5" cy="726.6172" fill="none" rx="3" ry="3" style="stroke:#038048;stroke-width:1;"/><text fill="#000000" font-family="sans-serif" font-size="14" lengthAdjust="spacing" textLength="124.5303" x="313.5" y="730.8457">byteLength: number</text><line style="stroke:#181818;stroke-width:0.5;" x1="294.5" x2="652.5586" y1="737.9219" y2="737.9219"/></g><!--class RuntimeTensor--><g class="entity" data-entity="RuntimeTensor" data-source-line="15" data-uid="ent0004" id="entity_RuntimeTensor"><rect fill="#F1F1F1" height="164.3594" rx="2.5" ry="2.5" style="stroke:#181818;stroke-width:0.5;" width="189.7207" x="378.5" y="428"/><ellipse cx="421.4079" cy="449.3516" fill="#B4A7E5" rx="11" ry="11" style="stroke:#181818;stroke-width:1;"/><path d="M422.361,445.9922 L422.361,452.6484 L424.0798,452.6484 Q424.6892,452.6484 424.9548,452.8828 Q425.2204,453.1172 425.2204,453.5078 Q425.2204,453.8828 424.9548,454.1172 Q424.6892,454.3516 424.0798,454.3516 L418.9392,454.3516 Q418.3298,454.3516 418.0642,454.1172 Q417.7985,453.8828 417.7985,453.4922 Q417.7985,453.1172 418.0642,452.8828 Q418.3298,452.6484 418.9392,452.6484 L420.6579,452.6484 L420.6579,445.9922 L418.9392,445.9922 Q418.3298,445.9922 418.0642,445.7578 Q417.7985,445.5234 417.7985,445.1328 Q417.7985,444.7578 418.0642,444.5234 Q418.3298,444.2891 418.9392,444.2891 L424.0798,444.2891 Q424.6892,444.2891 424.9548,444.5234 Q425.2204,444.7578 425.2204,445.1328 Q425.2204,445.5234 424.9548,445.7578 Q424.6892,445.9922 424.0798,445.9922 L422.361,445.9922 Z " fill="#000000"/><text fill="#000000" font-family="sans-serif" font-size="12" font-style="italic" lengthAdjust="spacing" textLength="53.3613" x="462.7806" y="445.457">&#171;runtime&#187;</text><text fill="#000000" font-family="sans-serif" font-size="14" font-style="italic" lengthAdjust="spacing" textLength="95.7031" x="441.6097" y="462.627">RuntimeTensor</text><line style="stroke:#181818;stroke-width:0.5;" x1="379.5" x2="567.2207" y1="470.7031" y2="470.7031"/><ellipse cx="389.5" cy="485.0078" fill="none" rx="3" ry="3" style="stroke:#038048;stroke-width:1;"/><text fill="#000000" font-family="sans-serif" font-size="14" lengthAdjust="spacing" textLength="155.6406" x="398.5" y="489.2363">storage: RuntimeStorage</text><ellipse cx="389.5" cy="502.6172" fill="none" rx="3" ry="3" style="stroke:#038048;stroke-width:1;"/><text fill="#000000" font-family="sans-serif" font-size="14" lengthAdjust="spacing" textLength="104.2617" x="398.5" y="506.8457">strides: number[]</text><ellipse cx="389.5" cy="520.2266" fill="none" rx="3" ry="3" style="stroke:#038048;stroke-width:1;"/><text fill="#000000" font-family="sans-serif" font-size="14" lengthAdjust="spacing" textLength="89.4893" x="398.5" y="524.4551">offset: number</text><ellipse cx="389.5" cy="537.8359" fill="none" rx="3" ry="3" style="stroke:#038048;stroke-width:1;"/><text fill="#000000" font-family="sans-serif" font-size="14" lengthAdjust="spacing" textLength="163.7207" x="398.5" y="542.0645">dtype: float32 | int32 | bool</text><ellipse cx="389.5" cy="555.4453" fill="none" rx="3" ry="3" style="stroke:#038048;stroke-width:1;"/><text fill="#000000" font-family="sans-serif" font-size="14" lengthAdjust="spacing" textLength="105.8477" x="398.5" y="559.6738">isView?: boolean</text><line style="stroke:#181818;stroke-width:0.5;" x1="379.5" x2="567.2207" y1="566.75" y2="566.75"/><ellipse cx="389.5" cy="581.0547" fill="#84BE84" rx="3" ry="3" style="stroke:#038048;stroke-width:1;"/><text fill="#000000" font-family="sans-serif" font-size="14" lengthAdjust="spacing" textLength="143.7051" x="398.5" y="585.2832">shape: (number | null)[]</text></g><!--class CPUBackend--><g class="entity" data-entity="CPUBackend" data-source-line="24" data-uid="ent0005" id="entity_CPUBackend"><rect fill="#F1F1F1" height="100.8281" rx="2.5" ry="2.5" style="stroke:#181818;stroke-width:0.5;" width="271.123" x="7" y="240.5"/><ellipse cx="96.291" cy="256.5" fill="#ADD1B2" rx="11" ry="11" style="stroke:#181818;stroke-width:1;"/><path d="M99.0566,252.375 Q99.2129,252.1563 99.4004,252.0469 Q99.5879,251.9375 99.8066,251.9375 Q100.1816,251.9375 100.416,252.2031 Q100.6504,252.4531 100.6504,253.0625 L100.6504,254.5156 Q100.6504,255.125 100.416,255.3906 Q100.1816,255.6563 99.8066,255.6563 Q99.4629,255.6563 99.2598,255.4531 Q99.0566,255.2656 98.9473,254.75 Q98.9004,254.3906 98.7129,254.2031 Q98.3848,253.8281 97.7754,253.6094 Q97.166,253.3906 96.541,253.3906 Q95.7754,253.3906 95.1348,253.7188 Q94.5098,254.0469 94.0098,254.7969 Q93.5254,255.5469 93.5254,256.5781 L93.5254,257.6719 Q93.5254,258.9063 94.416,259.7344 Q95.3066,260.5469 96.9004,260.5469 Q97.8379,260.5469 98.4941,260.2969 Q98.8848,260.1406 99.3066,259.7031 Q99.5723,259.4375 99.7129,259.3594 Q99.8691,259.2813 100.0723,259.2813 Q100.4004,259.2813 100.6504,259.5469 Q100.916,259.7969 100.916,260.1406 Q100.916,260.4844 100.5723,260.8906 Q100.0723,261.4688 99.2754,261.7969 Q98.1973,262.25 96.9004,262.25 Q95.3848,262.25 94.1816,261.625 Q93.1973,261.125 92.5098,260.0625 Q91.8223,258.9844 91.8223,257.7031 L91.8223,256.5469 Q91.8223,255.2188 92.4316,254.0781 Q93.0566,252.9219 94.1504,252.3125 Q95.2441,251.6875 96.4785,251.6875 Q97.2129,251.6875 97.8535,251.8594 Q98.5098,252.0156 99.0566,252.375 Z " fill="#000000"/><text fill="#000000" font-family="sans-serif" font-size="14" lengthAdjust="spacing" textLength="84.041" x="116.791" y="262.2285">CPUBackend</text><line style="stroke:#181818;stroke-width:0.5;" x1="8" x2="277.123" y1="272.5" y2="272.5"/><rect fill="none" height="6" style="stroke:#C82930;stroke-width:1;" width="6" x="15" y="283.8047"/><text fill="#000000" font-family="sans-serif" font-size="14" lengthAdjust="spacing" textLength="209.3027" x="27" y="291.0332">registry: Map&lt;string, CPUKernel&gt;</text><line style="stroke:#181818;stroke-width:1;" x1="8" x2="277.123" y1="298.1094" y2="298.1094"/><text fill="#000000" font-family="sans-serif" font-size="14" lengthAdjust="spacing" textLength="220.2197" x="13" y="316.6426">Synchronous. Float32Array buffers.</text><text fill="#000000" font-family="sans-serif" font-size="14" lengthAdjust="spacing" textLength="259.123" x="13" y="334.252">Correctness oracle for all other backends.</text></g><!--class WASMBackend--><g class="entity" data-entity="WASMBackend" data-source-line="31" data-uid="ent0006" id="entity_WASMBackend"><rect fill="#F1F1F1" height="136.0469" rx="2.5" ry="2.5" style="stroke:#181818;stroke-width:0.5;" width="320.123" x="313.5" y="223"/><ellipse cx="420.2944" cy="239" fill="#ADD1B2" rx="11" ry="11" style="stroke:#181818;stroke-width:1;"/><path d="M423.0601,234.875 Q423.2163,234.6563 423.4038,234.5469 Q423.5913,234.4375 423.8101,234.4375 Q424.1851,234.4375 424.4194,234.7031 Q424.6538,234.9531 424.6538,235.5625 L424.6538,237.0156 Q424.6538,237.625 424.4194,237.8906 Q424.1851,238.1563 423.8101,238.1563 Q423.4663,238.1563 423.2632,237.9531 Q423.0601,237.7656 422.9507,237.25 Q422.9038,236.8906 422.7163,236.7031 Q422.3882,236.3281 421.7788,236.1094 Q421.1694,235.8906 420.5444,235.8906 Q419.7788,235.8906 419.1382,236.2188 Q418.5132,236.5469 418.0132,237.2969 Q417.5288,238.0469 417.5288,239.0781 L417.5288,240.1719 Q417.5288,241.4063 418.4194,242.2344 Q419.3101,243.0469 420.9038,243.0469 Q421.8413,243.0469 422.4976,242.7969 Q422.8882,242.6406 423.3101,242.2031 Q423.5757,241.9375 423.7163,241.8594 Q423.8726,241.7813 424.0757,241.7813 Q424.4038,241.7813 424.6538,242.0469 Q424.9194,242.2969 424.9194,242.6406 Q424.9194,242.9844 424.5757,243.3906 Q424.0757,243.9688 423.2788,244.2969 Q422.2007,244.75 420.9038,244.75 Q419.3882,244.75 418.1851,244.125 Q417.2007,243.625 416.5132,242.5625 Q415.8257,241.4844 415.8257,240.2031 L415.8257,239.0469 Q415.8257,237.7188 416.4351,236.5781 Q417.0601,235.4219 418.1538,234.8125 Q419.2476,234.1875 420.4819,234.1875 Q421.2163,234.1875 421.8569,234.3594 Q422.5132,234.5156 423.0601,234.875 Z " fill="#000000"/><text fill="#000000" font-family="sans-serif" font-size="14" lengthAdjust="spacing" textLength="98.0342" x="440.7944" y="244.7285">WASMBackend</text><line style="stroke:#181818;stroke-width:0.5;" x1="314.5" x2="632.623" y1="255" y2="255"/><rect fill="none" height="6" style="stroke:#C82930;stroke-width:1;" width="6" x="321.5" y="266.3047"/><text fill="#000000" font-family="sans-serif" font-size="14" lengthAdjust="spacing" textLength="203.8545" x="333.5" y="273.5332">module: MinitensorWasmModule</text><rect fill="none" height="6" style="stroke:#C82930;stroke-width:1;" width="6" x="321.5" y="283.9141"/><text fill="#000000" font-family="sans-serif" font-size="14" lengthAdjust="spacing" textLength="223.2959" x="333.5" y="291.1426">registry: Map&lt;string, WASMKernel&gt;</text><line style="stroke:#181818;stroke-width:1;" x1="314.5" x2="632.623" y1="298.2188" y2="298.2188"/><text fill="#000000" font-family="sans-serif" font-size="14" lengthAdjust="spacing" textLength="308.123" x="319.5" y="316.752">Tensor memory in WASM heap (pointer handles).</text><text fill="#000000" font-family="sans-serif" font-size="14" lengthAdjust="spacing" textLength="198.4199" x="319.5" y="334.3613">Rust kernels via wasm-bindgen.</text><text fill="#000000" font-family="sans-serif" font-size="14" lengthAdjust="spacing" textLength="253.668" x="319.5" y="351.9707">Avoids JS/WASM boundary per element.</text></g><!--class WebGPUBackend--><g class="entity" data-entity="WebGPUBackend" data-source-line="40" data-uid="ent0007" id="entity_WebGPUBackend"><rect fill="#F1F1F1" height="153.6563" rx="2.5" ry="2.5" style="stroke:#181818;stroke-width:0.5;" width="345.0674" x="669" y="214"/><ellipse cx="780.4805" cy="230" fill="#ADD1B2" rx="11" ry="11" style="stroke:#181818;stroke-width:1;"/><path d="M783.2461,225.875 Q783.4023,225.6563 783.5898,225.5469 Q783.7773,225.4375 783.9961,225.4375 Q784.3711,225.4375 784.6055,225.7031 Q784.8398,225.9531 784.8398,226.5625 L784.8398,228.0156 Q784.8398,228.625 784.6055,228.8906 Q784.3711,229.1563 783.9961,229.1563 Q783.6523,229.1563 783.4492,228.9531 Q783.2461,228.7656 783.1367,228.25 Q783.0898,227.8906 782.9023,227.7031 Q782.5742,227.3281 781.9648,227.1094 Q781.3555,226.8906 780.7305,226.8906 Q779.9648,226.8906 779.3242,227.2188 Q778.6992,227.5469 778.1992,228.2969 Q777.7148,229.0469 777.7148,230.0781 L777.7148,231.1719 Q777.7148,232.4063 778.6055,233.2344 Q779.4961,234.0469 781.0898,234.0469 Q782.0273,234.0469 782.6836,233.7969 Q783.0742,233.6406 783.4961,233.2031 Q783.7617,232.9375 783.9023,232.8594 Q784.0586,232.7813 784.2617,232.7813 Q784.5898,232.7813 784.8398,233.0469 Q785.1055,233.2969 785.1055,233.6406 Q785.1055,233.9844 784.7617,234.3906 Q784.2617,234.9688 783.4648,235.2969 Q782.3867,235.75 781.0898,235.75 Q779.5742,235.75 778.3711,235.125 Q777.3867,234.625 776.6992,233.5625 Q776.0117,232.4844 776.0117,231.2031 L776.0117,230.0469 Q776.0117,228.7188 776.6211,227.5781 Q777.2461,226.4219 778.3398,225.8125 Q779.4336,225.1875 780.668,225.1875 Q781.4023,225.1875 782.043,225.3594 Q782.6992,225.5156 783.2461,225.875 Z " fill="#000000"/><text fill="#000000" font-family="sans-serif" font-size="14" lengthAdjust="spacing" textLength="113.6064" x="800.9805" y="235.7285">WebGPUBackend</text><line style="stroke:#181818;stroke-width:0.5;" x1="670" x2="1013.0674" y1="246" y2="246"/><rect fill="none" height="6" style="stroke:#C82930;stroke-width:1;" width="6" x="677" y="257.3047"/><text fill="#000000" font-family="sans-serif" font-size="14" lengthAdjust="spacing" textLength="121.3789" x="689" y="264.5332">device: GPUDevice</text><rect fill="none" height="6" style="stroke:#C82930;stroke-width:1;" width="6" x="677" y="274.9141"/><text fill="#000000" font-family="sans-serif" font-size="14" lengthAdjust="spacing" textLength="238.8682" x="689" y="282.1426">registry: Map&lt;string, WebGPUKernel&gt;</text><rect fill="none" height="6" style="stroke:#C82930;stroke-width:1;" width="6" x="677" y="292.5234"/><text fill="#000000" font-family="sans-serif" font-size="14" lengthAdjust="spacing" textLength="319.0674" x="689" y="299.752">pipelineCache: Map&lt;string, GPUComputePipeline&gt;</text><line style="stroke:#181818;stroke-width:1;" x1="670" x2="1013.0674" y1="306.8281" y2="306.8281"/><text fill="#000000" font-family="sans-serif" font-size="14" lengthAdjust="spacing" textLength="195.2754" x="675" y="325.3613">Tensor memory in GPUBuffers.</text><text fill="#000000" font-family="sans-serif" font-size="14" lengthAdjust="spacing" textLength="278.5576" x="675" y="342.9707">WGSL compute shaders with strided access.</text><text fill="#000000" font-family="sans-serif" font-size="14" lengthAdjust="spacing" textLength="200.7305" x="675" y="360.5801">read() is async (GPU readback).</text></g><!--reverse link RuntimeTensor to RuntimeStorage--><g class="link" data-entity-1="RuntimeTensor" data-entity-2="RuntimeStorage" data-source-line="50" data-uid="lnk8" id="link_RuntimeTensor_RuntimeStorage"><path codeLine="50" d="M473.5,604.21 C473.5,624.61 473.5,633.81 473.5,651.82" fill="none" id="RuntimeTensor-backto-RuntimeStorage" style="stroke:#181818;stroke-width:1;"/><polygon fill="#181818" points="473.5,592.21,469.5,598.21,473.5,604.21,477.5,598.21,473.5,592.21" style="stroke:#181818;stroke-width:1;"/></g><!--reverse link Backend to CPUBackend--><g class="link" data-entity-1="Backend" data-entity-2="CPUBackend" data-source-line="52" data-uid="lnk9" id="link_Backend_CPUBackend"><path codeLine="52" d="M342.9692,163.7229 C297.7192,192.2229 262.18,214.61 221.26,240.39" fill="none" id="Backend-backto-CPUBackend" style="stroke:#181818;stroke-width:1;stroke-dasharray:7.0,7.0;"/><polygon fill="none" points="358.2,154.13,339.7716,158.6459,346.1668,168.7998,358.2,154.13" style="stroke:#181818;stroke-width:1;"/></g><!--reverse link Backend to WASMBackend--><g class="link" data-entity-1="Backend" data-entity-2="WASMBackend" data-source-line="53" data-uid="lnk10" id="link_Backend_WASMBackend"><path codeLine="53" d="M473.5,172.13 C473.5,194.46 473.5,200.93 473.5,222.87" fill="none" id="Backend-backto-WASMBackend" style="stroke:#181818;stroke-width:1;stroke-dasharray:7.0,7.0;"/><polygon fill="none" points="473.5,154.13,467.5,172.13,479.5,172.13,473.5,154.13" style="stroke:#181818;stroke-width:1;"/></g><!--reverse link Backend to WebGPUBackend--><g class="link" data-entity-1="Backend" data-entity-2="WebGPUBackend" data-source-line="54" data-uid="lnk11" id="link_Backend_WebGPUBackend"><path codeLine="54" d="M617.3513,163.0026 C651.4713,182.3326 672.76,194.4 707.2,213.91" fill="none" id="Backend-backto-WebGPUBackend" style="stroke:#181818;stroke-width:1;stroke-dasharray:7.0,7.0;"/><polygon fill="none" points="601.69,154.13,614.3938,168.223,620.3089,157.7822,601.69,154.13" style="stroke:#181818;stroke-width:1;"/></g><!--link CPUBackend to RuntimeTensor--><g class="link" data-entity-1="CPUBackend" data-entity-2="RuntimeTensor" data-source-line="55" data-uid="lnk12" id="link_CPUBackend_RuntimeTensor"><path codeLine="55" d="M218.02,341.51 C265.63,372.72 322.4819,410.0008 373.4219,443.3908" fill="none" id="CPUBackend-to-RuntimeTensor" style="stroke:#181818;stroke-width:1;stroke-dasharray:7.0,7.0;"/><polygon fill="#181818" points="378.44,446.68,373.1057,438.4008,374.2583,443.939,368.7201,445.0915,378.44,446.68" style="stroke:#181818;stroke-width:1;"/></g><!--link WASMBackend to RuntimeTensor--><g class="link" data-entity-1="WASMBackend" data-entity-2="RuntimeTensor" data-source-line="56" data-uid="lnk13" id="link_WASMBackend_RuntimeTensor"><path codeLine="56" d="M473.5,359.17 C473.5,380.83 473.5,399.07 473.5,421.64" fill="none" id="WASMBackend-to-RuntimeTensor" style="stroke:#181818;stroke-width:1;stroke-dasharray:7.0,7.0;"/><polygon fill="#181818" points="473.5,427.64,477.5,418.64,473.5,422.64,469.5,418.64,473.5,427.64" style="stroke:#181818;stroke-width:1;"/></g><!--link WebGPUBackend to RuntimeTensor--><g class="link" data-entity-1="WebGPUBackend" data-entity-2="RuntimeTensor" data-source-line="57" data-uid="lnk14" id="link_WebGPUBackend_RuntimeTensor"><path codeLine="57" d="M712.53,368.05 C665.19,395.96 617.6684,423.9925 573.8284,449.8425" fill="none" id="WebGPUBackend-to-RuntimeTensor" style="stroke:#181818;stroke-width:1;stroke-dasharray:7.0,7.0;"/><polygon fill="#181818" points="568.66,452.89,578.4443,451.7643,572.967,450.3504,574.3809,444.8731,568.66,452.89" style="stroke:#181818;stroke-width:1;"/></g><!--SRC=[VLJ1Zjem4Btp5NE4bgHIUuiG5KjLgdQHqB9R3gizEFQ4M9lOaUr0KRV_th6Tqf3IlK0oyppptinpf79e2iOHRXX_HYLWDZEjShB6-Hn-ZW3U0gigpPd3iIrPWrCGxjJW98ExYBj7PRK9I8DCZ5ruf_p267QwQOi2pNU9HtY1ZT6rj3WRPERXyD58wX5FKnFc6DKuQ2b25dyWRoclj20AKZMjiuzFKz2jYuzzi92sqHR_KWcPNwEHFCljo6-TDcoFLrJdWLu6zoHM1C8aOCTi7VL-OKfKIA7LvY4gYQTE3czHxLsPWMhhdCBNsiOQLxhQo2SRy8ivF_uCnh4kjLPjLKqUdxg3HWgqVxfsKLqK5jsPIfYDtru6HQMP-_2UgX2vy9zhNGM4j7uf7xCGGQQy0bunQs59MZkRUBe9BNmlgVCfWpLhPfw3sayzx1iQXPLVR9BGp_QaU6cqqgrDuNDi7MSQnsnJ0YsrCSYTGkf4gZcDjw0XaVr0kv8Kvx4tWS-CTelj-f9IhKLRaS2rL3Bktozj7QAlSFQ51gIx9TLOQtEYCGKCbCWQ63Swx1JAO0CxyVplMklWETImS90CZjGuoQKIUrGUiF0sjF1r-ovKodMh1AFI3HN22cjKhYyDyzLmtW8FafCuIdmAZwyf2kTxcg2H3LPIuPBn4Y_1X5pgccuIRZhG_yTmTdpOscwrlGKUptgB2eh3KRgoiwG0nZcjr6F3zs521WDcoH4mfb8Xw3Sx2TelByYR91dUXD7vG_MIfZr7NiPxlXWa-bCTzGoTflF15wtlhIlPY_Nyc_yD]--></g></svg>