<svg xmlns="http://www.w3.org/2000/svg" xmlns:xlink="http://www.w3.org/1999/xlink" contentStyleType="text/css" data-diagram-type="CLASS" height="528px" preserveAspectRatio="none" style="width:1012px;height:528px;background:#FFFFFF;" version="1.1" viewBox="0 0 1012 528" width="1012px" zoomAndPan="magnify"><defs/><g><!--class Backend--><g class="entity" data-entity="Backend" data-source-line="2" data-uid="ent0002" id="entity_Backend"><rect fill="#F1F1F1" height="146.75" rx="2.5" ry="2.5" style="stroke:#181818;stroke-width:0.5;" width="391.4355" x="294" y="7"/><ellipse cx="458.2266" cy="28.3516" fill="#B4A7E5" rx="11" ry="11" style="stroke:#181818;stroke-width:1;"/><path d="M459.1797,24.9922 L459.1797,31.6484 L460.8984,31.6484 Q461.5078,31.6484 461.7734,31.8828 Q462.0391,32.1172 462.0391,32.5078 Q462.0391,32.8828 461.7734,33.1172 Q461.5078,33.3516 460.8984,33.3516 L455.7578,33.3516 Q455.1484,33.3516 454.8828,33.1172 Q454.6172,32.8828 454.6172,32.4922 Q454.6172,32.1172 454.8828,31.8828 Q455.1484,31.6484 455.7578,31.6484 L457.4766,31.6484 L457.4766,24.9922 L455.7578,24.9922 Q455.1484,24.9922 454.8828,24.7578 Q454.6172,24.5234 454.6172,24.1328 Q454.6172,23.7578 454.8828,23.5234 Q455.1484,23.2891 455.7578,23.2891 L460.8984,23.2891 Q461.5078,23.2891 461.7734,23.5234 Q462.0391,23.7578 462.0391,24.1328 Q462.0391,24.5234 461.7734,24.7578 Q461.5078,24.9922 460.8984,24.9922 L459.1797,24.9922 Z " fill="#000000"/><text fill="#000000" font-family="sans-serif" font-size="12" font-style="italic" lengthAdjust="spacing" textLength="53.3613" x="479.2871" y="24.457">&#171;runtime&#187;</text><text fill="#000000" font-family="sans-serif" font-size="14" font-style="italic" lengthAdjust="spacing" textLength="54.4824" x="478.7266" y="41.627">Backend</text><line style="stroke:#181818;stroke-width:0.5;" x1="295" x2="684.4355" y1="49.7031" y2="49.7031"/><line style="stroke:#181818;stroke-width:0.5;" x1="295" x2="684.4355" y1="57.7031" y2="57.7031"/><ellipse cx="305" cy="72.0078" fill="#84BE84" rx="3" ry="3" style="stroke:#038048;stroke-width:1;"/><text fill="#000000" font-family="sans-serif" font-size="14" lengthAdjust="spacing" textLength="241.2334" x="314" y="76.2363">allocate(shape, dtype): RuntimeTensor</text><ellipse cx="305" cy="89.6172" fill="#84BE84" rx="3" ry="3" style="stroke:#038048;stroke-width:1;"/><text fill="#000000" font-family="sans-serif" font-size="14" lengthAdjust="spacing" textLength="365.4355" x="314" y="93.8457">read(tensor): ArrayBufferView | Promise&lt;ArrayBufferView&gt;</text><ellipse cx="305" cy="107.2266" fill="#84BE84" rx="3" ry="3" style="stroke:#038048;stroke-width:1;"/><text fill="#000000" font-family="sans-serif" font-size="14" lengthAdjust="spacing" textLength="146.2822" x="314" y="111.4551">write(tensor, data): void</text><ellipse cx="305" cy="124.8359" fill="#84BE84" rx="3" ry="3" style="stroke:#038048;stroke-width:1;"/><text fill="#000000" font-family="sans-serif" font-size="14" lengthAdjust="spacing" textLength="237.3643" x="314" y="129.0645">execute(node, inputs[], outputs[]): void</text><ellipse cx="305" cy="142.4453" fill="#84BE84" rx="3" ry="3" style="stroke:#038048;stroke-width:1;"/><text fill="#000000" font-family="sans-serif" font-size="14" lengthAdjust="spacing" textLength="129.9512" x="314" y="146.6738">dispose(tensor): void</text></g><!--class CPUBackend--><g class="entity" data-entity="CPUBackend" data-source-line="10" data-uid="ent0003" id="entity_CPUBackend"><rect fill="#F1F1F1" height="100.8281" rx="2.5" ry="2.5" style="stroke:#181818;stroke-width:0.5;" width="286.6953" x="7" y="231.5"/><ellipse cx="104.0771" cy="247.5" fill="#ADD1B2" rx="11" ry="11" style="stroke:#181818;stroke-width:1;"/><path d="M106.8428,243.375 Q106.999,243.1563 107.1865,243.0469 Q107.374,242.9375 107.5928,242.9375 Q107.9678,242.9375 108.2021,243.2031 Q108.4365,243.4531 108.4365,244.0625 L108.4365,245.5156 Q108.4365,246.125 108.2021,246.3906 Q107.9678,246.6563 107.5928,246.6563 Q107.249,246.6563 107.0459,246.4531 Q106.8428,246.2656 106.7334,245.75 Q106.6865,245.3906 106.499,245.2031 Q106.1709,244.8281 105.5615,244.6094 Q104.9521,244.3906 104.3271,244.3906 Q103.5615,244.3906 102.9209,244.7188 Q102.2959,245.0469 101.7959,245.7969 Q101.3115,246.5469 101.3115,247.5781 L101.3115,248.6719 Q101.3115,249.9063 102.2021,250.7344 Q103.0928,251.5469 104.6865,251.5469 Q105.624,251.5469 106.2803,251.2969 Q106.6709,251.1406 107.0928,250.7031 Q107.3584,250.4375 107.499,250.3594 Q107.6553,250.2813 107.8584,250.2813 Q108.1865,250.2813 108.4365,250.5469 Q108.7021,250.7969 108.7021,251.1406 Q108.7021,251.4844 108.3584,251.8906 Q107.8584,252.4688 107.0615,252.7969 Q105.9834,253.25 104.6865,253.25 Q103.1709,253.25 101.9678,252.625 Q100.9834,252.125 100.2959,251.0625 Q99.6084,249.9844 99.6084,248.7031 L99.6084,247.5469 Q99.6084,246.2188 100.2178,245.0781 Q100.8428,243.9219 101.9365,243.3125 Q103.0303,242.6875 104.2646,242.6875 Q104.999,242.6875 105.6396,242.8594 Q106.2959,243.0156 106.8428,243.375 Z " fill="#000000"/><text fill="#000000" font-family="sans-serif" font-size="14" lengthAdjust="spacing" textLength="84.041" x="124.5771" y="253.2285">CPUBackend</text><line style="stroke:#181818;stroke-width:0.5;" x1="8" x2="292.6953" y1="263.5" y2="263.5"/><rect fill="none" height="6" style="stroke:#C82930;stroke-width:1;" width="6" x="15" y="274.8047"/><text fill="#000000" font-family="sans-serif" font-size="14" lengthAdjust="spacing" textLength="209.3027" x="27" y="282.0332">registry: Map&lt;string, CPUKernel&gt;</text><line style="stroke:#181818;stroke-width:1;" x1="8" x2="292.6953" y1="289.1094" y2="289.1094"/><text fill="#000000" font-family="sans-serif" font-size="14" lengthAdjust="spacing" textLength="274.6953" x="13" y="307.6426">Synchronous. TypedArray buffers per dtype.</text><text fill="#000000" font-family="sans-serif" font-size="14" lengthAdjust="spacing" textLength="259.123" x="13" y="325.252">Correctness oracle for all other backends.</text></g><!--class WASMBackend--><g class="entity" data-entity="WASMBackend" data-source-line="17" data-uid="ent0004" id="entity_WASMBackend"><rect fill="#F1F1F1" height="136.0469" rx="2.5" ry="2.5" style="stroke:#181818;stroke-width:0.5;" width="320.123" x="329.5" y="214"/><ellipse cx="436.2944" cy="230" fill="#ADD1B2" rx="11" ry="11" style="stroke:#181818;stroke-width:1;"/><path d="M439.0601,225.875 Q439.2163,225.6563 439.4038,225.5469 Q439.5913,225.4375 439.8101,225.4375 Q440.1851,225.4375 440.4194,225.7031 Q440.6538,225.9531 440.6538,226.5625 L440.6538,228.0156 Q440.6538,228.625 440.4194,228.8906 Q440.1851,229.1563 439.8101,229.1563 Q439.4663,229.1563 439.2632,228.9531 Q439.0601,228.7656 438.9507,228.25 Q438.9038,227.8906 438.7163,227.7031 Q438.3882,227.3281 437.7788,227.1094 Q437.1694,226.8906 436.5444,226.8906 Q435.7788,226.8906 435.1382,227.2188 Q434.5132,227.5469 434.0132,228.2969 Q433.5288,229.0469 433.5288,230.0781 L433.5288,231.1719 Q433.5288,232.4063 434.4194,233.2344 Q435.3101,234.0469 436.9038,234.0469 Q437.8413,234.0469 438.4976,233.7969 Q438.8882,233.6406 439.3101,233.2031 Q439.5757,232.9375 439.7163,232.8594 Q439.8726,232.7813 440.0757,232.7813 Q440.4038,232.7813 440.6538,233.0469 Q440.9194,233.2969 440.9194,233.6406 Q440.9194,233.9844 440.5757,234.3906 Q440.0757,234.9688 439.2788,235.2969 Q438.2007,235.75 436.9038,235.75 Q435.3882,235.75 434.1851,235.125 Q433.2007,234.625 432.5132,233.5625 Q431.8257,232.4844 431.8257,231.2031 L431.8257,230.0469 Q431.8257,228.7188 432.4351,227.5781 Q433.0601,226.4219 434.1538,225.8125 Q435.2476,225.1875 436.4819,225.1875 Q437.2163,225.1875 437.8569,225.3594 Q438.5132,225.5156 439.0601,225.875 Z " fill="#000000"/><text fill="#000000" font-family="sans-serif" font-size="14" lengthAdjust="spacing" textLength="98.0342" x="456.7944" y="235.7285">WASMBackend</text><line style="stroke:#181818;stroke-width:0.5;" x1="330.5" x2="648.623" y1="246" y2="246"/><rect fill="none" height="6" style="stroke:#C82930;stroke-width:1;" width="6" x="337.5" y="257.3047"/><text fill="#000000" font-family="sans-serif" font-size="14" lengthAdjust="spacing" textLength="203.8545" x="349.5" y="264.5332">module: MinitensorWasmModule</text><rect fill="none" height="6" style="stroke:#C82930;stroke-width:1;" width="6" x="337.5" y="274.9141"/><text fill="#000000" font-family="sans-serif" font-size="14" lengthAdjust="spacing" textLength="223.2959" x="349.5" y="282.1426">registry: Map&lt;string, WASMKernel&gt;</text><line style="stroke:#181818;stroke-width:1;" x1="330.5" x2="648.623" y1="289.2188" y2="289.2188"/><text fill="#000000" font-family="sans-serif" font-size="14" lengthAdjust="spacing" textLength="308.123" x="335.5" y="307.752">Tensor memory in WASM heap (pointer handles).</text><text fill="#000000" font-family="sans-serif" font-size="14" lengthAdjust="spacing" textLength="198.4199" x="335.5" y="325.3613">Rust kernels via wasm-bindgen.</text><text fill="#000000" font-family="sans-serif" font-size="14" lengthAdjust="spacing" textLength="253.668" x="335.5" y="342.9707">Avoids JS/WASM boundary per element.</text></g><!--class WebGPUBackend--><g class="entity" data-entity="WebGPUBackend" data-source-line="26" data-uid="ent0005" id="entity_WebGPUBackend"><rect fill="#F1F1F1" height="136.0469" rx="2.5" ry="2.5" style="stroke:#181818;stroke-width:0.5;" width="320.8887" x="685" y="214"/><ellipse cx="784.3911" cy="230" fill="#ADD1B2" rx="11" ry="11" style="stroke:#181818;stroke-width:1;"/><path d="M787.1567,225.875 Q787.313,225.6563 787.5005,225.5469 Q787.688,225.4375 787.9067,225.4375 Q788.2817,225.4375 788.5161,225.7031 Q788.7505,225.9531 788.7505,226.5625 L788.7505,228.0156 Q788.7505,228.625 788.5161,228.8906 Q788.2817,229.1563 787.9067,229.1563 Q787.563,229.1563 787.3599,228.9531 Q787.1567,228.7656 787.0474,228.25 Q787.0005,227.8906 786.813,227.7031 Q786.4849,227.3281 785.8755,227.1094 Q785.2661,226.8906 784.6411,226.8906 Q783.8755,226.8906 783.2349,227.2188 Q782.6099,227.5469 782.1099,228.2969 Q781.6255,229.0469 781.6255,230.0781 L781.6255,231.1719 Q781.6255,232.4063 782.5161,233.2344 Q783.4067,234.0469 785.0005,234.0469 Q785.938,234.0469 786.5942,233.7969 Q786.9849,233.6406 787.4067,233.2031 Q787.6724,232.9375 787.813,232.8594 Q787.9692,232.7813 788.1724,232.7813 Q788.5005,232.7813 788.7505,233.0469 Q789.0161,233.2969 789.0161,233.6406 Q789.0161,233.9844 788.6724,234.3906 Q788.1724,234.9688 787.3755,235.2969 Q786.2974,235.75 785.0005,235.75 Q783.4849,235.75 782.2817,235.125 Q781.2974,234.625 780.6099,233.5625 Q779.9224,232.4844 779.9224,231.2031 L779.9224,230.0469 Q779.9224,228.7188 780.5317,227.5781 Q781.1567,226.4219 782.2505,225.8125 Q783.3442,225.1875 784.5786,225.1875 Q785.313,225.1875 785.9536,225.3594 Q786.6099,225.5156 787.1567,225.875 Z " fill="#000000"/><text fill="#000000" font-family="sans-serif" font-size="14" lengthAdjust="spacing" textLength="113.6064" x="804.8911" y="235.7285">WebGPUBackend</text><line style="stroke:#181818;stroke-width:0.5;" x1="686" x2="1004.8887" y1="246" y2="246"/><rect fill="none" height="6" style="stroke:#C82930;stroke-width:1;" width="6" x="693" y="257.3047"/><text fill="#000000" font-family="sans-serif" font-size="14" lengthAdjust="spacing" textLength="121.3789" x="705" y="264.5332">device: GPUDevice</text><rect fill="none" height="6" style="stroke:#C82930;stroke-width:1;" width="6" x="693" y="274.9141"/><text fill="#000000" font-family="sans-serif" font-size="14" lengthAdjust="spacing" textLength="294.8887" x="705" y="282.1426">registry: Map&lt;string, WebGPUPipelineFactory&gt;</text><line style="stroke:#181818;stroke-width:1;" x1="686" x2="1004.8887" y1="289.2188" y2="289.2188"/><text fill="#000000" font-family="sans-serif" font-size="14" lengthAdjust="spacing" textLength="195.2754" x="691" y="307.752">Tensor memory in GPUBuffers.</text><text fill="#000000" font-family="sans-serif" font-size="14" lengthAdjust="spacing" textLength="156.3994" x="691" y="325.3613">WGSL compute shaders.</text><text fill="#000000" font-family="sans-serif" font-size="14" lengthAdjust="spacing" textLength="200.7305" x="691" y="342.9707">read() is async (GPU readback).</text></g><!--class RuntimeTensor--><g class="entity" data-entity="RuntimeTensor" data-source-line="35" data-uid="ent0006" id="entity_RuntimeTensor"><rect fill="#F1F1F1" height="111.5313" rx="2.5" ry="2.5" style="stroke:#181818;stroke-width:0.5;" width="318.9336" x="330" y="410"/><ellipse cx="437.3652" cy="431.3516" fill="#B4A7E5" rx="11" ry="11" style="stroke:#181818;stroke-width:1;"/><path d="M438.3184,427.9922 L438.3184,434.6484 L440.0371,434.6484 Q440.6465,434.6484 440.9121,434.8828 Q441.1777,435.1172 441.1777,435.5078 Q441.1777,435.8828 440.9121,436.1172 Q440.6465,436.3516 440.0371,436.3516 L434.8965,436.3516 Q434.2871,436.3516 434.0215,436.1172 Q433.7559,435.8828 433.7559,435.4922 Q433.7559,435.1172 434.0215,434.8828 Q434.2871,434.6484 434.8965,434.6484 L436.6152,434.6484 L436.6152,427.9922 L434.8965,427.9922 Q434.2871,427.9922 434.0215,427.7578 Q433.7559,427.5234 433.7559,427.1328 Q433.7559,426.7578 434.0215,426.5234 Q434.2871,426.2891 434.8965,426.2891 L440.0371,426.2891 Q440.6465,426.2891 440.9121,426.5234 Q441.1777,426.7578 441.1777,427.1328 Q441.1777,427.5234 440.9121,427.7578 Q440.6465,427.9922 440.0371,427.9922 L438.3184,427.9922 Z " fill="#000000"/><text fill="#000000" font-family="sans-serif" font-size="12" font-style="italic" lengthAdjust="spacing" textLength="53.3613" x="479.0361" y="427.457">&#171;runtime&#187;</text><text fill="#000000" font-family="sans-serif" font-size="14" font-style="italic" lengthAdjust="spacing" textLength="95.7031" x="457.8652" y="444.627">RuntimeTensor</text><line style="stroke:#181818;stroke-width:0.5;" x1="331" x2="647.9336" y1="452.7031" y2="452.7031"/><ellipse cx="341" cy="467.0078" fill="none" rx="3" ry="3" style="stroke:#038048;stroke-width:1;"/><text fill="#000000" font-family="sans-serif" font-size="14" lengthAdjust="spacing" textLength="292.9336" x="350" y="471.2363">dtype: float32 | float16 | int32 | int64 | int8 | bool</text><ellipse cx="341" cy="484.6172" fill="none" rx="3" ry="3" style="stroke:#038048;stroke-width:1;"/><text fill="#000000" font-family="sans-serif" font-size="14" lengthAdjust="spacing" textLength="290.4863" x="350" y="488.8457">buffer: TypedArray | WasmHandle | GPUBuffer</text><line style="stroke:#181818;stroke-width:0.5;" x1="331" x2="647.9336" y1="495.9219" y2="495.9219"/><ellipse cx="341" cy="510.2266" fill="#84BE84" rx="3" ry="3" style="stroke:#038048;stroke-width:1;"/><text fill="#000000" font-family="sans-serif" font-size="14" lengthAdjust="spacing" textLength="143.7051" x="350" y="514.4551">shape: (number | null)[]</text></g><!--reverse link Backend to CPUBackend--><g class="link" data-entity-1="Backend" data-entity-2="CPUBackend" data-source-line="41" data-uid="lnk7" id="link_Backend_CPUBackend"><path codeLine="41" d="M350.6376,163.2204 C307.0076,188.9004 274.46,208.05 234.81,231.38" fill="none" id="Backend-backto-CPUBackend" style="stroke:#181818;stroke-width:1;stroke-dasharray:7.0,7.0;"/><polygon fill="none" points="366.15,154.09,347.5941,158.0496,353.681,168.3912,366.15,154.09" style="stroke:#181818;stroke-width:1;"/></g><!--reverse link Backend to WASMBackend--><g class="link" data-entity-1="Backend" data-entity-2="WASMBackend" data-source-line="42" data-uid="lnk8" id="link_Backend_WASMBackend"><path codeLine="42" d="M489.5,172.09 C489.5,191.59 489.5,194.58 489.5,213.77" fill="none" id="Backend-backto-WASMBackend" style="stroke:#181818;stroke-width:1;stroke-dasharray:7.0,7.0;"/><polygon fill="none" points="489.5,154.09,483.5,172.09,495.5,172.09,489.5,154.09" style="stroke:#181818;stroke-width:1;"/></g><!--reverse link Backend to WebGPUBackend--><g class="link" data-entity-1="Backend" data-entity-2="WebGPUBackend" data-source-line="43" data-uid="lnk9" id="link_Backend_WebGPUBackend"><path codeLine="43" d="M634.7329,162.8888 C669.6229,182.4388 691.5,194.7 725.83,213.94" fill="none" id="Backend-backto-WebGPUBackend" style="stroke:#181818;stroke-width:1;stroke-dasharray:7.0,7.0;"/><polygon fill="none" points="619.03,154.09,631.7999,168.1231,637.6658,157.6545,619.03,154.09" style="stroke:#181818;stroke-width:1;"/></g><!--link CPUBackend to RuntimeTensor--><g class="link" data-entity-1="CPUBackend" data-entity-2="RuntimeTensor" data-source-line="44" data-uid="lnk10" id="link_CPUBackend_RuntimeTensor"><path codeLine="44" d="M243.13,332.73 C287.63,356.62 335.8134,382.4925 381.5534,407.0425" fill="none" id="CPUBackend-to-RuntimeTensor" style="stroke:#181818;stroke-width:1;stroke-dasharray:7.0,7.0;"/><polygon fill="#181818" points="386.84,409.88,380.8017,402.0993,382.4345,407.5154,377.0184,409.1482,386.84,409.88" style="stroke:#181818;stroke-width:1;"/></g><!--link WASMBackend to RuntimeTensor--><g class="link" data-entity-1="WASMBackend" data-entity-2="RuntimeTensor" data-source-line="45" data-uid="lnk11" id="link_WASMBackend_RuntimeTensor"><path codeLine="45" d="M489.5,350.25 C489.5,369.9 489.5,385.13 489.5,403.93" fill="none" id="WASMBackend-to-RuntimeTensor" style="stroke:#181818;stroke-width:1;stroke-dasharray:7.0,7.0;"/><polygon fill="#181818" points="489.5,409.93,493.5,400.93,489.5,404.93,485.5,400.93,489.5,409.93" style="stroke:#181818;stroke-width:1;"/></g><!--link WebGPUBackend to RuntimeTensor--><g class="link" data-entity-1="WebGPUBackend" data-entity-2="RuntimeTensor" data-source-line="46" data-uid="lnk12" id="link_WebGPUBackend_RuntimeTensor"><path codeLine="46" d="M714.2,350.12 C675.66,369.83 639.3126,388.4093 602.4326,407.2593" fill="none" id="WebGPUBackend-to-RuntimeTensor" style="stroke:#181818;stroke-width:1;stroke-dasharray:7.0,7.0;"/><polygon fill="#181818" points="597.09,409.99,606.9244,409.4557,601.5422,407.7144,603.2834,402.3322,597.09,409.99" style="stroke:#181818;stroke-width:1;"/></g><!--SRC=[VLFRRXen47tdA-PnKM6hNXHL226HL4tL5Wc5j3n4UV3Q0sl5QwzyWQAIV-_ORicoJVEozdfkvyoSaTgZtJ2ESCdu0se1qwaDsii6PpFuDG1u1Kmfmvd7mjMinH48VsXnE86Rx7UBsXcRF2qoKVZqJ_QvjUnm6JORj3yaxk48IsiQwN3QiynIyDvAgf6ZgGZpZ7BiZ1J9YZ-H1x9h8mY2r6tmxkv-12RuVEqw2-bQu_09Ih8y3WPSCUVWQldzBzl8S4oujz9vUvZ0WhLJkacz7KMthsWrgeXlFARFwg1vROqsmPLmIrqGYGbKYOg35ctkJadELyPQv5uZLJIMSOMmCJPs4uoloRFA65pvX6mzNotEeJL618K4J6gPwQoPQnRfzGNiCL4FV9uJDDWOUw0E9X-eaRLGj4P68K3Dj53eXX7_JN0U7b8E1pl9O4-5nvNKOeiwEinZLnryMRrEcIeJj62KEdO15JQeVPSQLjVzlWlSIKxaoF0nNLzYbEANiaKbDNvYt1ED_vEBjV9K8jJrzUeRSDEGL118nkBFUnBi4AG3vcYsK51OUeop6IRqyhGXPtf_Pa_IUaoWqA6fg0L7q46fuTrzbcIKnGGsoZ3_xYqPq-tD1TseGdgXy-9zFZ_GKHcZKcXMrwGhk2D45NnEqwAV4za8-BJ8nxBiIFtylIEqdg4xfa5dKyforjluhbYViPxD-r_xRm00]--></g></svg>