<svg xmlns="http://www.w3.org/2000/svg" xmlns:xlink="http://www.w3.org/1999/xlink" contentStyleType="text/css" data-diagram-type="DESCRIPTION" height="964px" preserveAspectRatio="none" style="width:969px;height:964px;background:#FAFAFA;" version="1.1" viewBox="0 0 969 964" width="969px" zoomAndPan="magnify"><title>Webtensor &#8212; One-Screen Mental Model</title><defs/><g><rect fill="#FAFAFA" height="964" style="stroke:none;stroke-width:1;" width="969" x="0" y="0"/><text fill="#000000" font-family="Segoe UI" font-size="14" font-weight="bold" lengthAdjust="spacing" textLength="266.2119" x="344.394" y="25.1074">Webtensor &#8212; One-Screen Mental Model</text><!--cluster Packages--><g class="cluster" data-entity="Packages" data-source-line="17" data-uid="ent0002" id="cluster_Packages"><path d="M10,45.6348 L68.6143,45.6348 A6,6 0 0 1 72.6143,49.6348 L79.6143,70.2559 L654,70.2559 A4,4 0 0 1 658,74.2559 L658,268.6348 A4,4 0 0 1 654,272.6348 L10,272.6348 A4,4 0 0 1 6,268.6348 L6,49.6348 A4,4 0 0 1 10,45.6348" fill="#EEF4FF" style="stroke:#777777;stroke-width:1.5;"/><line style="stroke:#777777;stroke-width:1.5;" x1="6" x2="79.6143" y1="70.2559" y2="70.2559"/><text fill="#000000" font-family="Segoe UI" font-size="14" font-weight="bold" lengthAdjust="spacing" textLength="60.6143" x="10" y="62.7422">Packages</text></g><!--cluster Execution flow--><g class="cluster" data-entity="Execution flow" data-source-line="24" data-uid="ent0007" id="cluster_Execution flow"><path d="M686,54.6348 L781.3301,54.6348 A6,6 0 0 1 785.3301,58.6348 L792.3301,79.2559 L958,79.2559 A4,4 0 0 1 962,83.2559 L962,953.6348 A4,4 0 0 1 958,957.6348 L686,957.6348 A4,4 0 0 1 682,953.6348 L682,58.6348 A4,4 0 0 1 686,54.6348" fill="#EEFFF0" style="stroke:#777777;stroke-width:1.5;"/><line style="stroke:#777777;stroke-width:1.5;" x1="682" x2="792.3301" y1="79.2559" y2="79.2559"/><text fill="#000000" font-family="Segoe UI" font-size="14" font-weight="bold" lengthAdjust="spacing" textLength="97.3301" x="686" y="71.7422">Execution flow</text></g><!--entity core--><g class="entity" data-entity="core" data-source-line="18" data-uid="ent0003" id="entity_core"><rect fill="#FFFFFF" height="57.2422" rx="4" ry="4" style="stroke:#555555;stroke-width:0.5;" width="295.0166" x="22.5" y="82.6348"/><text fill="#000000" font-family="Segoe UI" font-size="14" font-weight="bold" lengthAdjust="spacing" textLength="95.3271" x="32.5" y="107.7422">packages/core</text><text fill="#000000" font-family="Segoe UI" font-size="14" lengthAdjust="spacing" textLength="275.0166" x="32.5" y="126.3633">Tensor, ops (eager), autograd, compileGraph</text></g><!--entity ir--><g class="entity" data-entity="ir" data-source-line="19" data-uid="ent0004" id="entity_ir"><rect fill="#FFFFFF" height="57.2422" rx="4" ry="4" style="stroke:#555555;stroke-width:0.5;" width="289.4863" x="352.5" y="82.6348"/><text fill="#000000" font-family="Segoe UI" font-size="14" font-weight="bold" lengthAdjust="spacing" textLength="76.4531" x="362.5" y="107.7422">packages/ir</text><text fill="#000000" font-family="Segoe UI" font-size="14" lengthAdjust="spacing" textLength="269.4863" x="362.5" y="126.3633">Pure types: Node, Value, Graph (no devices)</text></g><!--entity runtime--><g class="entity" data-entity="runtime" data-source-line="20" data-uid="ent0005" id="entity_runtime"><rect fill="#FFFFFF" height="57.2422" rx="4" ry="4" style="stroke:#555555;stroke-width:0.5;" width="263.9473" x="38" y="199.6348"/><text fill="#000000" font-family="Segoe UI" font-size="14" font-weight="bold" lengthAdjust="spacing" textLength="119.2393" x="48" y="224.7422">packages/runtime</text><text fill="#000000" font-family="Segoe UI" font-size="14" lengthAdjust="spacing" textLength="243.9473" x="48" y="243.3633">Engine, Backend interface, view ops, GC</text></g><!--entity backends--><g class="entity" data-entity="backends" data-source-line="21" data-uid="ent0006" id="entity_backends"><rect fill="#FFFFFF" height="57.2422" rx="4" ry="4" style="stroke:#555555;stroke-width:0.5;" width="281.29" x="337.5" y="199.6348"/><text fill="#000000" font-family="Segoe UI" font-size="14" font-weight="bold" lengthAdjust="spacing" textLength="134.4082" x="347.5" y="224.7422">packages/backend-*</text><text fill="#000000" font-family="Segoe UI" font-size="14" lengthAdjust="spacing" textLength="261.29" x="347.5" y="243.3633">CPU (TS) | WASM (Rust) | WebGPU (WGSL)</text></g><!--entity u--><g class="entity" data-entity="u" data-source-line="25" data-uid="ent0008" id="entity_u"><rect fill="#FFFFFF" height="38.6211" rx="4" ry="4" style="stroke:#555555;stroke-width:0.5;" width="81.8174" x="781" y="91.6348"/><text fill="#000000" font-family="Segoe UI" font-size="14" lengthAdjust="spacing" textLength="61.8174" x="791" y="116.7422">User code</text></g><!--entity eager--><g class="entity" data-entity="eager" data-source-line="26" data-uid="ent0009" id="entity_eager"><rect fill="#FFFFFF" height="57.2422" rx="4" ry="4" style="stroke:#555555;stroke-width:0.5;" width="212.4658" x="716" y="199.6348"/><text fill="#000000" font-family="Segoe UI" font-size="14" lengthAdjust="spacing" textLength="192.4658" x="726" y="224.7422">Eager ops build a Tensor graph</text><text fill="#000000" font-family="Segoe UI" font-size="14" lengthAdjust="spacing" textLength="156.3105" x="726" y="243.3633">each Tensor carries a _ctx</text></g><!--entity compile--><g class="entity" data-entity="compile" data-source-line="27" data-uid="ent0010" id="entity_compile"><rect fill="#FFFFFF" height="57.2422" rx="4" ry="4" style="stroke:#555555;stroke-width:0.5;" width="247.4453" x="698.5" y="316.6348"/><text fill="#000000" font-family="Segoe UI" font-size="14" lengthAdjust="spacing" textLength="86.8096" x="708.5" y="341.7422">compileGraph</text><text fill="#000000" font-family="Segoe UI" font-size="14" lengthAdjust="spacing" textLength="227.4453" x="708.5" y="360.3633">&#8594; IR Graph: nodes, values, initializers</text></g><!--entity eval--><g class="entity" data-entity="eval" data-source-line="28" data-uid="ent0011" id="entity_eval"><rect fill="#FFFFFF" height="38.6211" rx="4" ry="4" style="stroke:#555555;stroke-width:0.5;" width="156.7939" x="743.5" y="433.6348"/><text fill="#000000" font-family="Segoe UI" font-size="14" lengthAdjust="spacing" textLength="136.7939" x="753.5" y="458.7422">Engine.evaluate graph</text></g><!--entity topo--><g class="entity" data-entity="topo" data-source-line="29" data-uid="ent0012" id="entity_topo"><rect fill="#FFFFFF" height="38.6211" rx="4" ry="4" style="stroke:#555555;stroke-width:0.5;" width="79.5615" x="782" y="532.6348"/><text fill="#000000" font-family="Segoe UI" font-size="14" lengthAdjust="spacing" textLength="59.5615" x="792" y="557.7422">Topo sort</text></g><!--entity dispatch--><g class="entity" data-entity="dispatch" data-source-line="30" data-uid="ent0013" id="entity_dispatch"><rect fill="#FFFFFF" height="94.4844" rx="4" ry="4" style="stroke:#555555;stroke-width:0.5;" width="193.5303" x="725" y="631.6348"/><text fill="#000000" font-family="Segoe UI" font-size="14" lengthAdjust="spacing" textLength="95.3545" x="735" y="656.7422">Constant load /</text><text fill="#000000" font-family="Segoe UI" font-size="14" lengthAdjust="spacing" textLength="98.458" x="735" y="675.3633">View fast-path /</text><text fill="#000000" font-family="Segoe UI" font-size="14" lengthAdjust="spacing" textLength="173.5303" x="735" y="693.9844">Reshape contiguity branch /</text><text fill="#000000" font-family="Segoe UI" font-size="14" lengthAdjust="spacing" textLength="171.7939" x="735" y="712.6055">Kernel dispatch via Backend</text></g><!--entity gc--><g class="entity" data-entity="gc" data-source-line="31" data-uid="ent0014" id="entity_gc"><rect fill="#FFFFFF" height="38.6211" rx="4" ry="4" style="stroke:#555555;stroke-width:0.5;" width="246.96" x="698.5" y="785.6348"/><text fill="#000000" font-family="Segoe UI" font-size="14" lengthAdjust="spacing" textLength="226.96" x="708.5" y="810.7422">Refcount GC + cascade view cleanup</text></g><!--entity read--><g class="entity" data-entity="read" data-source-line="32" data-uid="ent0015" id="entity_read"><rect fill="#FFFFFF" height="57.2422" rx="4" ry="4" style="stroke:#555555;stroke-width:0.5;" width="135.001" x="754.5" y="884.6348"/><text fill="#000000" font-family="Segoe UI" font-size="14" lengthAdjust="spacing" textLength="80.9375" x="764.5" y="909.7422">engine.get id</text><text fill="#000000" font-family="Segoe UI" font-size="14" lengthAdjust="spacing" textLength="115.001" x="764.5" y="928.3633">&#8594; ArrayBufferView</text></g><!--link u to eager--><g class="link" data-entity-1="u" data-entity-2="eager" data-source-line="34" data-uid="lnk16" id="link_u_eager"><path d="M822,130.8648 C822,149.4548 822,172.1548 822,193.3848" fill="none" id="u-to-eager" style="stroke:#555555;stroke-width:1;"/><polygon fill="#555555" points="822,199.3848,826,190.3848,822,194.3848,818,190.3848,822,199.3848" style="stroke:#555555;stroke-width:1;"/></g><!--link eager to compile--><g class="link" data-entity-1="eager" data-entity-2="compile" data-source-line="35" data-uid="lnk17" id="link_eager_compile"><path d="M822,256.6848 C822,274.7548 822,292.3048 822,310.4148" fill="none" id="eager-to-compile" style="stroke:#555555;stroke-width:1;"/><polygon fill="#555555" points="822,316.4148,826,307.4148,822,311.4148,818,307.4148,822,316.4148" style="stroke:#555555;stroke-width:1;"/></g><!--link compile to eval--><g class="link" data-entity-1="compile" data-entity-2="eval" data-source-line="36" data-uid="lnk18" id="link_compile_eval"><path d="M822,373.7048 C822,392.4748 822,410.8248 822,427.3748" fill="none" id="compile-to-eval" style="stroke:#555555;stroke-width:1;"/><polygon fill="#555555" points="822,433.3748,826,424.3748,822,428.3748,818,424.3748,822,433.3748" style="stroke:#555555;stroke-width:1;"/></g><!--link eval to topo--><g class="link" data-entity-1="eval" data-entity-2="topo" data-source-line="37" data-uid="lnk19" id="link_eval_topo"><path d="M822,472.8348 C822,490.0148 822,509.3348 822,526.4848" fill="none" id="eval-to-topo" style="stroke:#555555;stroke-width:1;"/><polygon fill="#555555" points="822,532.4848,826,523.4848,822,527.4848,818,523.4848,822,532.4848" style="stroke:#555555;stroke-width:1;"/></g><!--link topo to dispatch--><g class="link" data-entity-1="topo" data-entity-2="dispatch" data-source-line="38" data-uid="lnk20" id="link_topo_dispatch"><path d="M822,571.7748 C822,587.5148 822,604.7248 822,625.4048" fill="none" id="topo-to-dispatch" style="stroke:#555555;stroke-width:1;"/><polygon fill="#555555" points="822,631.4048,826,622.4048,822,626.4048,818,622.4048,822,631.4048" style="stroke:#555555;stroke-width:1;"/></g><!--link dispatch to gc--><g class="link" data-entity-1="dispatch" data-entity-2="gc" data-source-line="39" data-uid="lnk21" id="link_dispatch_gc"><path d="M822,725.6448 C822,746.4248 822,763.7948 822,779.5948" fill="none" id="dispatch-to-gc" style="stroke:#555555;stroke-width:1;"/><polygon fill="#555555" points="822,785.5948,826,776.5948,822,780.5948,818,776.5948,822,785.5948" style="stroke:#555555;stroke-width:1;"/></g><!--link gc to read--><g class="link" data-entity-1="gc" data-entity-2="read" data-source-line="40" data-uid="lnk22" id="link_gc_read"><path d="M822,825.0848 C822,841.6448 822,859.8848 822,878.5848" fill="none" id="gc-to-read" style="stroke:#555555;stroke-width:1;"/><polygon fill="#555555" points="822,884.5848,826,875.5848,822,879.5848,818,875.5848,822,884.5848" style="stroke:#555555;stroke-width:1;"/></g><!--SRC=[VLJDJXin4BxdAKRX4jgaz514XH0If0cgMYXA-Bb4gcQziniBnrxPtW1jgNhg0rHzGfwaOti36rgQ76pFppUVvnklbruHN5BcIJjZuVx7R_YaQJ0LbaZ3CMcF2evDJghJSLTILsXn0HcAgzAQMkT3epXjOtmG_gq8DyVSN4jTGe7AKSlJf5bD5jwsxE-em5hviT7-11S4tIcLXk3yVRSLT62jkMvgRczljpmLKyAIu6i7uD3Od6mJjhEp4qn_COw_pbsR6GcFkbJ_00cr_WVIMPNldgQDwyB6Q3H-Cnv7i4VexbwstmIxBM4ixMrb-pDz5llV1rCvw14xxMOViFQcj9ZtGPX59HKTMQpcNK078VDvN6aJwcbj2VnjHMuNJbZ4FboWgdc9GD3J1d9QIa5kCw9A-pochRMNYuRkI9TICqxe2EaSfFPa2nHiMagw3jVW8iC8sYG-ZvmbaC6BX3qyFOVUsNGJli7bmVGOUfFQ-NYYx2ZuBe-c7nFV9jEjAJ2w8L5xQJGKobmd7SRZrqzrE7SyW8AR4f7gTUSeA135o6gfSa180a4P6ZVJX6A-CWcqLfBZcE-VXR-9S571TSYsX3Dz__CNl9ya7NP1Cmrks3A8mwlKqajKyWjPrwWTSvzmZ1gyef25dXArL9rDwx5dfZB0P7tqUpwj-uT6EzvxK0Pps9hfYw1YWSuFAlJpO9aGl-cAc0lBMTRItq9cKOle_43ydXNaqd4ucvOILxCHAwuSwrKdL0X-JPud1Lvo7vt0dD802KMewoecbs8zZTB5I_8WyzHA_YxWxM5T56G3ypHtX7c7CsiO3FOV58bhj3msjTcbkDIxiCHpqwkmn7Fh9W-t3VP8iXHn7olVTVu0]--></g></svg>