<svg xmlns="http://www.w3.org/2000/svg" xmlns:xlink="http://www.w3.org/1999/xlink" contentStyleType="text/css" data-diagram-type="DESCRIPTION" height="464px" preserveAspectRatio="none" style="width:1106px;height:464px;background:#FFFFFF;" version="1.1" viewBox="0 0 1106 464" width="1106px" zoomAndPan="magnify"><defs/><g><!--cluster Authoring--><g class="cluster" data-entity="Authoring" data-source-line="2" data-uid="ent0002" id="cluster_Authoring"><path d="M821.5,6 L889.3691,6 A3.75,3.75 0 0 1 891.8691,8.5 L898.8691,29.6094 L1096.5,29.6094 A2.5,2.5 0 0 1 1099,32.1094 L1099,120.5 A2.5,2.5 0 0 1 1096.5,123 L821.5,123 A2.5,2.5 0 0 1 819,120.5 L819,8.5 A2.5,2.5 0 0 1 821.5,6" fill="#EEF4FF" style="stroke:#000000;stroke-width:1.5;"/><line style="stroke:#000000;stroke-width:1.5;" x1="819" x2="898.8691" y1="29.6094" y2="29.6094"/><text fill="#000000" font-family="sans-serif" font-size="14" font-weight="bold" lengthAdjust="spacing" textLength="66.8691" x="823" y="22.5332">Authoring</text></g><!--cluster Graph Description--><g class="cluster" data-entity="Graph Description" data-source-line="6" data-uid="ent0004" id="cluster_Graph Description"><path d="M583.5,173 L706.6309,173 A3.75,3.75 0 0 1 709.1309,175.5 L716.1309,196.6094 L886.5,196.6094 A2.5,2.5 0 0 1 889,199.1094 L889,287.5 A2.5,2.5 0 0 1 886.5,290 L583.5,290 A2.5,2.5 0 0 1 581,287.5 L581,175.5 A2.5,2.5 0 0 1 583.5,173" fill="#FFF8EE" style="stroke:#000000;stroke-width:1.5;"/><line style="stroke:#000000;stroke-width:1.5;" x1="581" x2="716.1309" y1="196.6094" y2="196.6094"/><text fill="#000000" font-family="sans-serif" font-size="14" font-weight="bold" lengthAdjust="spacing" textLength="122.1309" x="585" y="189.5332">Graph Description</text></g><!--cluster Execution--><g class="cluster" data-entity="Execution" data-source-line="10" data-uid="ent0006" id="cluster_Execution"><path d="M171.5,173 L239.4033,173 A3.75,3.75 0 0 1 241.9033,175.5 L248.9033,196.6094 L468.5,196.6094 A2.5,2.5 0 0 1 471,199.1094 L471,287.5 A2.5,2.5 0 0 1 468.5,290 L171.5,290 A2.5,2.5 0 0 1 169,287.5 L169,175.5 A2.5,2.5 0 0 1 171.5,173" fill="#EEFFF0" style="stroke:#000000;stroke-width:1.5;"/><line style="stroke:#000000;stroke-width:1.5;" x1="169" x2="248.9033" y1="196.6094" y2="196.6094"/><text fill="#000000" font-family="sans-serif" font-size="14" font-weight="bold" lengthAdjust="spacing" textLength="66.9033" x="173" y="189.5332">Execution</text></g><!--cluster Backends--><g class="cluster" data-entity="Backends" data-source-line="14" data-uid="ent0008" id="cluster_Backends"><path d="M8.5,340 L75.6445,340 A3.75,3.75 0 0 1 78.1445,342.5 L85.1445,363.6094 L668.5,363.6094 A2.5,2.5 0 0 1 671,366.1094 L671,454.5 A2.5,2.5 0 0 1 668.5,457 L8.5,457 A2.5,2.5 0 0 1 6,454.5 L6,342.5 A2.5,2.5 0 0 1 8.5,340" fill="#FFF0F0" style="stroke:#000000;stroke-width:1.5;"/><line style="stroke:#000000;stroke-width:1.5;" x1="6" x2="85.1445" y1="363.6094" y2="363.6094"/><text fill="#000000" font-family="sans-serif" font-size="14" font-weight="bold" lengthAdjust="spacing" textLength="66.1445" x="10" y="356.5332">Backends</text></g><!--cluster Planned--><g class="cluster" data-entity="Planned" data-source-line="20" data-uid="ent0012" id="cluster_Planned"><path d="M416.5,6 L471.9551,6 A3.75,3.75 0 0 1 474.4551,8.5 L481.4551,29.6094 L792.5,29.6094 A2.5,2.5 0 0 1 795,32.1094 L795,120.5 A2.5,2.5 0 0 1 792.5,123 L416.5,123 A2.5,2.5 0 0 1 414,120.5 L414,8.5 A2.5,2.5 0 0 1 416.5,6" fill="#F5F5F5" style="stroke:#000000;stroke-width:1.5;"/><line style="stroke:#000000;stroke-width:1.5;" x1="414" x2="481.4551" y1="29.6094" y2="29.6094"/><text fill="#000000" font-family="sans-serif" font-size="14" font-weight="bold" lengthAdjust="spacing" textLength="54.4551" x="418" y="22.5332">Planned</text></g><!--entity core--><g class="entity" data-entity="core" data-source-line="3" data-uid="ent0003" id="entity_core"><rect fill="#F1F1F1" height="65.2188" rx="2.5" ry="2.5" style="stroke:#181818;stroke-width:0.5;" width="246.9785" x="835.5" y="42"/><rect fill="#F1F1F1" height="10" style="stroke:#181818;stroke-width:0.5;" width="15" x="1062.4785" y="47"/><rect fill="#F1F1F1" height="2" style="stroke:#181818;stroke-width:0.5;" width="4" x="1060.4785" y="49"/><rect fill="#F1F1F1" height="2" style="stroke:#181818;stroke-width:0.5;" width="4" x="1060.4785" y="53"/><text fill="#000000" font-family="sans-serif" font-size="14" lengthAdjust="spacing" textLength="27.2344" x="850.5" y="76.5332">core</text><text fill="#000000" font-family="sans-serif" font-size="14" lengthAdjust="spacing" textLength="206.9785" x="850.5" y="94.1426">(Tensor, ops, autograd, compiler)</text></g><!--entity ir--><g class="entity" data-entity="ir" data-source-line="7" data-uid="ent0005" id="entity_ir"><rect fill="#F1F1F1" height="65.2188" rx="2.5" ry="2.5" style="stroke:#181818;stroke-width:0.5;" width="275.7715" x="597" y="209"/><rect fill="#F1F1F1" height="10" style="stroke:#181818;stroke-width:0.5;" width="15" x="852.7715" y="214"/><rect fill="#F1F1F1" height="2" style="stroke:#181818;stroke-width:0.5;" width="4" x="850.7715" y="216"/><rect fill="#F1F1F1" height="2" style="stroke:#181818;stroke-width:0.5;" width="4" x="850.7715" y="220"/><text fill="#000000" font-family="sans-serif" font-size="14" lengthAdjust="spacing" textLength="7.7725" x="612" y="243.5332">ir</text><text fill="#000000" font-family="sans-serif" font-size="14" lengthAdjust="spacing" textLength="235.7715" x="612" y="261.1426">(Node, Value, Graph - ONNX-aligned)</text></g><!--entity runtime--><g class="entity" data-entity="runtime" data-source-line="11" data-uid="ent0007" id="entity_runtime"><rect fill="#F1F1F1" height="65.2188" rx="2.5" ry="2.5" style="stroke:#181818;stroke-width:0.5;" width="270.3369" x="185" y="209"/><rect fill="#F1F1F1" height="10" style="stroke:#181818;stroke-width:0.5;" width="15" x="435.3369" y="214"/><rect fill="#F1F1F1" height="2" style="stroke:#181818;stroke-width:0.5;" width="4" x="433.3369" y="216"/><rect fill="#F1F1F1" height="2" style="stroke:#181818;stroke-width:0.5;" width="4" x="433.3369" y="220"/><text fill="#000000" font-family="sans-serif" font-size="14" lengthAdjust="spacing" textLength="46.6826" x="200" y="243.5332">runtime</text><text fill="#000000" font-family="sans-serif" font-size="14" lengthAdjust="spacing" textLength="230.3369" x="200" y="261.1426">(Engine, Backend interface, lifecycle)</text></g><!--entity cpu--><g class="entity" data-entity="cpu" data-source-line="15" data-uid="ent0009" id="entity_cpu"><rect fill="#F1F1F1" height="65.2188" rx="2.5" ry="2.5" style="stroke:#181818;stroke-width:0.5;" width="165.2549" x="22.5" y="376"/><rect fill="#F1F1F1" height="10" style="stroke:#181818;stroke-width:0.5;" width="15" x="167.7549" y="381"/><rect fill="#F1F1F1" height="2" style="stroke:#181818;stroke-width:0.5;" width="4" x="165.7549" y="383"/><rect fill="#F1F1F1" height="2" style="stroke:#181818;stroke-width:0.5;" width="4" x="165.7549" y="387"/><text fill="#000000" font-family="sans-serif" font-size="14" lengthAdjust="spacing" textLength="80.165" x="37.5" y="410.5332">backend-cpu</text><text fill="#000000" font-family="sans-serif" font-size="14" lengthAdjust="spacing" textLength="125.2549" x="37.5" y="428.1426">(TypeScript kernels)</text></g><!--entity wasm--><g class="entity" data-entity="wasm" data-source-line="16" data-uid="ent0010" id="entity_wasm"><rect fill="#F1F1F1" height="65.2188" rx="2.5" ry="2.5" style="stroke:#181818;stroke-width:0.5;" width="194.834" x="222.5" y="376"/><rect fill="#F1F1F1" height="10" style="stroke:#181818;stroke-width:0.5;" width="15" x="397.334" y="381"/><rect fill="#F1F1F1" height="2" style="stroke:#181818;stroke-width:0.5;" width="4" x="395.334" y="383"/><rect fill="#F1F1F1" height="2" style="stroke:#181818;stroke-width:0.5;" width="4" x="395.334" y="387"/><text fill="#000000" font-family="sans-serif" font-size="14" lengthAdjust="spacing" textLength="94.1514" x="237.5" y="410.5332">backend-wasm</text><text fill="#000000" font-family="sans-serif" font-size="14" lengthAdjust="spacing" textLength="154.834" x="237.5" y="428.1426">(Rust via wasm-bindgen)</text></g><!--entity webgpu--><g class="entity" data-entity="webgpu" data-source-line="17" data-uid="ent0011" id="entity_webgpu"><rect fill="#F1F1F1" height="65.2188" rx="2.5" ry="2.5" style="stroke:#181818;stroke-width:0.5;" width="201.834" x="453" y="376"/><rect fill="#F1F1F1" height="10" style="stroke:#181818;stroke-width:0.5;" width="15" x="634.834" y="381"/><rect fill="#F1F1F1" height="2" style="stroke:#181818;stroke-width:0.5;" width="4" x="632.834" y="383"/><rect fill="#F1F1F1" height="2" style="stroke:#181818;stroke-width:0.5;" width="4" x="632.834" y="387"/><text fill="#000000" font-family="sans-serif" font-size="14" lengthAdjust="spacing" textLength="106.6338" x="468" y="410.5332">backend-webgpu</text><text fill="#000000" font-family="sans-serif" font-size="14" lengthAdjust="spacing" textLength="161.834" x="468" y="428.1426">(WGSL compute shaders)</text></g><!--entity onnx--><g class="entity" data-entity="onnx" data-source-line="21" data-uid="ent0013" id="entity_onnx"><rect fill="#DDDDDD" height="65.2188" rx="2.5" ry="2.5" style="stroke:#181818;stroke-width:0.5;" width="135.3135" x="643.5" y="42"/><rect fill="#DDDDDD" height="10" style="stroke:#181818;stroke-width:0.5;" width="15" x="758.8135" y="47"/><rect fill="#DDDDDD" height="2" style="stroke:#181818;stroke-width:0.5;" width="4" x="756.8135" y="49"/><rect fill="#DDDDDD" height="2" style="stroke:#181818;stroke-width:0.5;" width="4" x="756.8135" y="53"/><text fill="#000000" font-family="sans-serif" font-size="14" lengthAdjust="spacing" textLength="30.3584" x="658.5" y="76.5332">onnx</text><text fill="#000000" font-family="sans-serif" font-size="14" lengthAdjust="spacing" textLength="95.3135" x="658.5" y="94.1426">(protobuf -&gt; IR)</text></g><!--entity devtools--><g class="entity" data-entity="devtools" data-source-line="22" data-uid="ent0014" id="entity_devtools"><rect fill="#DDDDDD" height="65.2188" rx="2.5" ry="2.5" style="stroke:#181818;stroke-width:0.5;" width="177.7168" x="430" y="42"/><rect fill="#DDDDDD" height="10" style="stroke:#181818;stroke-width:0.5;" width="15" x="587.7168" y="47"/><rect fill="#DDDDDD" height="2" style="stroke:#181818;stroke-width:0.5;" width="4" x="585.7168" y="49"/><rect fill="#DDDDDD" height="2" style="stroke:#181818;stroke-width:0.5;" width="4" x="585.7168" y="53"/><text fill="#000000" font-family="sans-serif" font-size="14" lengthAdjust="spacing" textLength="52.1445" x="445" y="76.5332">devtools</text><text fill="#000000" font-family="sans-serif" font-size="14" lengthAdjust="spacing" textLength="137.7168" x="445" y="94.1426">(graph UI, training viz)</text></g><!--link core to ir--><g class="link" data-entity-1="core" data-entity-2="ir" data-source-line="25" data-uid="lnk15" id="link_core_ir"><path d="M916.08,107.12 C876.31,136.41 822.3203,176.1708 782.6103,205.4308" fill="none" id="core-to-ir" style="stroke:#181818;stroke-width:1;"/><polygon fill="#181818" points="777.78,208.99,787.3983,206.8714,781.8053,206.024,782.6527,200.431,777.78,208.99" style="stroke:#181818;stroke-width:1;"/><text fill="#000000" font-family="sans-serif" font-size="13" lengthAdjust="spacing" textLength="73.709" x="868" y="153.4951">builds Graph</text></g><!--link runtime to ir--><g class="link" data-entity-1="runtime" data-entity-2="ir" data-source-line="26" data-uid="lnk16" id="link_runtime_ir"><path d="M455.03,241.5 C500.45,241.5 545.18,241.5 590.85,241.5" fill="none" id="runtime-to-ir" style="stroke:#181818;stroke-width:1;"/><polygon fill="#181818" points="596.85,241.5,587.85,237.5,591.85,241.5,587.85,245.5,596.85,241.5" style="stroke:#181818;stroke-width:1;"/><text fill="#000000" font-family="sans-serif" font-size="13" lengthAdjust="spacing" textLength="104.0698" x="474" y="234.9951">reads Node/Value</text></g><!--reverse link runtime to cpu--><g class="link" data-entity-1="runtime" data-entity-2="cpu" data-source-line="27" data-uid="lnk18" id="link_runtime_cpu"><path d="M225.8211,282.1214 C207.9011,291.1114 205.63,293.77 190,306 C164.84,325.69 141.94,353.92 126.27,375.61" fill="none" id="runtime-backto-cpu" style="stroke:#181818;stroke-width:1;stroke-dasharray:7.0,7.0;"/><polygon fill="none" points="241.91,274.05,223.1306,276.7584,228.5116,287.4844,241.91,274.05" style="stroke:#181818;stroke-width:1;"/><text fill="#000000" font-family="sans-serif" font-size="13" lengthAdjust="spacing" textLength="120.6689" x="191" y="320.4951">implements Backend</text></g><!--reverse link runtime to wasm--><g class="link" data-entity-1="runtime" data-entity-2="wasm" data-source-line="28" data-uid="lnk20" id="link_runtime_wasm"><path d="M320,292.31 C320,321.53 320,346.6 320,375.78" fill="none" id="runtime-backto-wasm" style="stroke:#181818;stroke-width:1;stroke-dasharray:7.0,7.0;"/><polygon fill="none" points="320,274.31,314,292.31,326,292.31,320,274.31" style="stroke:#181818;stroke-width:1;"/><text fill="#000000" font-family="sans-serif" font-size="13" lengthAdjust="spacing" textLength="120.6689" x="321" y="320.4951">implements Backend</text></g><!--reverse link runtime to webgpu--><g class="link" data-entity-1="runtime" data-entity-2="webgpu" data-source-line="29" data-uid="lnk22" id="link_runtime_webgpu"><path d="M411.0044,281.9798 C429.6844,291.1898 433.06,294.06 450,306 C478.67,326.2 506.86,354.39 526.65,375.93" fill="none" id="runtime-backto-webgpu" style="stroke:#181818;stroke-width:1;stroke-dasharray:7.0,7.0;"/><polygon fill="none" points="394.86,274.02,408.3511,287.3613,413.6577,276.5984,394.86,274.02" style="stroke:#181818;stroke-width:1;"/><text fill="#000000" font-family="sans-serif" font-size="13" lengthAdjust="spacing" textLength="120.6689" x="473" y="320.4951">implements Backend</text></g><!--link onnx to ir--><g class="link" data-entity-1="onnx" data-entity-2="ir" data-source-line="31" data-uid="lnk23" id="link_onnx_ir"><path d="M715.63,107.31 C719.88,136.53 725.2752,173.6626 729.5252,202.8426" fill="none" id="onnx-to-ir" style="stroke:#181818;stroke-width:1;stroke-dasharray:7.0,7.0;"/><polygon fill="#181818" points="730.39,208.78,733.0511,199.2975,729.6694,203.8322,725.1346,200.4505,730.39,208.78" style="stroke:#181818;stroke-width:1;"/><text fill="#000000" font-family="sans-serif" font-size="13" lengthAdjust="spacing" textLength="112.0171" x="723" y="153.4951">produces (planned)</text></g><!--link devtools to ir--><g class="link" data-entity-1="devtools" data-entity-2="ir" data-source-line="32" data-uid="lnk24" id="link_devtools_ir"><path d="M528.84,107.21 C535.27,123.72 545.09,143.27 559,157 C581.39,179.09 605.2713,193.6815 633.5613,206.4515" fill="none" id="devtools-to-ir" style="stroke:#181818;stroke-width:1;stroke-dasharray:7.0,7.0;"/><polygon fill="#181818" points="639.03,208.92,632.4727,201.5714,634.4728,206.8629,629.1813,208.863,639.03,208.92" style="stroke:#181818;stroke-width:1;"/><text fill="#000000" font-family="sans-serif" font-size="13" lengthAdjust="spacing" textLength="151.7534" x="560" y="153.4951">visualizes graph (planned)</text></g><!--link devtools to runtime--><g class="link" data-entity-1="devtools" data-entity-2="runtime" data-source-line="33" data-uid="lnk25" id="link_devtools_runtime"><path d="M429.96,80.04 C388.29,87.18 342.19,103.37 316,139 C301.48,158.75 302.4972,181.1487 307.7472,202.8187" fill="none" id="devtools-to-runtime" style="stroke:#181818;stroke-width:1;stroke-dasharray:7.0,7.0;"/><polygon fill="#181818" points="309.16,208.65,310.9284,198.9612,307.9827,203.7906,303.1533,200.8449,309.16,208.65" style="stroke:#181818;stroke-width:1;"/><text fill="#000000" font-family="sans-serif" font-size="13" lengthAdjust="spacing" textLength="182.8315" x="317" y="153.4951">reads execution trace (planned)</text></g><!--SRC=[ZP9BQzmm58Nt_XMNP9E0FSsYXT95e2Ls29HfIVg2jWjPkkCHaQ-47fD7s__UAykUPXQ5Z1U3vUyS7Pqh9-Ij612EtgQujLxJS0J7RTkzx3huLG5ybzRZ3phvX1Iihy6wK8D8qGvUg1ga7Pqsw4z_WWYGsUfFLRd5zD8BjuKB3D9h5xKbDk-wxdNR5dFjsNfj5TRmHPZ4VqNHm8Vr-biZZ1u8LJ7N_i2wlKUPPalEstLdnT8dYdhCaLiQDB7bEvOWAT0KqM-4v2MZDoWVfC5YFMiE_6TLA8dF5lk-B3VIfTpAWyERwMnmYvxGXBa8bvx2ToACJ5-d466d1UJtfjUa1gGYo2i72ko7QOUlbpVlfvPJH0XReT3FUnJa8FD78uZxof5VvQT4jaJtxEIyZRPF6sZEuUgwUEHFS7mn_JAgS1UjDO7nOHh4vwiQeXUQ-69mzCSYMx2zb4FasKEZx1snl_Rm1lgaZGfbejLSCJHU3zku81u54_a2l9ZcNt5ni4fkzVjy6GfJUdG6HwGObbbMkQ_dWLDBpqAhgOtLQix6VQaaCS29AxMULljpxw6T3eblwIDZfR3_mFysBaV6vVRcTYK-aVq5]--></g></svg>