<svg xmlns="http://www.w3.org/2000/svg" xmlns:xlink="http://www.w3.org/1999/xlink" contentStyleType="text/css" data-diagram-type="DESCRIPTION" height="507px" preserveAspectRatio="none" style="width:1297px;height:507px;background:#FFFFFF;" version="1.1" viewBox="0 0 1297 507" width="1297px" zoomAndPan="magnify"><defs/><g><!--cluster Authoring--><g class="cluster" data-entity="Authoring" data-source-line="2" data-uid="ent0002" id="cluster_Authoring"><path d="M821.5,49.93 L889.3691,49.93 A3.75,3.75 0 0 1 891.8691,52.43 L898.8691,73.5394 L1096.5,73.5394 A2.5,2.5 0 0 1 1099,76.0394 L1099,164.43 A2.5,2.5 0 0 1 1096.5,166.93 L821.5,166.93 A2.5,2.5 0 0 1 819,164.43 L819,52.43 A2.5,2.5 0 0 1 821.5,49.93" fill="#EEF4FF" style="stroke:#000000;stroke-width:1.5;"/><line style="stroke:#000000;stroke-width:1.5;" x1="819" x2="898.8691" y1="73.5394" y2="73.5394"/><text fill="#000000" font-family="sans-serif" font-size="14" font-weight="bold" lengthAdjust="spacing" textLength="66.8691" x="823" y="66.4632">Authoring</text></g><!--cluster Graph Description--><g class="cluster" data-entity="Graph Description" data-source-line="6" data-uid="ent0004" id="cluster_Graph Description"><path d="M583.5,216.93 L706.6309,216.93 A3.75,3.75 0 0 1 709.1309,219.43 L716.1309,240.5394 L886.5,240.5394 A2.5,2.5 0 0 1 889,243.0394 L889,331.43 A2.5,2.5 0 0 1 886.5,333.93 L583.5,333.93 A2.5,2.5 0 0 1 581,331.43 L581,219.43 A2.5,2.5 0 0 1 583.5,216.93" fill="#FFF8EE" style="stroke:#000000;stroke-width:1.5;"/><line style="stroke:#000000;stroke-width:1.5;" x1="581" x2="716.1309" y1="240.5394" y2="240.5394"/><text fill="#000000" font-family="sans-serif" font-size="14" font-weight="bold" lengthAdjust="spacing" textLength="122.1309" x="585" y="233.4632">Graph Description</text></g><!--cluster Execution--><g class="cluster" data-entity="Execution" data-source-line="10" data-uid="ent0006" id="cluster_Execution"><path d="M171.5,216.93 L239.4033,216.93 A3.75,3.75 0 0 1 241.9033,219.43 L248.9033,240.5394 L468.5,240.5394 A2.5,2.5 0 0 1 471,243.0394 L471,331.43 A2.5,2.5 0 0 1 468.5,333.93 L171.5,333.93 A2.5,2.5 0 0 1 169,331.43 L169,219.43 A2.5,2.5 0 0 1 171.5,216.93" fill="#EEFFF0" style="stroke:#000000;stroke-width:1.5;"/><line style="stroke:#000000;stroke-width:1.5;" x1="169" x2="248.9033" y1="240.5394" y2="240.5394"/><text fill="#000000" font-family="sans-serif" font-size="14" font-weight="bold" lengthAdjust="spacing" textLength="66.9033" x="173" y="233.4632">Execution</text></g><!--cluster Backends--><g class="cluster" data-entity="Backends" data-source-line="14" data-uid="ent0008" id="cluster_Backends"><path d="M8.5,383.93 L75.6445,383.93 A3.75,3.75 0 0 1 78.1445,386.43 L85.1445,407.5394 L668.5,407.5394 A2.5,2.5 0 0 1 671,410.0394 L671,498.43 A2.5,2.5 0 0 1 668.5,500.93 L8.5,500.93 A2.5,2.5 0 0 1 6,498.43 L6,386.43 A2.5,2.5 0 0 1 8.5,383.93" fill="#FFF0F0" style="stroke:#000000;stroke-width:1.5;"/><line style="stroke:#000000;stroke-width:1.5;" x1="6" x2="85.1445" y1="407.5394" y2="407.5394"/><text fill="#000000" font-family="sans-serif" font-size="14" font-weight="bold" lengthAdjust="spacing" textLength="66.1445" x="10" y="400.4632">Backends</text></g><!--cluster Planned--><g class="cluster" data-entity="Planned" data-source-line="20" data-uid="ent0012" id="cluster_Planned"><path d="M416.5,49.93 L471.9551,49.93 A3.75,3.75 0 0 1 474.4551,52.43 L481.4551,73.5394 L792.5,73.5394 A2.5,2.5 0 0 1 795,76.0394 L795,164.43 A2.5,2.5 0 0 1 792.5,166.93 L416.5,166.93 A2.5,2.5 0 0 1 414,164.43 L414,52.43 A2.5,2.5 0 0 1 416.5,49.93" fill="#F5F5F5" style="stroke:#000000;stroke-width:1.5;"/><line style="stroke:#000000;stroke-width:1.5;" x1="414" x2="481.4551" y1="73.5394" y2="73.5394"/><text fill="#000000" font-family="sans-serif" font-size="14" font-weight="bold" lengthAdjust="spacing" textLength="54.4551" x="418" y="66.4632">Planned</text></g><!--entity core--><g class="entity" data-entity="core" data-source-line="3" data-uid="ent0003" id="entity_core"><rect fill="#F1F1F1" height="65.2188" rx="2.5" ry="2.5" style="stroke:#181818;stroke-width:0.5;" width="246.9785" x="835.5" y="85.93"/><rect fill="#F1F1F1" height="10" style="stroke:#181818;stroke-width:0.5;" width="15" x="1062.4785" y="90.93"/><rect fill="#F1F1F1" height="2" style="stroke:#181818;stroke-width:0.5;" width="4" x="1060.4785" y="92.93"/><rect fill="#F1F1F1" height="2" style="stroke:#181818;stroke-width:0.5;" width="4" x="1060.4785" y="96.93"/><text fill="#000000" font-family="sans-serif" font-size="14" lengthAdjust="spacing" textLength="27.2344" x="850.5" y="120.4632">core</text><text fill="#000000" font-family="sans-serif" font-size="14" lengthAdjust="spacing" textLength="206.9785" x="850.5" y="138.0726">(Tensor, ops, autograd, compiler)</text></g><!--entity ir--><g class="entity" data-entity="ir" data-source-line="7" data-uid="ent0005" id="entity_ir"><rect fill="#F1F1F1" height="65.2188" rx="2.5" ry="2.5" style="stroke:#181818;stroke-width:0.5;" width="275.7715" x="597" y="252.93"/><rect fill="#F1F1F1" height="10" style="stroke:#181818;stroke-width:0.5;" width="15" x="852.7715" y="257.93"/><rect fill="#F1F1F1" height="2" style="stroke:#181818;stroke-width:0.5;" width="4" x="850.7715" y="259.93"/><rect fill="#F1F1F1" height="2" style="stroke:#181818;stroke-width:0.5;" width="4" x="850.7715" y="263.93"/><text fill="#000000" font-family="sans-serif" font-size="14" lengthAdjust="spacing" textLength="7.7725" x="612" y="287.4632">ir</text><text fill="#000000" font-family="sans-serif" font-size="14" lengthAdjust="spacing" textLength="235.7715" x="612" y="305.0726">(Node, Value, Graph - ONNX-aligned)</text></g><!--entity runtime--><g class="entity" data-entity="runtime" data-source-line="11" data-uid="ent0007" id="entity_runtime"><rect fill="#F1F1F1" height="65.2188" rx="2.5" ry="2.5" style="stroke:#181818;stroke-width:0.5;" width="270.3369" x="185" y="252.93"/><rect fill="#F1F1F1" height="10" style="stroke:#181818;stroke-width:0.5;" width="15" x="435.3369" y="257.93"/><rect fill="#F1F1F1" height="2" style="stroke:#181818;stroke-width:0.5;" width="4" x="433.3369" y="259.93"/><rect fill="#F1F1F1" height="2" style="stroke:#181818;stroke-width:0.5;" width="4" x="433.3369" y="263.93"/><text fill="#000000" font-family="sans-serif" font-size="14" lengthAdjust="spacing" textLength="46.6826" x="200" y="287.4632">runtime</text><text fill="#000000" font-family="sans-serif" font-size="14" lengthAdjust="spacing" textLength="230.3369" x="200" y="305.0726">(Engine, Backend interface, lifecycle)</text></g><!--entity cpu--><g class="entity" data-entity="cpu" data-source-line="15" data-uid="ent0009" id="entity_cpu"><rect fill="#F1F1F1" height="65.2188" rx="2.5" ry="2.5" style="stroke:#181818;stroke-width:0.5;" width="165.2549" x="22.5" y="419.93"/><rect fill="#F1F1F1" height="10" style="stroke:#181818;stroke-width:0.5;" width="15" x="167.7549" y="424.93"/><rect fill="#F1F1F1" height="2" style="stroke:#181818;stroke-width:0.5;" width="4" x="165.7549" y="426.93"/><rect fill="#F1F1F1" height="2" style="stroke:#181818;stroke-width:0.5;" width="4" x="165.7549" y="430.93"/><text fill="#000000" font-family="sans-serif" font-size="14" lengthAdjust="spacing" textLength="80.165" x="37.5" y="454.4632">backend-cpu</text><text fill="#000000" font-family="sans-serif" font-size="14" lengthAdjust="spacing" textLength="125.2549" x="37.5" y="472.0726">(TypeScript kernels)</text></g><!--entity wasm--><g class="entity" data-entity="wasm" data-source-line="16" data-uid="ent0010" id="entity_wasm"><rect fill="#F1F1F1" height="65.2188" rx="2.5" ry="2.5" style="stroke:#181818;stroke-width:0.5;" width="194.834" x="222.5" y="419.93"/><rect fill="#F1F1F1" height="10" style="stroke:#181818;stroke-width:0.5;" width="15" x="397.334" y="424.93"/><rect fill="#F1F1F1" height="2" style="stroke:#181818;stroke-width:0.5;" width="4" x="395.334" y="426.93"/><rect fill="#F1F1F1" height="2" style="stroke:#181818;stroke-width:0.5;" width="4" x="395.334" y="430.93"/><text fill="#000000" font-family="sans-serif" font-size="14" lengthAdjust="spacing" textLength="94.1514" x="237.5" y="454.4632">backend-wasm</text><text fill="#000000" font-family="sans-serif" font-size="14" lengthAdjust="spacing" textLength="154.834" x="237.5" y="472.0726">(Rust via wasm-bindgen)</text></g><!--entity webgpu--><g class="entity" data-entity="webgpu" data-source-line="17" data-uid="ent0011" id="entity_webgpu"><rect fill="#F1F1F1" height="65.2188" rx="2.5" ry="2.5" style="stroke:#181818;stroke-width:0.5;" width="201.834" x="453" y="419.93"/><rect fill="#F1F1F1" height="10" style="stroke:#181818;stroke-width:0.5;" width="15" x="634.834" y="424.93"/><rect fill="#F1F1F1" height="2" style="stroke:#181818;stroke-width:0.5;" width="4" x="632.834" y="426.93"/><rect fill="#F1F1F1" height="2" style="stroke:#181818;stroke-width:0.5;" width="4" x="632.834" y="430.93"/><text fill="#000000" font-family="sans-serif" font-size="14" lengthAdjust="spacing" textLength="106.6338" x="468" y="454.4632">backend-webgpu</text><text fill="#000000" font-family="sans-serif" font-size="14" lengthAdjust="spacing" textLength="161.834" x="468" y="472.0726">(WGSL compute shaders)</text></g><!--entity onnx--><g class="entity" data-entity="onnx" data-source-line="21" data-uid="ent0013" id="entity_onnx"><rect fill="#DDDDDD" height="65.2188" rx="2.5" ry="2.5" style="stroke:#181818;stroke-width:0.5;" width="135.3135" x="643.5" y="85.93"/><rect fill="#DDDDDD" height="10" style="stroke:#181818;stroke-width:0.5;" width="15" x="758.8135" y="90.93"/><rect fill="#DDDDDD" height="2" style="stroke:#181818;stroke-width:0.5;" width="4" x="756.8135" y="92.93"/><rect fill="#DDDDDD" height="2" style="stroke:#181818;stroke-width:0.5;" width="4" x="756.8135" y="96.93"/><text fill="#000000" font-family="sans-serif" font-size="14" lengthAdjust="spacing" textLength="30.3584" x="658.5" y="120.4632">onnx</text><text fill="#000000" font-family="sans-serif" font-size="14" lengthAdjust="spacing" textLength="95.3135" x="658.5" y="138.0726">(protobuf -&gt; IR)</text></g><!--entity devtools--><g class="entity" data-entity="devtools" data-source-line="22" data-uid="ent0014" id="entity_devtools"><rect fill="#DDDDDD" height="65.2188" rx="2.5" ry="2.5" style="stroke:#181818;stroke-width:0.5;" width="177.7168" x="430" y="85.93"/><rect fill="#DDDDDD" height="10" style="stroke:#181818;stroke-width:0.5;" width="15" x="587.7168" y="90.93"/><rect fill="#DDDDDD" height="2" style="stroke:#181818;stroke-width:0.5;" width="4" x="585.7168" y="92.93"/><rect fill="#DDDDDD" height="2" style="stroke:#181818;stroke-width:0.5;" width="4" x="585.7168" y="96.93"/><text fill="#000000" font-family="sans-serif" font-size="14" lengthAdjust="spacing" textLength="52.1445" x="445" y="120.4632">devtools</text><text fill="#000000" font-family="sans-serif" font-size="14" lengthAdjust="spacing" textLength="137.7168" x="445" y="138.0726">(graph UI, training viz)</text></g><g class="entity" data-entity="GMN26" data-source-line="35" data-uid="ent0027" id="entity_GMN26"><path d="M1117.5,105.43 L1117.5,131.7816 L1186.2026,131.7816 L1186.2026,115.43 L1176.2026,105.43 L1117.5,105.43" fill="#FEFFDD" style="stroke:#181818;stroke-width:0.5;"/><path d="M1176.2026,105.43 L1176.2026,115.43 L1186.2026,115.43 L1176.2026,105.43" fill="#FEFFDD" style="stroke:#181818;stroke-width:1;"/><text fill="#000000" font-family="sans-serif" font-size="13" lengthAdjust="spacing" textLength="47.7026" x="1123.5" y="123.9251">Phase 6</text></g><g class="entity" data-entity="GMN29" data-source-line="36" data-uid="ent0030" id="entity_GMN29"><path d="M1221.5,105.43 L1221.5,131.7816 L1290.2026,131.7816 L1290.2026,115.43 L1280.2026,105.43 L1221.5,105.43" fill="#FEFFDD" style="stroke:#181818;stroke-width:0.5;"/><path d="M1280.2026,105.43 L1280.2026,115.43 L1290.2026,115.43 L1280.2026,105.43" fill="#FEFFDD" style="stroke:#181818;stroke-width:1;"/><text fill="#000000" font-family="sans-serif" font-size="13" lengthAdjust="spacing" textLength="47.7026" x="1227.5" y="123.9251">Phase 5</text></g><!--link core to ir--><g class="link" data-entity-1="core" data-entity-2="ir" data-source-line="25" data-uid="lnk15" id="link_core_ir"><path d="M916.08,151.05 C876.31,180.34 822.3203,220.1008 782.6103,249.3608" fill="none" id="core-to-ir" style="stroke:#181818;stroke-width:1;"/><polygon fill="#181818" points="777.78,252.92,787.3983,250.8014,781.8053,249.954,782.6527,244.361,777.78,252.92" style="stroke:#181818;stroke-width:1;"/><text fill="#000000" font-family="sans-serif" font-size="13" lengthAdjust="spacing" textLength="73.709" x="869" y="197.4251">builds Graph</text></g><!--link runtime to ir--><g class="link" data-entity-1="runtime" data-entity-2="ir" data-source-line="26" data-uid="lnk16" id="link_runtime_ir"><path d="M455.03,285.43 C500.45,285.43 545.18,285.43 590.85,285.43" fill="none" id="runtime-to-ir" style="stroke:#181818;stroke-width:1;"/><polygon fill="#181818" points="596.85,285.43,587.85,281.43,591.85,285.43,587.85,289.43,596.85,285.43" style="stroke:#181818;stroke-width:1;"/><text fill="#000000" font-family="sans-serif" font-size="13" lengthAdjust="spacing" textLength="104.0698" x="474" y="278.9251">reads Node/Value</text></g><!--reverse link runtime to cpu--><g class="link" data-entity-1="runtime" data-entity-2="cpu" data-source-line="27" data-uid="lnk18" id="link_runtime_cpu"><path d="M225.8211,326.0514 C207.9011,335.0414 205.63,337.7 190,349.93 C164.84,369.62 141.94,397.85 126.27,419.54" fill="none" id="runtime-backto-cpu" style="stroke:#181818;stroke-width:1;stroke-dasharray:7.0,7.0;"/><polygon fill="none" points="241.91,317.98,223.1306,320.6884,228.5116,331.4144,241.91,317.98" style="stroke:#181818;stroke-width:1;"/><text fill="#000000" font-family="sans-serif" font-size="13" lengthAdjust="spacing" textLength="120.6689" x="191" y="364.4251">implements Backend</text></g><!--reverse link runtime to wasm--><g class="link" data-entity-1="runtime" data-entity-2="wasm" data-source-line="28" data-uid="lnk20" id="link_runtime_wasm"><path d="M320,336.24 C320,365.46 320,390.53 320,419.71" fill="none" id="runtime-backto-wasm" style="stroke:#181818;stroke-width:1;stroke-dasharray:7.0,7.0;"/><polygon fill="none" points="320,318.24,314,336.24,326,336.24,320,318.24" style="stroke:#181818;stroke-width:1;"/><text fill="#000000" font-family="sans-serif" font-size="13" lengthAdjust="spacing" textLength="120.6689" x="321" y="364.4251">implements Backend</text></g><!--reverse link runtime to webgpu--><g class="link" data-entity-1="runtime" data-entity-2="webgpu" data-source-line="29" data-uid="lnk22" id="link_runtime_webgpu"><path d="M411.0044,325.9098 C429.6844,335.1198 433.06,337.99 450,349.93 C478.67,370.13 506.86,398.32 526.65,419.86" fill="none" id="runtime-backto-webgpu" style="stroke:#181818;stroke-width:1;stroke-dasharray:7.0,7.0;"/><polygon fill="none" points="394.86,317.95,408.3511,331.2913,413.6577,320.5284,394.86,317.95" style="stroke:#181818;stroke-width:1;"/><text fill="#000000" font-family="sans-serif" font-size="13" lengthAdjust="spacing" textLength="120.6689" x="473" y="364.4251">implements Backend</text></g><!--link onnx to ir--><g class="link" data-entity-1="onnx" data-entity-2="ir" data-source-line="31" data-uid="lnk23" id="link_onnx_ir"><path d="M715.63,151.24 C719.88,180.46 725.2752,217.5926 729.5252,246.7726" fill="none" id="onnx-to-ir" style="stroke:#181818;stroke-width:1;stroke-dasharray:7.0,7.0;"/><polygon fill="#181818" points="730.39,252.71,733.0511,243.2275,729.6694,247.7622,725.1346,244.3805,730.39,252.71" style="stroke:#181818;stroke-width:1;"/><text fill="#000000" font-family="sans-serif" font-size="13" lengthAdjust="spacing" textLength="112.0171" x="724" y="197.4251">produces (planned)</text></g><!--link devtools to ir--><g class="link" data-entity-1="devtools" data-entity-2="ir" data-source-line="32" data-uid="lnk24" id="link_devtools_ir"><path d="M529.27,151.13 C535.91,167.64 545.97,187.19 560,200.93 C582.49,222.95 606.4242,237.5552 634.6942,250.3552" fill="none" id="devtools-to-ir" style="stroke:#181818;stroke-width:1;stroke-dasharray:7.0,7.0;"/><polygon fill="#181818" points="640.16,252.83,633.6111,245.4739,635.6051,250.7677,630.3114,252.7617,640.16,252.83" style="stroke:#181818;stroke-width:1;"/><text fill="#000000" font-family="sans-serif" font-size="13" lengthAdjust="spacing" textLength="151.7534" x="561" y="197.4251">visualizes graph (planned)</text></g><!--link devtools to runtime--><g class="link" data-entity-1="devtools" data-entity-2="runtime" data-source-line="33" data-uid="lnk25" id="link_devtools_runtime"><path d="M429.96,123.97 C388.29,131.11 342.19,147.3 316,182.93 C301.48,202.68 302.4972,225.0787 307.7472,246.7487" fill="none" id="devtools-to-runtime" style="stroke:#181818;stroke-width:1;stroke-dasharray:7.0,7.0;"/><polygon fill="#181818" points="309.16,252.58,310.9284,242.8912,307.9827,247.7206,303.1533,244.7749,309.16,252.58" style="stroke:#181818;stroke-width:1;"/><text fill="#000000" font-family="sans-serif" font-size="13" lengthAdjust="spacing" textLength="182.8315" x="317" y="197.4251">reads execution trace (planned)</text></g><!--link onnx to GMN26--><g class="link" data-entity-1="onnx" data-entity-2="GMN26" data-source-line="35" data-uid="lnk28" id="link_onnx_GMN26"><path d="M743.35,85.84 C766.93,64.52 800.86,38.54 836.5,26.93 C888.27,10.06 1030.44,8.04 1081.5,26.93 C1116.86,40.01 1138.31,83.23 1147.2,105.26" fill="none" id="onnx-GMN26" style="stroke:#181818;stroke-width:1;stroke-dasharray:7.0,7.0;"/></g><!--link devtools to GMN29--><g class="link" data-entity-1="devtools" data-entity-2="GMN29" data-source-line="36" data-uid="lnk31" id="link_devtools_GMN29"><path d="M551.04,85.84 C574.41,64.53 608.07,38.55 643.5,26.93 C700.83,8.13 1129.91,6 1186.5,26.93 C1221.67,39.94 1242.67,83.19 1251.34,105.25" fill="none" id="devtools-GMN29" style="stroke:#181818;stroke-width:1;stroke-dasharray:7.0,7.0;"/></g><!--SRC=[ZL9DQzmm5BphLpoIImBhRGvDAJa4McA7GDc6f6q2RG-ozDOMaIMXZyr7q__U9ylUPWk5s0TZQMRUQ4QEYplU8UnzIB6tNfbk3_RhkddRDF2B0NmNrkCFS_05JR1-0TQ51V0KRUUvN82mWrCQ_U5Fu04oblrcpCsYvvwx7ium2AzSLDQGUDCqx-kwY2jFqYihSG7Vk4xqAOmAFgzMjnNNgZCeYxZoEzBr0ueqIPBVfZagaZwPg8PikJQTCYJvaIXe92WJqQ-ve2MjrYWUXSOYFN5sz2TMA8wFPlcsB5V2fPpAeyFhyMnmXzwW3bCGBhq4t_Cm4FegXGWRnI7_LwqoiaDJ27bbXu5jDqwuER_-DAQS8aBekKG_pIYG7S-NcXlAAri-pc-nR8rv82NdRRHjMaDr2XTNHIDlmVxP-6Ien4sqLWU2TsCHNoyM43rNXYu6MNygj1csfPA9t3rKqjuRqbSUJg1DIijG6cLJn51vrVLnXdZaXCWNuCtOFwFWO9dSylbqBeLGQd0Q1pGnp5sodDVhW6DAhuAoCOtbSl96USaaCC21Ax4Uiksvjw2D2ebkwHF1Ic3_0VyTN8wCy-tDwGfyGMF6KjDZIc3NfQ4JkEnvG7Ztp-Psn0muPdy0]--></g></svg>