<svg xmlns="http://www.w3.org/2000/svg" xmlns:xlink="http://www.w3.org/1999/xlink" contentStyleType="text/css" data-diagram-type="DESCRIPTION" height="649px" preserveAspectRatio="none" style="width:1107px;height:649px;background:#FFFFFF;" version="1.1" viewBox="0 0 1107 649" width="1107px" zoomAndPan="magnify"><defs/><g><!--cluster React App--><g class="cluster" data-entity="React App" data-source-line="2" data-uid="ent0002" id="cluster_React App"><path d="M62.5,6 L132.7344,6 A3.75,3.75 0 0 1 135.2344,8.5 L142.2344,29.6094 L379.5,29.6094 A2.5,2.5 0 0 1 382,32.1094 L382,120.5 A2.5,2.5 0 0 1 379.5,123 L62.5,123 A2.5,2.5 0 0 1 60,120.5 L60,8.5 A2.5,2.5 0 0 1 62.5,6" fill="#E8F0FF" style="stroke:#000000;stroke-width:1.5;"/><line style="stroke:#000000;stroke-width:1.5;" x1="60" x2="142.2344" y1="29.6094" y2="29.6094"/><text fill="#000000" font-family="sans-serif" font-size="14" font-weight="bold" lengthAdjust="spacing" textLength="69.2344" x="64" y="22.5332">React App</text></g><!--cluster Authoring--><g class="cluster" data-entity="Authoring" data-source-line="6" data-uid="ent0004" id="cluster_Authoring"><path d="M8.5,358 L76.3691,358 A3.75,3.75 0 0 1 78.8691,360.5 L85.8691,381.6094 L313.5,381.6094 A2.5,2.5 0 0 1 316,384.1094 L316,472.5 A2.5,2.5 0 0 1 313.5,475 L8.5,475 A2.5,2.5 0 0 1 6,472.5 L6,360.5 A2.5,2.5 0 0 1 8.5,358" fill="#EEF4FF" style="stroke:#000000;stroke-width:1.5;"/><line style="stroke:#000000;stroke-width:1.5;" x1="6" x2="85.8691" y1="381.6094" y2="381.6094"/><text fill="#000000" font-family="sans-serif" font-size="14" font-weight="bold" lengthAdjust="spacing" textLength="66.8691" x="10" y="374.5332">Authoring</text></g><!--cluster Import--><g class="cluster" data-entity="Import" data-source-line="10" data-uid="ent0006" id="cluster_Import"><path d="M742.5,358 L787.0518,358 A3.75,3.75 0 0 1 789.5518,360.5 L796.5518,381.6094 L939.5,381.6094 A2.5,2.5 0 0 1 942,384.1094 L942,472.5 A2.5,2.5 0 0 1 939.5,475 L742.5,475 A2.5,2.5 0 0 1 740,472.5 L740,360.5 A2.5,2.5 0 0 1 742.5,358" fill="#FFF0F8" style="stroke:#000000;stroke-width:1.5;"/><line style="stroke:#000000;stroke-width:1.5;" x1="740" x2="796.5518" y1="381.6094" y2="381.6094"/><text fill="#000000" font-family="sans-serif" font-size="14" font-weight="bold" lengthAdjust="spacing" textLength="43.5518" x="744" y="374.5332">Import</text></g><!--cluster Graph--><g class="cluster" data-entity="Graph" data-source-line="14" data-uid="ent0008" id="cluster_Graph"><path d="M316.5,525 L358.7275,525 A3.75,3.75 0 0 1 361.2275,527.5 L368.2275,548.6094 L567.5,548.6094 A2.5,2.5 0 0 1 570,551.1094 L570,639.5 A2.5,2.5 0 0 1 567.5,642 L316.5,642 A2.5,2.5 0 0 1 314,639.5 L314,527.5 A2.5,2.5 0 0 1 316.5,525" fill="#FFF8EE" style="stroke:#000000;stroke-width:1.5;"/><line style="stroke:#000000;stroke-width:1.5;" x1="314" x2="368.2275" y1="548.6094" y2="548.6094"/><text fill="#000000" font-family="sans-serif" font-size="14" font-weight="bold" lengthAdjust="spacing" textLength="41.2275" x="318" y="541.5332">Graph</text></g><!--cluster Execution--><g class="cluster" data-entity="Execution" data-source-line="18" data-uid="ent0010" id="cluster_Execution"><path d="M476.5,358 L544.4033,358 A3.75,3.75 0 0 1 546.9033,360.5 L553.9033,381.6094 L713.5,381.6094 A2.5,2.5 0 0 1 716,384.1094 L716,472.5 A2.5,2.5 0 0 1 713.5,475 L476.5,475 A2.5,2.5 0 0 1 474,472.5 L474,360.5 A2.5,2.5 0 0 1 476.5,358" fill="#EEFFF0" style="stroke:#000000;stroke-width:1.5;"/><line style="stroke:#000000;stroke-width:1.5;" x1="474" x2="553.9033" y1="381.6094" y2="381.6094"/><text fill="#000000" font-family="sans-serif" font-size="14" font-weight="bold" lengthAdjust="spacing" textLength="66.9033" x="478" y="374.5332">Execution</text></g><!--cluster Backends--><g class="cluster" data-entity="Backends" data-source-line="22" data-uid="ent0012" id="cluster_Backends"><path d="M492.5,182 L559.6445,182 A3.75,3.75 0 0 1 562.1445,184.5 L569.1445,205.6094 L1097.5,205.6094 A2.5,2.5 0 0 1 1100,208.1094 L1100,296.5 A2.5,2.5 0 0 1 1097.5,299 L492.5,299 A2.5,2.5 0 0 1 490,296.5 L490,184.5 A2.5,2.5 0 0 1 492.5,182" fill="#FFF0F0" style="stroke:#000000;stroke-width:1.5;"/><line style="stroke:#000000;stroke-width:1.5;" x1="490" x2="569.1445" y1="205.6094" y2="205.6094"/><text fill="#000000" font-family="sans-serif" font-size="14" font-weight="bold" lengthAdjust="spacing" textLength="66.1445" x="494" y="198.5332">Backends</text></g><!--cluster Visualization--><g class="cluster" data-entity="Visualization" data-source-line="28" data-uid="ent0016" id="cluster_Visualization"><path d="M200.5,173 L287.0723,173 A3.75,3.75 0 0 1 289.5723,175.5 L296.5723,196.6094 L463.5,196.6094 A2.5,2.5 0 0 1 466,199.1094 L466,305.5 A2.5,2.5 0 0 1 463.5,308 L200.5,308 A2.5,2.5 0 0 1 198,305.5 L198,175.5 A2.5,2.5 0 0 1 200.5,173" fill="#F0F4FF" style="stroke:#000000;stroke-width:1.5;"/><line style="stroke:#000000;stroke-width:1.5;" x1="198" x2="296.5723" y1="196.6094" y2="196.6094"/><text fill="#000000" font-family="sans-serif" font-size="14" font-weight="bold" lengthAdjust="spacing" textLength="85.5723" x="202" y="189.5332">Visualization</text></g><!--entity usercode--><g class="entity" data-entity="usercode" data-source-line="3" data-uid="ent0003" id="entity_usercode"><rect fill="#F1F1F1" height="65.2188" rx="2.5" ry="2.5" style="stroke:#181818;stroke-width:0.5;" width="288.8828" x="76.5" y="42"/><rect fill="#F1F1F1" height="10" style="stroke:#181818;stroke-width:0.5;" width="15" x="345.3828" y="47"/><rect fill="#F1F1F1" height="2" style="stroke:#181818;stroke-width:0.5;" width="4" x="343.3828" y="49"/><rect fill="#F1F1F1" height="2" style="stroke:#181818;stroke-width:0.5;" width="4" x="343.3828" y="53"/><text fill="#000000" font-family="sans-serif" font-size="14" lengthAdjust="spacing" textLength="63.8066" x="91.5" y="76.5332">User code</text><text fill="#000000" font-family="sans-serif" font-size="14" lengthAdjust="spacing" textLength="248.8828" x="91.5" y="94.1426">(import { tensor, train } from 'webtensor')</text></g><!--entity core--><g class="entity" data-entity="core" data-source-line="7" data-uid="ent0005" id="entity_core"><rect fill="#F1F1F1" height="65.2188" rx="2.5" ry="2.5" style="stroke:#181818;stroke-width:0.5;" width="277.3301" x="22.5" y="394"/><rect fill="#F1F1F1" height="10" style="stroke:#181818;stroke-width:0.5;" width="15" x="279.8301" y="399"/><rect fill="#F1F1F1" height="2" style="stroke:#181818;stroke-width:0.5;" width="4" x="277.8301" y="401"/><rect fill="#F1F1F1" height="2" style="stroke:#181818;stroke-width:0.5;" width="4" x="277.8301" y="405"/><text fill="#000000" font-family="sans-serif" font-size="14" lengthAdjust="spacing" textLength="27.2344" x="37.5" y="428.5332">core</text><text fill="#000000" font-family="sans-serif" font-size="14" lengthAdjust="spacing" textLength="237.3301" x="37.5" y="446.1426">Tensor API - autograd - optimizer loop</text></g><!--entity onnx--><g class="entity" data-entity="onnx" data-source-line="11" data-uid="ent0007" id="entity_onnx"><rect fill="#F1F1F1" height="65.2188" rx="2.5" ry="2.5" style="stroke:#181818;stroke-width:0.5;" width="169.5615" x="756" y="394"/><rect fill="#F1F1F1" height="10" style="stroke:#181818;stroke-width:0.5;" width="15" x="905.5615" y="399"/><rect fill="#F1F1F1" height="2" style="stroke:#181818;stroke-width:0.5;" width="4" x="903.5615" y="401"/><rect fill="#F1F1F1" height="2" style="stroke:#181818;stroke-width:0.5;" width="4" x="903.5615" y="405"/><text fill="#000000" font-family="sans-serif" font-size="14" lengthAdjust="spacing" textLength="30.3584" x="771" y="428.5332">onnx</text><text fill="#000000" font-family="sans-serif" font-size="14" lengthAdjust="spacing" textLength="129.5615" x="771" y="446.1426">protobuf parser -&gt; IR</text></g><!--entity ir--><g class="entity" data-entity="ir" data-source-line="15" data-uid="ent0009" id="entity_ir"><rect fill="#F1F1F1" height="65.2188" rx="2.5" ry="2.5" style="stroke:#181818;stroke-width:0.5;" width="222.8682" x="330.5" y="561"/><rect fill="#F1F1F1" height="10" style="stroke:#181818;stroke-width:0.5;" width="15" x="533.3682" y="566"/><rect fill="#F1F1F1" height="2" style="stroke:#181818;stroke-width:0.5;" width="4" x="531.3682" y="568"/><rect fill="#F1F1F1" height="2" style="stroke:#181818;stroke-width:0.5;" width="4" x="531.3682" y="572"/><text fill="#000000" font-family="sans-serif" font-size="14" lengthAdjust="spacing" textLength="7.7725" x="345.5" y="595.5332">ir</text><text fill="#000000" font-family="sans-serif" font-size="14" lengthAdjust="spacing" textLength="182.8682" x="345.5" y="613.1426">ONNX-aligned graph schema</text></g><!--entity runtime--><g class="entity" data-entity="runtime" data-source-line="19" data-uid="ent0011" id="entity_runtime"><rect fill="#F1F1F1" height="65.2188" rx="2.5" ry="2.5" style="stroke:#181818;stroke-width:0.5;" width="210.0645" x="490" y="394"/><rect fill="#F1F1F1" height="10" style="stroke:#181818;stroke-width:0.5;" width="15" x="680.0645" y="399"/><rect fill="#F1F1F1" height="2" style="stroke:#181818;stroke-width:0.5;" width="4" x="678.0645" y="401"/><rect fill="#F1F1F1" height="2" style="stroke:#181818;stroke-width:0.5;" width="4" x="678.0645" y="405"/><text fill="#000000" font-family="sans-serif" font-size="14" lengthAdjust="spacing" textLength="46.6826" x="505" y="428.5332">runtime</text><text fill="#000000" font-family="sans-serif" font-size="14" lengthAdjust="spacing" textLength="170.0645" x="505" y="446.1426">Engine + Backend dispatch</text></g><!--entity cpu--><g class="entity" data-entity="cpu" data-source-line="23" data-uid="ent0013" id="entity_cpu"><rect fill="#F1F1F1" height="65.2188" rx="2.5" ry="2.5" style="stroke:#181818;stroke-width:0.5;" width="180.8203" x="506.5" y="218"/><rect fill="#F1F1F1" height="10" style="stroke:#181818;stroke-width:0.5;" width="15" x="667.3203" y="223"/><rect fill="#F1F1F1" height="2" style="stroke:#181818;stroke-width:0.5;" width="4" x="665.3203" y="225"/><rect fill="#F1F1F1" height="2" style="stroke:#181818;stroke-width:0.5;" width="4" x="665.3203" y="229"/><text fill="#000000" font-family="sans-serif" font-size="14" lengthAdjust="spacing" textLength="80.165" x="521.5" y="252.5332">backend-cpu</text><text fill="#000000" font-family="sans-serif" font-size="14" lengthAdjust="spacing" textLength="140.8203" x="521.5" y="270.1426">(correctness / Node.js)</text></g><!--entity wasm--><g class="entity" data-entity="wasm" data-source-line="24" data-uid="ent0014" id="entity_wasm"><rect fill="#F1F1F1" height="65.2188" rx="2.5" ry="2.5" style="stroke:#181818;stroke-width:0.5;" width="134.1514" x="723" y="218"/><rect fill="#F1F1F1" height="10" style="stroke:#181818;stroke-width:0.5;" width="15" x="837.1514" y="223"/><rect fill="#F1F1F1" height="2" style="stroke:#181818;stroke-width:0.5;" width="4" x="835.1514" y="225"/><rect fill="#F1F1F1" height="2" style="stroke:#181818;stroke-width:0.5;" width="4" x="835.1514" y="229"/><text fill="#000000" font-family="sans-serif" font-size="14" lengthAdjust="spacing" textLength="94.1514" x="738" y="252.5332">backend-wasm</text><text fill="#000000" font-family="sans-serif" font-size="14" lengthAdjust="spacing" textLength="92.5654" x="738" y="270.1426">(browser CPU)</text></g><!--entity webgpu--><g class="entity" data-entity="webgpu" data-source-line="25" data-uid="ent0015" id="entity_webgpu"><rect fill="#F1F1F1" height="65.2188" rx="2.5" ry="2.5" style="stroke:#181818;stroke-width:0.5;" width="192.4551" x="892" y="218"/><rect fill="#F1F1F1" height="10" style="stroke:#181818;stroke-width:0.5;" width="15" x="1064.4551" y="223"/><rect fill="#F1F1F1" height="2" style="stroke:#181818;stroke-width:0.5;" width="4" x="1062.4551" y="225"/><rect fill="#F1F1F1" height="2" style="stroke:#181818;stroke-width:0.5;" width="4" x="1062.4551" y="229"/><text fill="#000000" font-family="sans-serif" font-size="14" lengthAdjust="spacing" textLength="106.6338" x="907" y="252.5332">backend-webgpu</text><text fill="#000000" font-family="sans-serif" font-size="14" lengthAdjust="spacing" textLength="152.4551" x="907" y="270.1426">(browser GPU - primary)</text></g><!--entity devtools--><g class="entity" data-entity="devtools" data-source-line="29" data-uid="ent0017" id="entity_devtools"><rect fill="#F1F1F1" height="82.8281" rx="2.5" ry="2.5" style="stroke:#181818;stroke-width:0.5;" width="235.3027" x="214.5" y="209"/><rect fill="#F1F1F1" height="10" style="stroke:#181818;stroke-width:0.5;" width="15" x="429.8027" y="214"/><rect fill="#F1F1F1" height="2" style="stroke:#181818;stroke-width:0.5;" width="4" x="427.8027" y="216"/><rect fill="#F1F1F1" height="2" style="stroke:#181818;stroke-width:0.5;" width="4" x="427.8027" y="220"/><text fill="#000000" font-family="sans-serif" font-size="14" lengthAdjust="spacing" textLength="52.1445" x="229.5" y="243.5332">devtools</text><text fill="#000000" font-family="sans-serif" font-size="14" lengthAdjust="spacing" textLength="189.0889" x="229.5" y="261.1426">Graph view - weight heatmaps</text><text fill="#000000" font-family="sans-serif" font-size="14" lengthAdjust="spacing" textLength="195.3027" x="229.5" y="278.752">activation inspector - loss curve</text></g><!--link usercode to core--><g class="link" data-entity-1="usercode" data-entity-2="core" data-source-line="32" data-uid="lnk18" id="link_usercode_core"><path d="M211.94,107.2 C207.31,124.23 201.85,145.65 198,165 C181.74,246.76 170.523,338.3767 165.043,387.6667" fill="none" id="usercode-to-core" style="stroke:#181818;stroke-width:1;"/><polygon fill="#181818" points="164.38,393.63,169.35,385.1271,164.9325,388.6606,161.399,384.2431,164.38,393.63" style="stroke:#181818;stroke-width:1;"/></g><!--link usercode to devtools--><g class="link" data-entity-1="usercode" data-entity-2="devtools" data-source-line="33" data-uid="lnk19" id="link_usercode_devtools"><path d="M241.1,107.01 C259.28,135.51 282.9336,172.5813 302.7436,203.6413" fill="none" id="usercode-to-devtools" style="stroke:#181818;stroke-width:1;"/><polygon fill="#181818" points="305.97,208.7,304.5028,198.961,303.2813,204.4844,297.7579,203.2629,305.97,208.7" style="stroke:#181818;stroke-width:1;"/><text fill="#000000" font-family="sans-serif" font-size="13" lengthAdjust="spacing" textLength="164.7534" x="270" y="153.4951">subscribes to training events</text></g><!--link core to ir--><g class="link" data-entity-1="core" data-entity-2="ir" data-source-line="34" data-uid="lnk20" id="link_core_ir"><path d="M203.4,459.14 C225.22,474.87 252.52,493.74 278,509 C308.97,527.55 339.1771,543.3497 369.2571,558.1597" fill="none" id="core-to-ir" style="stroke:#181818;stroke-width:1;"/><polygon fill="#181818" points="374.64,560.81,368.3325,553.2459,370.1542,558.6014,364.7987,560.4232,374.64,560.81" style="stroke:#181818;stroke-width:1;"/><text fill="#000000" font-family="sans-serif" font-size="13" lengthAdjust="spacing" textLength="65.749" x="279" y="505.4951">compiles to</text></g><!--link onnx to ir--><g class="link" data-entity-1="onnx" data-entity-2="ir" data-source-line="35" data-uid="lnk21" id="link_onnx_ir"><path d="M771.12,459.08 C753.21,467.02 733.94,475.44 716,483 C651.57,510.17 583.5355,537.2987 528.8355,558.7587" fill="none" id="onnx-to-ir" style="stroke:#181818;stroke-width:1;"/><polygon fill="#181818" points="523.25,560.95,533.0892,561.3867,527.9046,559.1239,530.1674,553.9393,523.25,560.95" style="stroke:#181818;stroke-width:1;"/><text fill="#000000" font-family="sans-serif" font-size="13" lengthAdjust="spacing" textLength="53.4727" x="694" y="505.4951">parses to</text></g><!--link runtime to ir--><g class="link" data-entity-1="runtime" data-entity-2="ir" data-source-line="36" data-uid="lnk22" id="link_runtime_ir"><path d="M565.5,459.31 C538.41,488.53 502.5498,527.2006 475.4898,556.3806" fill="none" id="runtime-to-ir" style="stroke:#181818;stroke-width:1;"/><polygon fill="#181818" points="471.41,560.78,480.4627,556.9007,474.8098,557.1138,474.5968,551.461,471.41,560.78" style="stroke:#181818;stroke-width:1;"/><text fill="#000000" font-family="sans-serif" font-size="13" lengthAdjust="spacing" textLength="52.0317" x="533" y="505.4951">executes</text></g><!--link cpu to runtime--><g class="link" data-entity-1="cpu" data-entity-2="runtime" data-source-line="37" data-uid="lnk23" id="link_cpu_runtime"><path d="M596.64,283.01 C596.28,314.45 595.926,344.4712 595.566,375.9312" fill="none" id="cpu-to-runtime" style="stroke:#181818;stroke-width:1;stroke-dasharray:7.0,7.0;"/><polygon fill="none" points="595.36,393.93,601.5656,375.9998,589.5664,375.8625,595.36,393.93" style="stroke:#181818;stroke-width:1;"/></g><!--link wasm to runtime--><g class="link" data-entity-1="wasm" data-entity-2="runtime" data-source-line="38" data-uid="lnk24" id="link_wasm_runtime"><path d="M754.69,283.01 C719.46,314.45 679.0594,350.4845 643.8094,381.9445" fill="none" id="wasm-to-runtime" style="stroke:#181818;stroke-width:1;stroke-dasharray:7.0,7.0;"/><polygon fill="none" points="630.38,393.93,647.8045,386.421,639.8142,377.4681,630.38,393.93" style="stroke:#181818;stroke-width:1;"/></g><!--link webgpu to runtime--><g class="link" data-entity-1="webgpu" data-entity-2="runtime" data-source-line="39" data-uid="lnk25" id="link_webgpu_runtime"><path d="M939.4,283.1 C919.97,294.7 897,307.14 875,316 C817.6,339.1 797.83,328.01 740,350 C708.56,361.95 690.8984,370.2849 664.0884,385.1649" fill="none" id="webgpu-to-runtime" style="stroke:#181818;stroke-width:1;stroke-dasharray:7.0,7.0;"/><polygon fill="none" points="648.35,393.9,667.0001,390.4111,661.1767,379.9188,648.35,393.9" style="stroke:#181818;stroke-width:1;"/></g><!--link devtools to runtime--><g class="link" data-entity-1="devtools" data-entity-2="runtime" data-source-line="40" data-uid="lnk26" id="link_devtools_runtime"><path d="M389.19,292.19 C411.72,307.98 437.92,326.07 462,342 C488.61,359.6 513.5722,375.3857 538.3822,390.7857" fill="none" id="devtools-to-runtime" style="stroke:#181818;stroke-width:1;"/><polygon fill="#181818" points="543.48,393.95,537.9429,385.8051,539.2319,391.3131,533.7238,392.6021,543.48,393.95" style="stroke:#181818;stroke-width:1;"/><text fill="#000000" font-family="sans-serif" font-size="13" lengthAdjust="spacing" textLength="124.2935" x="463" y="338.4951">reads execution trace</text></g><!--link devtools to ir--><g class="link" data-entity-1="devtools" data-entity-2="ir" data-source-line="41" data-uid="lnk27" id="link_devtools_ir"><path d="M340.31,292.29 C350.35,339.05 368.81,417.66 392,483 C401.5,509.79 412.3698,533.637 422.9598,555.147" fill="none" id="devtools-to-ir" style="stroke:#181818;stroke-width:1;"/><polygon fill="#181818" points="425.61,560.53,425.2234,550.6887,423.4015,556.0442,418.0461,554.2223,425.61,560.53" style="stroke:#181818;stroke-width:1;"/><text fill="#000000" font-family="sans-serif" font-size="13" lengthAdjust="spacing" textLength="80.939" x="393" y="431.9951">renders graph</text></g><!--SRC=[NP9DRzGm48Rl-HMZSYW8id3WiEgXqeAIQY_Bgc8H4il1SQQ9OMDROtktjFI_CxQJBUdD6h_ppDThXVmjEeIBMnJImyhQ2tXLBUiFTGsF1S2FdKC2QLhSwzTgi8OyF897xGoz0qz2QNY2Ep83N9wmoH-NRtw2S10uDMOMJqLXfpghu7j3IdUnJbL_dEf8GrpYQyg7rNOD9OZWJKUYvQUnNWtgWLiv66CJFIRCoElK7MFhcjjVPgpH-dwlBHblcd07Lb2Sfxo6zMsYnFyPvOQ4xJDaMLKPecYllsmstqjnK9t65hee0YTx74J2A9f1gdkKmIkZyv3SJmPHq3m7prdfJcc4j_29Kr2tq2fdXPTzeeso6N8Kkcc-aTZaS2bju0FnJWYbr-WSl8SDxtxno-LZiE1__KcuWHCQCgUuaC_RNPR5-4o7JPVGa_9ck-DxM5A3e3zZJjBCklscNE1bFOXn2Tpm-T8j7hqn1xVNQTTmL7XYv0bLrtleKVX1MFvbFwfZ0e3Ipl9Sx8oI3S33oK17JCKdMYm_6GvAFd3onomoIU4AN6YS9DMW0s-oZTcIW4VKtXKnDMKeOgqqWrM7f2oYNPv_afjIVBpOynSc1o2pR835uk_r-QXnmoyYQN_psBdNI9peLq0eMZV2usAuS_b2dCeJtmx9PQCM_m00]--></g></svg>