<?xml version="1.0" encoding="utf-8" ?>
<svg baseProfile="full" height="180" version="1.1" width="1000" xmlns="http://www.w3.org/2000/svg" xmlns:ev="http://www.w3.org/2001/xml-events" xmlns:xlink="http://www.w3.org/1999/xlink"><defs /><g transform="matrix(1, 0.5, -1, 0.5, 90, 7)"><rect fill="#F05032" height="22.666666666666668" width="22.666666666666668" x="0.0" y="0.0" /><rect fill="#F05032" height="22.666666666666668" width="22.666666666666668" x="28.666666666666668" y="0.0" /><rect fill="#F05032" height="22.666666666666668" width="22.666666666666668" x="57.333333333333336" y="0.0" /><rect fill="#F05032" height="22.666666666666668" width="22.666666666666668" x="0.0" y="28.666666666666668" /><rect fill="#F05032" height="22.666666666666668" width="22.666666666666668" x="28.666666666666668" y="28.666666666666668" /><rect fill="#F05032" height="22.666666666666668" width="22.666666666666668" x="57.333333333333336" y="28.666666666666668" /><rect fill="#F05032" height="22.666666666666668" width="22.666666666666668" x="0.0" y="57.333333333333336" /><rect fill="#F05032" height="22.666666666666668" width="22.666666666666668" x="28.666666666666668" y="57.333333333333336" /><rect fill="#F05032" height="22.666666666666668" width="22.666666666666668" x="57.333333333333336" y="57.333333333333336" /></g><g transform="matrix(1, -0.5, 0, 1, 93, 91.5)"><rect fill="#015a9c" height="22.666666666666668" width="22.666666666666668" x="0.0" y="0.0" /><rect fill="#015a9c" height="22.666666666666668" width="22.666666666666668" x="28.666666666666668" y="0.0" /><rect fill="#015a9c" height="22.666666666666668" width="22.666666666666668" x="57.333333333333336" y="0.0" /><rect fill="#015a9c" height="22.666666666666668" width="22.666666666666668" x="0.0" y="28.666666666666668" /><rect fill="#015a9c" height="22.666666666666668" width="22.666666666666668" x="28.666666666666668" y="28.666666666666668" /><rect fill="#015a9c" height="22.666666666666668" width="22.666666666666668" x="57.333333333333336" y="28.666666666666668" /><rect fill="#015a9c" height="22.666666666666668" width="22.666666666666668" x="0.0" y="57.333333333333336" /><rect fill="#015a9c" height="22.666666666666668" width="22.666666666666668" x="28.666666666666668" y="57.333333333333336" /><rect fill="#015a9c" height="22.666666666666668" width="22.666666666666668" x="57.333333333333336" y="57.333333333333336" /></g><g transform="matrix(1, 0.5, 0, 1, 7, 51.5)"><rect fill="#008df3" height="14.0" width="14.0" x="1.0" y="1.0" /><rect fill="#008df3" height="14.0" width="14.0" x="65.0" y="1.0" /><rect fill="#008df3" height="14.0" width="14.0" x="1.0" y="17.0" /><rect fill="#008df3" height="14.0" width="14.0" x="33.0" y="17.0" /><rect fill="#008df3" height="14.0" width="14.0" x="65.0" y="17.0" /><rect fill="#008df3" height="14.0" width="14.0" x="1.0" y="33.0" /><rect fill="#008df3" height="14.0" width="14.0" x="33.0" y="33.0" /><rect fill="#008df3" height="14.0" width="14.0" x="65.0" y="33.0" /><rect fill="#008df3" height="14.0" width="14.0" x="1.0" y="49.0" /><rect fill="#008df3" height="14.0" width="14.0" x="17.0" y="49.0" /><rect fill="#008df3" height="14.0" width="14.0" x="33.0" y="49.0" /><rect fill="#008df3" height="14.0" width="14.0" x="49.0" y="49.0" /><rect fill="#008df3" height="14.0" width="14.0" x="65.0" y="49.0" /><rect fill="#008df3" height="14.0" width="14.0" x="17.0" y="65.0" /><rect fill="#008df3" height="14.0" width="14.0" x="49.0" y="65.0" /></g><text fill="#015a9c" style="font-size:160px; font-family:sans-serif; font-weight:bold; letter-spacing: -4px;" x="202" y="145">webtensor</text></svg>