<?xml version="1.0" encoding="utf-8" ?>
<svg baseProfile="full" height="180" version="1.1" width="180" xmlns="http://www.w3.org/2000/svg" xmlns:ev="http://www.w3.org/2001/xml-events" xmlns:xlink="http://www.w3.org/1999/xlink"><defs /><polygon fill="#F05032" points="90,87 10,47.0 90,7 170,47.0" /><polygon fill="#015a9c" points="93,91.5 173,51.5 173,131.5 93,171.5" /><g transform="matrix(1, 0.5, 0, 1, 7, 51.5)"><rect fill="#008df3" height="14.0" width="14.0" x="1.0" y="1.0" /><rect fill="#008df3" height="14.0" width="14.0" x="65.0" y="1.0" /><rect fill="#008df3" height="14.0" width="14.0" x="1.0" y="17.0" /><rect fill="#008df3" height="14.0" width="14.0" x="33.0" y="17.0" /><rect fill="#008df3" height="14.0" width="14.0" x="65.0" y="17.0" /><rect fill="#008df3" height="14.0" width="14.0" x="1.0" y="33.0" /><rect fill="#008df3" height="14.0" width="14.0" x="33.0" y="33.0" /><rect fill="#008df3" height="14.0" width="14.0" x="65.0" y="33.0" /><rect fill="#008df3" height="14.0" width="14.0" x="1.0" y="49.0" /><rect fill="#008df3" height="14.0" width="14.0" x="17.0" y="49.0" /><rect fill="#008df3" height="14.0" width="14.0" x="33.0" y="49.0" /><rect fill="#008df3" height="14.0" width="14.0" x="49.0" y="49.0" /><rect fill="#008df3" height="14.0" width="14.0" x="65.0" y="49.0" /><rect fill="#008df3" height="14.0" width="14.0" x="17.0" y="65.0" /><rect fill="#008df3" height="14.0" width="14.0" x="49.0" y="65.0" /></g></svg>