<svg xmlns="http://www.w3.org/2000/svg" xmlns:xlink="http://www.w3.org/1999/xlink" contentStyleType="text/css" data-diagram-type="SEQUENCE" height="896px" preserveAspectRatio="none" style="width:643px;height:896px;background:#FAFAFA;" version="1.1" viewBox="0 0 643 896" width="643px" zoomAndPan="magnify"><title>Autograd Backward Pass &#8212; Eager Graph Construction</title><defs/><g><rect fill="#FAFAFA" height="896" style="stroke:none;stroke-width:1;" width="643" x="0" y="0"/><text fill="#000000" font-family="Segoe UI" font-size="14" font-weight="bold" lengthAdjust="spacing" textLength="353.9307" x="146.0806" y="30.1074">Autograd Backward Pass &#8212; Eager Graph Construction</text><rect fill="none" height="333.123" style="stroke:#000000;stroke-width:1.5;" width="565.8687" x="71.2231" y="339.9883"/><rect fill="none" height="144.7949" style="stroke:#000000;stroke-width:1.5;" width="522.0874" x="81.2231" y="521.3164"/><rect fill="none" height="111.5039" style="stroke:#000000;stroke-width:1.5;" width="502.0874" x="91.2231" y="547.6074"/><g><title>User</title><rect fill="#000000" fill-opacity="0.00000" height="690.6152" width="8" x="17.8735" y="123.2422"/><line style="stroke:#181818;stroke-width:0.5;stroke-dasharray:5.0,5.0;" x1="21" x2="21" y1="123.2422" y2="813.8574"/></g><g><title>loss</title><rect fill="#000000" fill-opacity="0.00000" height="690.6152" width="8" x="129.2427" y="123.2422"/><line style="stroke:#181818;stroke-width:0.5;stroke-dasharray:5.0,5.0;" x1="133.2231" x2="133.2231" y1="123.2422" y2="813.8574"/></g><g><title>buildTopo()</title><rect fill="#000000" fill-opacity="0.00000" height="690.6152" width="8" x="309.71" y="123.2422"/><line style="stroke:#181818;stroke-width:0.5;stroke-dasharray:5.0,5.0;" x1="312.9102" x2="312.9102" y1="123.2422" y2="813.8574"/></g><g><title>_ctx.backward()</title><rect fill="#000000" fill-opacity="0.00000" height="690.6152" width="8" x="416.541" y="123.2422"/><line style="stroke:#181818;stroke-width:0.5;stroke-dasharray:5.0,5.0;" x1="420.5098" x2="420.5098" y1="123.2422" y2="813.8574"/></g><g><title>add()</title><rect fill="#000000" fill-opacity="0.00000" height="690.6152" width="8" x="529.9414" y="123.2422"/><line style="stroke:#181818;stroke-width:0.5;stroke-dasharray:5.0,5.0;" x1="533.5723" x2="533.5723" y1="123.2422" y2="813.8574"/></g><g class="participant participant-head" data-participant="User"><text fill="#000000" font-family="Segoe UI" font-size="14" lengthAdjust="spacing" textLength="27.7471" x="5" y="119.7285">User</text><ellipse cx="21.8735" cy="53.1211" fill="#E2E2F0" rx="8" ry="8" style="stroke:#181818;stroke-width:0.5;"/><path d="M21.8735,61.1211 L21.8735,88.1211 M8.8735,69.1211 L34.8735,69.1211 M21.8735,88.1211 L8.8735,103.1211 M21.8735,88.1211 L34.8735,103.1211" fill="none" style="stroke:#181818;stroke-width:0.5;"/></g><g class="participant participant-tail" data-participant="User"><text fill="#000000" font-family="Segoe UI" font-size="14" lengthAdjust="spacing" textLength="27.7471" x="5" y="827.9648">User</text><ellipse cx="21.8735" cy="839.9785" fill="#E2E2F0" rx="8" ry="8" style="stroke:#181818;stroke-width:0.5;"/><path d="M21.8735,847.9785 L21.8735,874.9785 M8.8735,855.9785 L34.8735,855.9785 M21.8735,874.9785 L8.8735,889.9785 M21.8735,874.9785 L34.8735,889.9785" fill="none" style="stroke:#181818;stroke-width:0.5;"/></g><g class="participant participant-head" data-participant="Loss"><rect fill="#E2E2F0" height="51.2422" rx="2.5" ry="2.5" style="stroke:#181818;stroke-width:0.5;" width="64.0391" x="101.2231" y="71"/><text fill="#000000" font-family="Segoe UI" font-size="14" lengthAdjust="spacing" textLength="23.4746" x="121.5054" y="93.1074">loss</text><text fill="#000000" font-family="Segoe UI" font-size="14" lengthAdjust="spacing" textLength="50.0391" x="108.2231" y="111.7285">(Tensor)</text></g><g class="participant participant-tail" data-participant="Loss"><rect fill="#E2E2F0" height="51.2422" rx="2.5" ry="2.5" style="stroke:#181818;stroke-width:0.5;" width="64.0391" x="101.2231" y="812.8574"/><text fill="#000000" font-family="Segoe UI" font-size="14" lengthAdjust="spacing" textLength="23.4746" x="121.5054" y="834.9648">loss</text><text fill="#000000" font-family="Segoe UI" font-size="14" lengthAdjust="spacing" textLength="50.0391" x="108.2231" y="853.5859">(Tensor)</text></g><g class="participant participant-head" data-participant="Topo"><rect fill="#E2E2F0" height="32.6211" rx="2.5" ry="2.5" style="stroke:#181818;stroke-width:0.5;" width="85.5996" x="270.9102" y="89.6211"/><text fill="#000000" font-family="Segoe UI" font-size="14" lengthAdjust="spacing" textLength="71.5996" x="277.9102" y="111.7285">buildTopo()</text></g><g class="participant participant-tail" data-participant="Topo"><rect fill="#E2E2F0" height="32.6211" rx="2.5" ry="2.5" style="stroke:#181818;stroke-width:0.5;" width="85.5996" x="270.9102" y="812.8574"/><text fill="#000000" font-family="Segoe UI" font-size="14" lengthAdjust="spacing" textLength="71.5996" x="277.9102" y="834.9648">buildTopo()</text></g><g class="participant participant-head" data-participant="Bwd"><rect fill="#E2E2F0" height="51.2422" rx="2.5" ry="2.5" style="stroke:#181818;stroke-width:0.5;" width="108.0625" x="366.5098" y="71"/><text fill="#000000" font-family="Segoe UI" font-size="14" lengthAdjust="spacing" textLength="94.0625" x="373.5098" y="93.1074">_ctx.backward()</text><text fill="#000000" font-family="Segoe UI" font-size="14" lengthAdjust="spacing" textLength="64.3945" x="388.3438" y="111.7285">(per node)</text></g><g class="participant participant-tail" data-participant="Bwd"><rect fill="#E2E2F0" height="51.2422" rx="2.5" ry="2.5" style="stroke:#181818;stroke-width:0.5;" width="108.0625" x="366.5098" y="812.8574"/><text fill="#000000" font-family="Segoe UI" font-size="14" lengthAdjust="spacing" textLength="94.0625" x="373.5098" y="834.9648">_ctx.backward()</text><text fill="#000000" font-family="Segoe UI" font-size="14" lengthAdjust="spacing" textLength="64.3945" x="388.3438" y="853.5859">(per node)</text></g><g class="participant participant-head" data-participant="Acc"><rect fill="#E2E2F0" height="51.2422" rx="2.5" ry="2.5" style="stroke:#181818;stroke-width:0.5;" width="98.7383" x="484.5723" y="71"/><text fill="#000000" font-family="Segoe UI" font-size="14" lengthAdjust="spacing" textLength="32.0605" x="517.9111" y="93.1074">add()</text><text fill="#000000" font-family="Segoe UI" font-size="14" lengthAdjust="spacing" textLength="84.7383" x="491.5723" y="111.7285">(accumulator)</text></g><g class="participant participant-tail" data-participant="Acc"><rect fill="#E2E2F0" height="51.2422" rx="2.5" ry="2.5" style="stroke:#181818;stroke-width:0.5;" width="98.7383" x="484.5723" y="812.8574"/><text fill="#000000" font-family="Segoe UI" font-size="14" lengthAdjust="spacing" textLength="32.0605" x="517.9111" y="834.9648">add()</text><text fill="#000000" font-family="Segoe UI" font-size="14" lengthAdjust="spacing" textLength="84.7383" x="491.5723" y="853.5859">(accumulator)</text></g><g class="message" data-participant-1="User" data-participant-2="Loss"><polygon fill="#181818" points="121.2427,152.5332,131.2427,156.5332,121.2427,160.5332,125.2427,156.5332" style="stroke:#181818;stroke-width:1;"/><line style="stroke:#181818;stroke-width:1;" x1="21.8735" x2="127.2427" y1="156.5332" y2="156.5332"/><text fill="#000000" font-family="Segoe UI" font-size="13" lengthAdjust="spacing" textLength="87.3691" x="28.8735" y="151.2705">loss.backward()</text></g><g class="message" data-participant-1="Loss" data-participant-2="Loss"><line style="stroke:#181818;stroke-width:1;" x1="133.2427" x2="175.2427" y1="187.8242" y2="187.8242"/><line style="stroke:#181818;stroke-width:1;" x1="175.2427" x2="175.2427" y1="187.8242" y2="200.8242"/><line style="stroke:#181818;stroke-width:1;" x1="134.2427" x2="175.2427" y1="200.8242" y2="200.8242"/><polygon fill="#181818" points="144.2427,196.8242,134.2427,200.8242,144.2427,204.8242,140.2427,200.8242" style="stroke:#181818;stroke-width:1;"/><text fill="#000000" font-family="Segoe UI" font-size="13" lengthAdjust="spacing" textLength="110.208" x="140.2427" y="182.5615">check requiresGrad</text></g><g class="message" data-participant-1="Loss" data-participant-2="Topo"><polygon fill="#181818" points="301.71,228.1152,311.71,232.1152,301.71,236.1152,305.71,232.1152" style="stroke:#181818;stroke-width:1;"/><line style="stroke:#181818;stroke-width:1;" x1="133.2427" x2="307.71" y1="232.1152" y2="232.1152"/><text fill="#000000" font-family="Segoe UI" font-size="13" lengthAdjust="spacing" textLength="135.7764" x="140.2427" y="226.8525">DFS through _ctx.inputs</text></g><g class="message" data-participant-1="Topo" data-participant-2="Loss"><polygon fill="#181818" points="144.2427,259.4063,134.2427,263.4063,144.2427,267.4063,140.2427,263.4063" style="stroke:#181818;stroke-width:1;"/><line style="stroke:#181818;stroke-width:1;stroke-dasharray:2.0,2.0;" x1="138.2427" x2="312.71" y1="263.4063" y2="263.4063"/><text fill="#000000" font-family="Segoe UI" font-size="13" lengthAdjust="spacing" textLength="108.0244" x="150.2427" y="258.1436">topo[] (post-order)</text></g><g class="message" data-participant-1="Loss" data-participant-2="Loss"><line style="stroke:#181818;stroke-width:1;" x1="133.2427" x2="175.2427" y1="311.9883" y2="311.9883"/><line style="stroke:#181818;stroke-width:1;" x1="175.2427" x2="175.2427" y1="311.9883" y2="324.9883"/><line style="stroke:#181818;stroke-width:1;" x1="134.2427" x2="175.2427" y1="324.9883" y2="324.9883"/><polygon fill="#181818" points="144.2427,320.9883,134.2427,324.9883,144.2427,328.9883,140.2427,324.9883" style="stroke:#181818;stroke-width:1;"/><text fill="#000000" font-family="Segoe UI" font-size="13" lengthAdjust="spacing" textLength="166.4673" x="140.2427" y="289.4346">seed grad = ones(loss.shape)</text><text fill="#000000" font-family="Segoe UI" font-size="13" lengthAdjust="spacing" textLength="106.7866" x="140.2427" y="306.7256">as Constant tensor</text></g><path d="M71.2231,339.9883 L143.8735,339.9883 L143.8735,349.2793 L133.8735,359.2793 L71.2231,359.2793 L71.2231,339.9883" fill="#EEEEEE" style="stroke:#000000;stroke-width:1.5;"/><rect fill="none" height="333.123" style="stroke:#000000;stroke-width:1.5;" width="565.8687" x="71.2231" y="339.9883"/><text fill="#000000" font-family="Segoe UI" font-size="13" font-weight="bold" lengthAdjust="spacing" textLength="27.6504" x="86.2231" y="355.0166">loop</text><text fill="#000000" font-family="Segoe UI" font-size="11" font-weight="bold" lengthAdjust="spacing" textLength="139.0684" x="158.8735" y="353.8584">[reverse topo (i = N-1 .. 0)]</text><g class="message" data-participant-1="Loss" data-participant-2="Bwd"><polygon fill="#181818" points="408.541,424.7979,418.541,428.7979,408.541,432.7979,412.541,428.7979" style="stroke:#181818;stroke-width:1;"/><line style="stroke:#181818;stroke-width:1;" x1="133.2427" x2="414.541" y1="428.7979" y2="428.7979"/><text fill="#000000" font-family="Segoe UI" font-size="13" lengthAdjust="spacing" textLength="128.2354" x="140.2427" y="423.5352">t._ctx.backward(t.grad)</text></g><path d="M425,364.2793 L425,477.2793 L621,477.2793 L621,374.2793 L611,364.2793 L425,364.2793" fill="#FEFFDD" style="stroke:#181818;stroke-width:0.5;"/><path d="M611,364.2793 L611,374.2793 L621,374.2793 L611,364.2793" fill="#FEFFDD" style="stroke:#181818;stroke-width:0.5;"/><text fill="#000000" font-family="Segoe UI" font-size="13" lengthAdjust="spacing" textLength="129.0542" x="431" y="383.3076">Each backward returns</text><text fill="#000000" font-family="Segoe UI" font-size="13" lengthAdjust="spacing" textLength="169.8062" x="431" y="400.5986">NEW Tensors that themselves</text><text fill="#000000" font-family="Segoe UI" font-size="13" lengthAdjust="spacing" textLength="156.3428" x="431" y="417.8896">are graph nodes (Mul, Add,</text><text fill="#000000" font-family="Segoe UI" font-size="13" lengthAdjust="spacing" textLength="175.5508" x="431" y="435.1807">MatMul, Transpose, ReluGrad).</text><text fill="#000000" font-family="Segoe UI" font-size="13" lengthAdjust="spacing" textLength="129.8096" x="431" y="452.4717">The grad graph is built</text><text fill="#000000" font-family="Segoe UI" font-size="13" lengthAdjust="spacing" textLength="160.5449" x="431" y="469.7627">eagerly &#8212; not yet executed.</text><g class="message" data-participant-1="Bwd" data-participant-2="Loss"><polygon fill="#181818" points="144.2427,502.3164,134.2427,506.3164,144.2427,510.3164,140.2427,506.3164" style="stroke:#181818;stroke-width:1;"/><line style="stroke:#181818;stroke-width:1;stroke-dasharray:2.0,2.0;" x1="138.2427" x2="419.541" y1="506.3164" y2="506.3164"/><text fill="#000000" font-family="Segoe UI" font-size="13" lengthAdjust="spacing" textLength="70.9795" x="150.2427" y="501.0537">inputGrads[]</text></g><path d="M81.2231,521.3164 L153.8735,521.3164 L153.8735,530.6074 L143.8735,540.6074 L81.2231,540.6074 L81.2231,521.3164" fill="#EEEEEE" style="stroke:#000000;stroke-width:1.5;"/><rect fill="none" height="144.7949" style="stroke:#000000;stroke-width:1.5;" width="522.0874" x="81.2231" y="521.3164"/><text fill="#000000" font-family="Segoe UI" font-size="13" font-weight="bold" lengthAdjust="spacing" textLength="27.6504" x="96.2231" y="536.3447">loop</text><text fill="#000000" font-family="Segoe UI" font-size="11" font-weight="bold" lengthAdjust="spacing" textLength="175.0063" x="168.8735" y="535.1865">[for each input that requiresGrad]</text><path d="M91.2231,547.6074 L151.9717,547.6074 L151.9717,556.8984 L141.9717,566.8984 L91.2231,566.8984 L91.2231,547.6074" fill="#EEEEEE" style="stroke:#000000;stroke-width:1.5;"/><rect fill="none" height="111.5039" style="stroke:#000000;stroke-width:1.5;" width="502.0874" x="91.2231" y="547.6074"/><text fill="#000000" font-family="Segoe UI" font-size="13" font-weight="bold" lengthAdjust="spacing" textLength="15.7485" x="106.2231" y="562.6357">alt</text><text fill="#000000" font-family="Segoe UI" font-size="11" font-weight="bold" lengthAdjust="spacing" textLength="121.7197" x="166.9717" y="561.4775">[input.grad already set]</text><g class="message" data-participant-1="Loss" data-participant-2="Acc"><polygon fill="#181818" points="521.9414,586.1895,531.9414,590.1895,521.9414,594.1895,525.9414,590.1895" style="stroke:#181818;stroke-width:1;"/><line style="stroke:#181818;stroke-width:1;" x1="133.2427" x2="527.9414" y1="590.1895" y2="590.1895"/><text fill="#000000" font-family="Segoe UI" font-size="13" lengthAdjust="spacing" textLength="178.166" x="140.2427" y="584.9268">input.grad = add(input.grad, g)</text></g><line style="stroke:#000000;stroke-width:1;stroke-dasharray:2.0,2.0;" x1="91.2231" x2="593.3105" y1="599.1895" y2="599.1895"/><text fill="#000000" font-family="Segoe UI" font-size="11" font-weight="bold" lengthAdjust="spacing" textLength="55.4297" x="96.2231" y="611.0596">[first time]</text><g class="message" data-participant-1="Loss" data-participant-2="Loss"><line style="stroke:#181818;stroke-width:1;" x1="133.2427" x2="175.2427" y1="638.1113" y2="638.1113"/><line style="stroke:#181818;stroke-width:1;" x1="175.2427" x2="175.2427" y1="638.1113" y2="651.1113"/><line style="stroke:#181818;stroke-width:1;" x1="134.2427" x2="175.2427" y1="651.1113" y2="651.1113"/><polygon fill="#181818" points="144.2427,647.1113,134.2427,651.1113,144.2427,655.1113,140.2427,651.1113" style="stroke:#181818;stroke-width:1;"/><text fill="#000000" font-family="Segoe UI" font-size="13" lengthAdjust="spacing" textLength="82.8433" x="140.2427" y="632.8486">input.grad = g</text></g><path d="M13,685.1113 L13,798.1113 L252,798.1113 L252,695.1113 L242,685.1113 L13,685.1113" fill="#FEFFDD" style="stroke:#181818;stroke-width:0.5;"/><path d="M242,685.1113 L242,695.1113 L252,695.1113 L242,685.1113" fill="#FEFFDD" style="stroke:#181818;stroke-width:0.5;"/><text fill="#000000" font-family="Segoe UI" font-size="13" lengthAdjust="spacing" textLength="207.6509" x="19" y="704.1396">After backward(), `x.grad` is a Tensor</text><text fill="#000000" font-family="Segoe UI" font-size="13" lengthAdjust="spacing" textLength="215.6553" x="19" y="721.4307">representing an unevaluated gradient</text><text fill="#000000" font-family="Segoe UI" font-size="13" lengthAdjust="spacing" textLength="218.5117" x="19" y="738.7217">graph. To get numbers, the user must:</text><text fill="#000000" font-family="Segoe UI" font-size="13" lengthAdjust="spacing" textLength="131.5298" x="26.1221" y="756.0127">compileGraph([x.grad])</text><text fill="#000000" font-family="Segoe UI" font-size="13" lengthAdjust="spacing" textLength="131.5298" x="26.1221" y="773.3037">engine.evaluate(graph)</text><text fill="#000000" font-family="Segoe UI" font-size="13" lengthAdjust="spacing" textLength="117.4888" x="26.1221" y="790.5947">engine.get(x.grad.id)</text><!--SRC=[PLJRRXCn47ttLup2oqPALl1Q2QJqXf1eXMWg7a957NkoQzLhB_QubpS-WY_aInZRIPE0eaYnvtOkuv0XYx18vBiWDPnAzV0aWuOlCaRuy-itNCWE0tmCSkpXpBj88IaotWaH7umRPP03hBcg2puvVUQj3_3cSf4_1ncnbze_6TV1Hjg81v5ptCXawT8xkfO3mkG6Euzm-saYX5J4tMuZ1i79P9GPfIEOM1_ZTzSiqKKVfXEG4JxprN7IEXchbtxqJSt8FuypVYXwRjTRnisKEuvCrNcDjUBqIHyNI5tJf59fI5RIRlf2AI4oJfX_A53W13B8W-v2bFjzNFMe7Y3WpsG2HXPOlsPag9nnVda3rBEkNGy5AskMA8eIdkyx4PzNTz2CFjBS1utX_saHKKEn-3ruXx4fyDYM4PaHKoZUPfPKL1N2UZyol4SC4Si8Q0mNNy_VGTl2swa0sCrWeJACzbXGQlEydESy8GJJzSG7u9LIFUpIU0Ibu6A9N5zyW-fgPEQImVGuHBIFMECoO2R1gvXTYj1S9Jk3XTQp4hwIL2wMGRh8Qk0Clg9DMTjfMpAMFLOLQXSJ8Qz9XOLvq-rBsNf632z8WC-e4g7ErUXqOS8_C-430uelUKfStN6qABVXpSLCj0GhcoEp2nzBDLwaucD0gL_Oh8fehp0ls6vEktKnB-F-OWRTjBBWvmKR4oBFD0F-q-SGyAvHL-kShXn5_efYcMVpwyi2M6o83_jzdi7zS-bmdrMKMziuCU385D5HVktIGNBuA6sIj5r0mo5EAmQqlEhGiSuk3MjUj5as759-I4EAT5AGAJ-CncBv2sfMTUZTbgphZCDsDw0fJOz2tBof9QtXNNpry2y0]--></g></svg>