<svg xmlns="http://www.w3.org/2000/svg" xmlns:xlink="http://www.w3.org/1999/xlink" contentStyleType="text/css" data-diagram-type="ACTIVITY" height="740px" preserveAspectRatio="none" style="width:1335px;height:740px;background:#FAFAFA;" version="1.1" viewBox="0 0 1335 740" width="1335px" zoomAndPan="magnify"><title>Webtensor Onboarding &#8212; Reading Order</title><defs/><g><rect fill="#FAFAFA" height="740" style="stroke:none;stroke-width:1;" width="1335" x="0" y="0"/><text fill="#000000" font-family="Segoe UI" font-size="14" font-weight="bold" lengthAdjust="spacing" textLength="272.8018" x="529.8877" y="35.1074">Webtensor Onboarding &#8212; Reading Order</text><ellipse cx="655.1494" cy="59.6211" fill="#222222" rx="10" ry="10" style="stroke:#222222;stroke-width:1;"/><rect fill="#F1F1F1" height="35.9609" rx="4" ry="4" style="stroke:#181818;stroke-width:0.5;" width="141.8867" x="584.2061" y="89.6211"/><text fill="#000000" font-family="Segoe UI" font-size="12" lengthAdjust="spacing" textLength="121.8867" x="594.2061" y="112.5703">You arrived at the repo</text><polygon fill="#F1F1F1" points="80.1665,145.582,203.4976,145.582,215.4976,157.582,203.4976,169.582,80.1665,169.582,68.1665,157.582,80.1665,145.582" style="stroke:#181818;stroke-width:0.5;"/><text fill="#000000" font-family="Segoe UI" font-size="11" lengthAdjust="spacing" textLength="102.2979" x="145.832" y="181.4521">Use it / understand it</text><text fill="#000000" font-family="Segoe UI" font-size="11" lengthAdjust="spacing" textLength="123.3311" x="80.1665" y="162.1367">What do you want to do?</text><rect fill="#F1F1F1" height="35.9609" rx="4" ry="4" style="stroke:#181818;stroke-width:0.5;" width="86.252" x="98.7061" y="202.9521"/><text fill="#000000" font-family="Segoe UI" font-size="12" lengthAdjust="spacing" textLength="66.252" x="108.7061" y="225.9014">README.md</text><rect fill="#F1F1F1" height="35.9609" rx="4" ry="4" style="stroke:#181818;stroke-width:0.5;" width="205.6543" x="39.0049" y="258.9131"/><text fill="#000000" font-family="Segoe UI" font-size="12" lengthAdjust="spacing" textLength="185.6543" x="49.0049" y="281.8623">docs/onboarding/00-start-here.md</text><rect fill="#F1F1F1" height="35.9609" rx="4" ry="4" style="stroke:#181818;stroke-width:0.5;" width="261.6641" x="11" y="314.874"/><text fill="#000000" font-family="Segoe UI" font-size="12" lengthAdjust="spacing" textLength="241.6641" x="21" y="337.8232">docs/onboarding/01-system-walkthrough.md</text><rect fill="#F1F1F1" height="35.9609" rx="4" ry="4" style="stroke:#181818;stroke-width:0.5;" width="256.2207" x="13.7217" y="420.1504"/><text fill="#000000" font-family="Segoe UI" font-size="12" lengthAdjust="spacing" textLength="236.2207" x="23.7217" y="443.0996">docs/onboarding/02-package-deep-dive.md</text><rect fill="#F1F1F1" height="35.9609" rx="4" ry="4" style="stroke:#181818;stroke-width:0.5;" width="192.3711" x="45.6465" y="476.1113"/><text fill="#000000" font-family="Segoe UI" font-size="12" lengthAdjust="spacing" textLength="172.3711" x="55.6465" y="499.0605">docs/architecture.md (canonical)</text><rect fill="#F1F1F1" height="35.9609" rx="4" ry="4" style="stroke:#181818;stroke-width:0.5;" width="191.0762" x="46.2939" y="532.0723"/><text fill="#000000" font-family="Segoe UI" font-size="12" lengthAdjust="spacing" textLength="171.0762" x="56.2939" y="555.0215">docs/ir-reference.md (canonical)</text><polygon fill="#F1F1F1" points="96.175,370.835,187.489,370.835,199.489,382.835,187.489,394.835,96.175,394.835,84.175,382.835,96.175,370.835" style="stroke:#181818;stroke-width:0.5;"/><text fill="#000000" font-family="Segoe UI" font-size="11" lengthAdjust="spacing" textLength="15.7427" x="145.832" y="406.7051">yes</text><text fill="#000000" font-family="Segoe UI" font-size="11" lengthAdjust="spacing" textLength="91.314" x="96.175" y="387.3896">Need more depth?</text><polygon fill="#F1F1F1" points="141.832,588.0332,153.832,600.0332,141.832,612.0332,129.832,600.0332,141.832,588.0332" style="stroke:#181818;stroke-width:0.5;"/><polygon fill="#F1F1F1" points="383.9226,145.582,474.7317,145.582,486.7317,157.582,474.7317,169.582,383.9226,169.582,371.9226,157.582,383.9226,145.582" style="stroke:#181818;stroke-width:0.5;"/><text fill="#000000" font-family="Segoe UI" font-size="11" lengthAdjust="spacing" textLength="50.1392" x="433.3271" y="181.4521">contribute</text><text fill="#000000" font-family="Segoe UI" font-size="11" lengthAdjust="spacing" textLength="90.8091" x="383.9226" y="162.1367">Add an op / kernel</text><rect fill="#F1F1F1" height="35.9609" rx="4" ry="4" style="stroke:#181818;stroke-width:0.5;" width="248.3691" x="305.1426" y="202.9521"/><text fill="#000000" font-family="Segoe UI" font-size="12" lengthAdjust="spacing" textLength="228.3691" x="315.1426" y="225.9014">docs/onboarding/07-contributor-guide.md</text><rect fill="#F1F1F1" height="35.9609" rx="4" ry="4" style="stroke:#181818;stroke-width:0.5;" width="238.7598" x="309.9473" y="258.9131"/><text fill="#000000" font-family="Segoe UI" font-size="12" lengthAdjust="spacing" textLength="218.7598" x="319.9473" y="281.8623">docs/adding-an-op.md (canonical recipe)</text><rect fill="#F1F1F1" height="35.9609" rx="4" ry="4" style="stroke:#181818;stroke-width:0.5;" width="270.7695" x="293.9424" y="314.874"/><text fill="#000000" font-family="Segoe UI" font-size="12" lengthAdjust="spacing" textLength="250.7695" x="303.9424" y="337.8232">docs/onboarding/03-backends-and-kernels.md</text><polygon fill="#F1F1F1" points="653.4167,145.582,754.8176,145.582,766.8176,157.582,754.8176,169.582,653.4167,169.582,641.4167,157.582,653.4167,145.582" style="stroke:#181818;stroke-width:0.5;"/><text fill="#000000" font-family="Segoe UI" font-size="11" lengthAdjust="spacing" textLength="38.0059" x="708.1172" y="181.4521">fix bugs</text><text fill="#000000" font-family="Segoe UI" font-size="11" lengthAdjust="spacing" textLength="101.4009" x="653.4167" y="162.1367">Pick something to fix</text><rect fill="#F1F1F1" height="35.9609" rx="4" ry="4" style="stroke:#181818;stroke-width:0.5;" width="234.7227" x="586.7559" y="202.9521"/><text fill="#000000" font-family="Segoe UI" font-size="12" lengthAdjust="spacing" textLength="214.7227" x="596.7559" y="225.9014">docs/onboarding/06-bugs-and-gaps.md</text><rect fill="#F1F1F1" height="35.9609" rx="4" ry="4" style="stroke:#181818;stroke-width:0.5;" width="258.8105" x="574.7119" y="258.9131"/><text fill="#000000" font-family="Segoe UI" font-size="12" lengthAdjust="spacing" textLength="238.8105" x="584.7119" y="281.8623">docs/onboarding/05-state-of-the-project.md</text><polygon fill="#F1F1F1" points="931.9167,145.582,1013.9387,145.582,1025.9387,157.582,1013.9387,169.582,931.9167,169.582,919.9167,157.582,931.9167,145.582" style="stroke:#181818;stroke-width:0.5;"/><text fill="#000000" font-family="Segoe UI" font-size="11" lengthAdjust="spacing" textLength="99.2632" x="976.9277" y="181.4521">refactor / rearchitect</text><text fill="#000000" font-family="Segoe UI" font-size="11" lengthAdjust="spacing" textLength="82.022" x="931.9167" y="162.1367">Plan bigger work</text><text fill="#000000" font-family="Segoe UI" font-size="11" lengthAdjust="spacing" textLength="134.2881" x="1025.9387" y="154.8213">just curious about autograd</text><rect fill="#F1F1F1" height="35.9609" rx="4" ry="4" style="stroke:#181818;stroke-width:0.5;" width="258.8105" x="843.5225" y="202.9521"/><text fill="#000000" font-family="Segoe UI" font-size="12" lengthAdjust="spacing" textLength="238.8105" x="853.5225" y="225.9014">docs/onboarding/05-state-of-the-project.md</text><rect fill="#F1F1F1" height="35.9609" rx="4" ry="4" style="stroke:#181818;stroke-width:0.5;" width="243.8105" x="851.0225" y="258.9131"/><text fill="#000000" font-family="Segoe UI" font-size="12" lengthAdjust="spacing" textLength="223.8105" x="861.0225" y="281.8623">docs/onboarding/08-rearchitect-notes.md</text><rect fill="#F1F1F1" height="35.9609" rx="4" ry="4" style="stroke:#181818;stroke-width:0.5;" width="150.4531" x="897.7012" y="314.874"/><text fill="#000000" font-family="Segoe UI" font-size="12" lengthAdjust="spacing" textLength="130.4531" x="907.7012" y="337.8232">docs/next.md (roadmap)</text><rect fill="#F1F1F1" height="35.9609" rx="4" ry="4" style="stroke:#181818;stroke-width:0.5;" width="202.2441" x="1122.333" y="380.3545"/><text fill="#000000" font-family="Segoe UI" font-size="12" lengthAdjust="spacing" textLength="182.2441" x="1132.333" y="403.3037">docs/onboarding/04-autograd.md</text><rect fill="#F1F1F1" height="35.9609" rx="4" ry="4" style="stroke:#181818;stroke-width:0.5;" width="145.1328" x="582.583" y="652.0332"/><text fill="#000000" font-family="Segoe UI" font-size="12" lengthAdjust="spacing" textLength="125.1328" x="592.583" y="674.9824">Then dive into the code</text><ellipse cx="655.1494" cy="718.9941" fill="none" rx="11" ry="11" style="stroke:#222222;stroke-width:1;"/><ellipse cx="655.1494" cy="718.9941" fill="#222222" rx="6" ry="6" style="stroke:#222222;stroke-width:1;"/><line style="stroke:#555555;stroke-width:1;" x1="655.1494" x2="655.1494" y1="69.6211" y2="89.6211"/><polygon fill="#555555" points="651.1494,79.6211,655.1494,89.6211,659.1494,79.6211,655.1494,83.6211" style="stroke:#555555;stroke-width:1;"/><line style="stroke:#555555;stroke-width:1;" x1="141.832" x2="141.832" y1="238.9131" y2="258.9131"/><polygon fill="#555555" points="137.832,248.9131,141.832,258.9131,145.832,248.9131,141.832,252.9131" style="stroke:#555555;stroke-width:1;"/><line style="stroke:#555555;stroke-width:1;" x1="141.832" x2="141.832" y1="294.874" y2="314.874"/><polygon fill="#555555" points="137.832,304.874,141.832,314.874,145.832,304.874,141.832,308.874" style="stroke:#555555;stroke-width:1;"/><line style="stroke:#555555;stroke-width:1;" x1="141.832" x2="141.832" y1="456.1113" y2="476.1113"/><polygon fill="#555555" points="137.832,466.1113,141.832,476.1113,145.832,466.1113,141.832,470.1113" style="stroke:#555555;stroke-width:1;"/><line style="stroke:#555555;stroke-width:1;" x1="141.832" x2="141.832" y1="512.0723" y2="532.0723"/><polygon fill="#555555" points="137.832,522.0723,141.832,532.0723,145.832,522.0723,141.832,526.0723" style="stroke:#555555;stroke-width:1;"/><line style="stroke:#555555;stroke-width:1;" x1="141.832" x2="141.832" y1="394.835" y2="420.1504"/><polygon fill="#555555" points="137.832,410.1504,141.832,420.1504,145.832,410.1504,141.832,414.1504" style="stroke:#555555;stroke-width:1;"/><line style="stroke:#555555;stroke-width:1;" x1="199.489" x2="279.9424" y1="382.835" y2="382.835"/><polygon fill="#555555" points="275.9424,484.0918,279.9424,494.0918,283.9424,484.0918,279.9424,488.0918" style="stroke:#555555;stroke-width:1;"/><line style="stroke:#555555;stroke-width:1;" x1="279.9424" x2="279.9424" y1="382.835" y2="600.0332"/><line style="stroke:#555555;stroke-width:1;" x1="279.9424" x2="153.832" y1="600.0332" y2="600.0332"/><polygon fill="#555555" points="163.832,596.0332,153.832,600.0332,163.832,604.0332,159.832,600.0332" style="stroke:#555555;stroke-width:1;"/><line style="stroke:#555555;stroke-width:1;" x1="141.832" x2="141.832" y1="568.0332" y2="588.0332"/><polygon fill="#555555" points="137.832,578.0332,141.832,588.0332,145.832,578.0332,141.832,582.0332" style="stroke:#555555;stroke-width:1;"/><line style="stroke:#555555;stroke-width:1;" x1="141.832" x2="141.832" y1="350.835" y2="370.835"/><polygon fill="#555555" points="137.832,360.835,141.832,370.835,145.832,360.835,141.832,364.835" style="stroke:#555555;stroke-width:1;"/><line style="stroke:#555555;stroke-width:1;" x1="429.3271" x2="429.3271" y1="238.9131" y2="258.9131"/><polygon fill="#555555" points="425.3271,248.9131,429.3271,258.9131,433.3271,248.9131,429.3271,252.9131" style="stroke:#555555;stroke-width:1;"/><line style="stroke:#555555;stroke-width:1;" x1="429.3271" x2="429.3271" y1="294.874" y2="314.874"/><polygon fill="#555555" points="425.3271,304.874,429.3271,314.874,433.3271,304.874,429.3271,308.874" style="stroke:#555555;stroke-width:1;"/><line style="stroke:#555555;stroke-width:1;" x1="704.1172" x2="704.1172" y1="238.9131" y2="258.9131"/><polygon fill="#555555" points="700.1172,248.9131,704.1172,258.9131,708.1172,248.9131,704.1172,252.9131" style="stroke:#555555;stroke-width:1;"/><line style="stroke:#555555;stroke-width:1;" x1="972.9277" x2="972.9277" y1="238.9131" y2="258.9131"/><polygon fill="#555555" points="968.9277,248.9131,972.9277,258.9131,976.9277,248.9131,972.9277,252.9131" style="stroke:#555555;stroke-width:1;"/><line style="stroke:#555555;stroke-width:1;" x1="972.9277" x2="972.9277" y1="294.874" y2="314.874"/><polygon fill="#555555" points="968.9277,304.874,972.9277,314.874,976.9277,304.874,972.9277,308.874" style="stroke:#555555;stroke-width:1;"/><line style="stroke:#555555;stroke-width:1;" x1="141.832" x2="141.832" y1="169.582" y2="202.9521"/><polygon fill="#555555" points="137.832,192.9521,141.832,202.9521,145.832,192.9521,141.832,196.9521" style="stroke:#555555;stroke-width:1;"/><line style="stroke:#555555;stroke-width:1;" x1="141.832" x2="141.832" y1="612.0332" y2="632.0332"/><polygon fill="#555555" points="137.832,622.0332,141.832,632.0332,145.832,622.0332,141.832,626.0332" style="stroke:#555555;stroke-width:1;"/><line style="stroke:#555555;stroke-width:1;" x1="429.3271" x2="429.3271" y1="169.582" y2="202.9521"/><polygon fill="#555555" points="425.3271,192.9521,429.3271,202.9521,433.3271,192.9521,429.3271,196.9521" style="stroke:#555555;stroke-width:1;"/><line style="stroke:#555555;stroke-width:1;" x1="429.3271" x2="429.3271" y1="350.835" y2="632.0332"/><polygon fill="#555555" points="425.3271,622.0332,429.3271,632.0332,433.3271,622.0332,429.3271,626.0332" style="stroke:#555555;stroke-width:1;"/><line style="stroke:#555555;stroke-width:1;" x1="704.1172" x2="704.1172" y1="169.582" y2="202.9521"/><polygon fill="#555555" points="700.1172,192.9521,704.1172,202.9521,708.1172,192.9521,704.1172,196.9521" style="stroke:#555555;stroke-width:1;"/><line style="stroke:#555555;stroke-width:1;" x1="704.1172" x2="704.1172" y1="294.874" y2="632.0332"/><polygon fill="#555555" points="700.1172,622.0332,704.1172,632.0332,708.1172,622.0332,704.1172,626.0332" style="stroke:#555555;stroke-width:1;"/><line style="stroke:#555555;stroke-width:1;" x1="972.9277" x2="972.9277" y1="169.582" y2="202.9521"/><polygon fill="#555555" points="968.9277,192.9521,972.9277,202.9521,976.9277,192.9521,972.9277,196.9521" style="stroke:#555555;stroke-width:1;"/><line style="stroke:#555555;stroke-width:1;" x1="972.9277" x2="972.9277" y1="350.835" y2="632.0332"/><polygon fill="#555555" points="968.9277,622.0332,972.9277,632.0332,976.9277,622.0332,972.9277,626.0332" style="stroke:#555555;stroke-width:1;"/><line style="stroke:#555555;stroke-width:1;" x1="215.4976" x2="371.9226" y1="157.582" y2="157.582"/><polygon fill="#555555" points="361.9226,153.582,371.9226,157.582,361.9226,161.582,365.9226,157.582" style="stroke:#555555;stroke-width:1;"/><line style="stroke:#555555;stroke-width:1;" x1="486.7317" x2="641.4167" y1="157.582" y2="157.582"/><polygon fill="#555555" points="631.4167,153.582,641.4167,157.582,631.4167,161.582,635.4167,157.582" style="stroke:#555555;stroke-width:1;"/><line style="stroke:#555555;stroke-width:1;" x1="766.8176" x2="919.9167" y1="157.582" y2="157.582"/><polygon fill="#555555" points="909.9167,153.582,919.9167,157.582,909.9167,161.582,913.9167,157.582" style="stroke:#555555;stroke-width:1;"/><line style="stroke:#555555;stroke-width:1;" x1="655.1494" x2="655.1494" y1="125.582" y2="130.582"/><line style="stroke:#555555;stroke-width:1;" x1="655.1494" x2="141.832" y1="130.582" y2="130.582"/><line style="stroke:#555555;stroke-width:1;" x1="141.832" x2="141.832" y1="130.582" y2="145.582"/><polygon fill="#555555" points="137.832,135.582,141.832,145.582,145.832,135.582,141.832,139.582" style="stroke:#555555;stroke-width:1;"/><line style="stroke:#555555;stroke-width:1;" x1="1025.9387" x2="1223.4551" y1="157.582" y2="157.582"/><line style="stroke:#555555;stroke-width:1;" x1="1223.4551" x2="1223.4551" y1="157.582" y2="380.3545"/><polygon fill="#555555" points="1219.4551,370.3545,1223.4551,380.3545,1227.4551,370.3545,1223.4551,374.3545" style="stroke:#555555;stroke-width:1;"/><line style="stroke:#555555;stroke-width:1;" x1="1223.4551" x2="1223.4551" y1="416.3154" y2="632.0332"/><polygon fill="#555555" points="1219.4551,622.0332,1223.4551,632.0332,1227.4551,622.0332,1223.4551,626.0332" style="stroke:#555555;stroke-width:1;"/><line style="stroke:#555555;stroke-width:1;" x1="141.832" x2="1223.4551" y1="632.0332" y2="632.0332"/><line style="stroke:#555555;stroke-width:1;" x1="655.1494" x2="655.1494" y1="632.0332" y2="652.0332"/><polygon fill="#555555" points="651.1494,642.0332,655.1494,652.0332,659.1494,642.0332,655.1494,646.0332" style="stroke:#555555;stroke-width:1;"/><line style="stroke:#555555;stroke-width:1;" x1="655.1494" x2="655.1494" y1="687.9941" y2="707.9941"/><polygon fill="#555555" points="651.1494,697.9941,655.1494,707.9941,659.1494,697.9941,655.1494,701.9941" style="stroke:#555555;stroke-width:1;"/><!--SRC=[bPDDRjim48NtEiKWtLWBDkcFsy1U54QJ05qqAT86GPSZSIGnbZZ2aAgJNG_H4_Oa7IgsOGFAej16v3oEFhutYYws1FTKHFA11MvymIZM-Hh-_lu3juJZ-urOaYmBQ-Tx5EoWm79T2m_UVkPMpxswMgNdG14QjBn9Xoji0nrKjiV4ay3vmVvAX3VRTlFv_A1oGHKERRnY7w-n8pZvJZKJt7qvKQQ84hDiyPC7G17tYonWXDWG2FMyp39NmUo-qJtByAIg3Ngjiou_vKddONON25o4Kr0o4ctfhQxp361nUxcw-7hvkhFBjB9SXbFUctHwTcP60DEGq8kYDoOyXKYTsM2xZeqQK3TRSOAx9cNkM0WizR7PKprHI0XJ7T-QNXF0cembwetLQsyRxjGePUCYbN4OmM1MecVlIcppGvaJ8rGfl2-dPEIjgpBI01Feoggt7hXNfzQa0ROxr5AZ4LSCaV991pwQlOB5r8EpnswXJJg3td1_ZA4fbgwdVDhPToPDeb86FMlDCrGOM- -Wlxbo3O4xYasQHWs-SeyxRds5OgZ3DFK7asfZvnhxy6A-ypG4aGnNHjkQNlX1ZJ-cQDMumjMr3ls6PRq3KFEnL4_KKQ5zPld_VcPAVcuEEXhFaOvluEanZbuBe-smpvzfOVOmX0Zb88w705Zm404rjrhGJeEzDxlwyvt7eSaMFz8DqsY2ysfx-YLBjhJKVvRxx1y0]--></g></svg>