<svg xmlns="http://www.w3.org/2000/svg" xmlns:xlink="http://www.w3.org/1999/xlink" contentStyleType="text/css" data-diagram-type="SEQUENCE" height="1424px" preserveAspectRatio="none" style="width:1172px;height:1424px;background:#FAFAFA;" version="1.1" viewBox="0 0 1172 1424" width="1172px" zoomAndPan="magnify"><title>Tensor Lifecycle &#8212; From User Code to Result</title><defs/><g><rect fill="#FAFAFA" height="1424" style="stroke:none;stroke-width:1;" width="1172" x="0" y="0"/><text fill="#000000" font-family="Segoe UI" font-size="14" font-weight="bold" lengthAdjust="spacing" textLength="294.1504" x="435.1252" y="30.1074">Tensor Lifecycle &#8212; From User Code to Result</text><rect fill="none" height="441.7246" style="stroke:#000000;stroke-width:1.5;" width="439.7993" x="715.6016" y="788.7715"/><rect fill="none" height="364.1426" style="stroke:#000000;stroke-width:1.5;" width="419.7993" x="725.6016" y="815.0625"/><rect fill="none" height="111.5039" style="stroke:#000000;stroke-width:1.5;" width="399.7993" x="735.6016" y="950.1973"/><g><title>User</title><rect fill="#000000" fill-opacity="0.00000" height="1218.127" width="8" x="17.8735" y="123.2422"/><line style="stroke:#181818;stroke-width:0.5;stroke-dasharray:5.0,5.0;" x1="21" x2="21" y1="123.2422" y2="1341.3691"/></g><g><title>tensor()</title><rect fill="#000000" fill-opacity="0.00000" height="1218.127" width="8" x="120.4385" y="123.2422"/><line style="stroke:#181818;stroke-width:0.5;stroke-dasharray:5.0,5.0;" x1="123.7144" x2="123.7144" y1="123.2422" y2="1341.3691"/></g><g><title>Op fn</title><rect fill="#000000" fill-opacity="0.00000" height="1218.127" width="8" x="205.8867" y="123.2422"/><line style="stroke:#181818;stroke-width:0.5;stroke-dasharray:5.0,5.0;" x1="209.1626" x2="209.1626" y1="123.2422" y2="1341.3691"/></g><g><title>Tensor</title><rect fill="#000000" fill-opacity="0.00000" height="1218.127" width="8" x="534.7393" y="123.2422"/><line style="stroke:#181818;stroke-width:0.5;stroke-dasharray:5.0,5.0;" x1="537.9443" x2="537.9443" y1="123.2422" y2="1341.3691"/></g><g><title>compileGraph()</title><rect fill="#000000" fill-opacity="0.00000" height="1218.127" width="8" x="627.1636" y="123.2422"/><line style="stroke:#181818;stroke-width:0.5;stroke-dasharray:5.0,5.0;" x1="630.5342" x2="630.5342" y1="123.2422" y2="1341.3691"/></g><g><title>Engine</title><rect fill="#000000" fill-opacity="0.00000" height="1218.127" width="8" x="776.9399" y="123.2422"/><line style="stroke:#181818;stroke-width:0.5;stroke-dasharray:5.0,5.0;" x1="780.6016" x2="780.6016" y1="123.2422" y2="1341.3691"/></g><g><title>Backend</title><rect fill="#000000" fill-opacity="0.00000" height="1218.127" width="8" x="1050.7583" y="123.2422"/><line style="stroke:#181818;stroke-width:0.5;stroke-dasharray:5.0,5.0;" x1="1054.1157" x2="1054.1157" y1="123.2422" y2="1341.3691"/></g><g class="participant participant-head" data-participant="User"><text fill="#000000" font-family="Segoe UI" font-size="14" lengthAdjust="spacing" textLength="27.7471" x="5" y="119.7285">User</text><ellipse cx="21.8735" cy="53.1211" fill="#E2E2F0" rx="8" ry="8" style="stroke:#181818;stroke-width:0.5;"/><path d="M21.8735,61.1211 L21.8735,88.1211 M8.8735,69.1211 L34.8735,69.1211 M21.8735,88.1211 L8.8735,103.1211 M21.8735,88.1211 L34.8735,103.1211" fill="none" style="stroke:#181818;stroke-width:0.5;"/></g><g class="participant participant-tail" data-participant="User"><text fill="#000000" font-family="Segoe UI" font-size="14" lengthAdjust="spacing" textLength="27.7471" x="5" y="1355.4766">User</text><ellipse cx="21.8735" cy="1367.4902" fill="#E2E2F0" rx="8" ry="8" style="stroke:#181818;stroke-width:0.5;"/><path d="M21.8735,1375.4902 L21.8735,1402.4902 M8.8735,1383.4902 L34.8735,1383.4902 M21.8735,1402.4902 L8.8735,1417.4902 M21.8735,1402.4902 L34.8735,1417.4902" fill="none" style="stroke:#181818;stroke-width:0.5;"/></g><g class="participant participant-head" data-participant="Init"><rect fill="#E2E2F0" height="32.6211" rx="2.5" ry="2.5" style="stroke:#181818;stroke-width:0.5;" width="61.4482" x="93.7144" y="89.6211"/><text fill="#000000" font-family="Segoe UI" font-size="14" lengthAdjust="spacing" textLength="47.4482" x="100.7144" y="111.7285">tensor()</text></g><g class="participant participant-tail" data-participant="Init"><rect fill="#E2E2F0" height="32.6211" rx="2.5" ry="2.5" style="stroke:#181818;stroke-width:0.5;" width="61.4482" x="93.7144" y="1340.3691"/><text fill="#000000" font-family="Segoe UI" font-size="14" lengthAdjust="spacing" textLength="47.4482" x="100.7144" y="1362.4766">tensor()</text></g><g class="participant participant-head" data-participant="Op"><rect fill="#E2E2F0" height="51.2422" rx="2.5" ry="2.5" style="stroke:#181818;stroke-width:0.5;" width="89.4482" x="165.1626" y="71"/><text fill="#000000" font-family="Segoe UI" font-size="14" lengthAdjust="spacing" textLength="34.9248" x="192.4243" y="93.1074">Op fn</text><text fill="#000000" font-family="Segoe UI" font-size="14" lengthAdjust="spacing" textLength="75.4482" x="172.1626" y="111.7285">(add/mul/...)</text></g><g class="participant participant-tail" data-participant="Op"><rect fill="#E2E2F0" height="51.2422" rx="2.5" ry="2.5" style="stroke:#181818;stroke-width:0.5;" width="89.4482" x="165.1626" y="1340.3691"/><text fill="#000000" font-family="Segoe UI" font-size="14" lengthAdjust="spacing" textLength="34.9248" x="192.4243" y="1362.4766">Op fn</text><text fill="#000000" font-family="Segoe UI" font-size="14" lengthAdjust="spacing" textLength="75.4482" x="172.1626" y="1381.0977">(add/mul/...)</text></g><g class="participant participant-head" data-participant="Tensor"><rect fill="#E2E2F0" height="51.2422" rx="2.5" ry="2.5" style="stroke:#181818;stroke-width:0.5;" width="55.5898" x="510.9443" y="71"/><text fill="#000000" font-family="Segoe UI" font-size="14" lengthAdjust="spacing" textLength="41.5898" x="517.9443" y="93.1074">Tensor</text><text fill="#000000" font-family="Segoe UI" font-size="14" lengthAdjust="spacing" textLength="35.3076" x="521.0854" y="111.7285">(core)</text></g><g class="participant participant-tail" data-participant="Tensor"><rect fill="#E2E2F0" height="51.2422" rx="2.5" ry="2.5" style="stroke:#181818;stroke-width:0.5;" width="55.5898" x="510.9443" y="1340.3691"/><text fill="#000000" font-family="Segoe UI" font-size="14" lengthAdjust="spacing" textLength="41.5898" x="517.9443" y="1362.4766">Tensor</text><text fill="#000000" font-family="Segoe UI" font-size="14" lengthAdjust="spacing" textLength="35.3076" x="521.0854" y="1381.0977">(core)</text></g><g class="participant participant-head" data-participant="Compile"><rect fill="#E2E2F0" height="32.6211" rx="2.5" ry="2.5" style="stroke:#181818;stroke-width:0.5;" width="109.2588" x="576.5342" y="89.6211"/><text fill="#000000" font-family="Segoe UI" font-size="14" lengthAdjust="spacing" textLength="95.2588" x="583.5342" y="111.7285">compileGraph()</text></g><g class="participant participant-tail" data-participant="Compile"><rect fill="#E2E2F0" height="32.6211" rx="2.5" ry="2.5" style="stroke:#181818;stroke-width:0.5;" width="109.2588" x="576.5342" y="1340.3691"/><text fill="#000000" font-family="Segoe UI" font-size="14" lengthAdjust="spacing" textLength="95.2588" x="583.5342" y="1362.4766">compileGraph()</text></g><g class="participant participant-head" data-participant="Engine"><rect fill="#E2E2F0" height="51.2422" rx="2.5" ry="2.5" style="stroke:#181818;stroke-width:0.5;" width="70.6768" x="745.6016" y="71"/><text fill="#000000" font-family="Segoe UI" font-size="14" lengthAdjust="spacing" textLength="41.8838" x="759.998" y="93.1074">Engine</text><text fill="#000000" font-family="Segoe UI" font-size="14" lengthAdjust="spacing" textLength="56.6768" x="752.6016" y="111.7285">(runtime)</text></g><g class="participant participant-tail" data-participant="Engine"><rect fill="#E2E2F0" height="51.2422" rx="2.5" ry="2.5" style="stroke:#181818;stroke-width:0.5;" width="70.6768" x="745.6016" y="1340.3691"/><text fill="#000000" font-family="Segoe UI" font-size="14" lengthAdjust="spacing" textLength="41.8838" x="759.998" y="1362.4766">Engine</text><text fill="#000000" font-family="Segoe UI" font-size="14" lengthAdjust="spacing" textLength="56.6768" x="752.6016" y="1381.0977">(runtime)</text></g><g class="participant participant-head" data-participant="Backend"><rect fill="#E2E2F0" height="51.2422" rx="2.5" ry="2.5" style="stroke:#181818;stroke-width:0.5;" width="141.2852" x="984.1157" y="71"/><text fill="#000000" font-family="Segoe UI" font-size="14" lengthAdjust="spacing" textLength="52.0625" x="1028.7271" y="93.1074">Backend</text><text fill="#000000" font-family="Segoe UI" font-size="14" lengthAdjust="spacing" textLength="127.2852" x="991.1157" y="111.7285">(cpu/wasm/webgpu)</text></g><g class="participant participant-tail" data-participant="Backend"><rect fill="#E2E2F0" height="51.2422" rx="2.5" ry="2.5" style="stroke:#181818;stroke-width:0.5;" width="141.2852" x="984.1157" y="1340.3691"/><text fill="#000000" font-family="Segoe UI" font-size="14" lengthAdjust="spacing" textLength="52.0625" x="1028.7271" y="1362.4766">Backend</text><text fill="#000000" font-family="Segoe UI" font-size="14" lengthAdjust="spacing" textLength="127.2852" x="991.1157" y="1381.0977">(cpu/wasm/webgpu)</text></g><rect fill="#EEEEEE" height="3" style="stroke:#EEEEEE;stroke-width:1;" width="1165.4009" x="0" y="154.8877"/><line style="stroke:#000000;stroke-width:1;" x1="0" x2="1165.4009" y1="154.8877" y2="154.8877"/><line style="stroke:#000000;stroke-width:1;" x1="0" x2="1165.4009" y1="157.8877" y2="157.8877"/><rect fill="#EEEEEE" height="25.291" style="stroke:#000000;stroke-width:2;" width="216.5347" x="474.4331" y="143.2422"/><text fill="#000000" font-family="Segoe UI" font-size="13" font-weight="bold" lengthAdjust="spacing" textLength="198.9482" x="480.4331" y="161.2705">Build phase (eager, no compute)</text><g class="message" data-participant-1="User" data-participant-2="Init"><polygon fill="#181818" points="112.4385,197.8242,122.4385,201.8242,112.4385,205.8242,116.4385,201.8242" style="stroke:#181818;stroke-width:1;"/><line style="stroke:#181818;stroke-width:1;" x1="21.8735" x2="118.4385" y1="201.8242" y2="201.8242"/><text fill="#000000" font-family="Segoe UI" font-size="13" lengthAdjust="spacing" textLength="78.5649" x="28.8735" y="196.5615">tensor([1,2,3])</text></g><g class="message" data-participant-1="Init" data-participant-2="Tensor"><polygon fill="#181818" points="526.7393,229.1152,536.7393,233.1152,526.7393,237.1152,530.7393,233.1152" style="stroke:#181818;stroke-width:1;"/><line style="stroke:#181818;stroke-width:1;" x1="124.4385" x2="532.7393" y1="233.1152" y2="233.1152"/><text fill="#000000" font-family="Segoe UI" font-size="13" lengthAdjust="spacing" textLength="233.3145" x="131.4385" y="227.8525">new Tensor({ ctx: { op:'Constant', data } })</text></g><g class="message" data-participant-1="Init" data-participant-2="User"><polygon fill="#181818" points="32.8735,260.4063,22.8735,264.4063,32.8735,268.4063,28.8735,264.4063" style="stroke:#181818;stroke-width:1;"/><line style="stroke:#181818;stroke-width:1;stroke-dasharray:2.0,2.0;" x1="26.8735" x2="123.4385" y1="264.4063" y2="264.4063"/><text fill="#000000" font-family="Segoe UI" font-size="13" lengthAdjust="spacing" textLength="16.8086" x="38.8735" y="259.1436">t_0</text></g><g class="message" data-participant-1="User" data-participant-2="Op"><polygon fill="#181818" points="197.8867,291.6973,207.8867,295.6973,197.8867,299.6973,201.8867,295.6973" style="stroke:#181818;stroke-width:1;"/><line style="stroke:#181818;stroke-width:1;" x1="21.8735" x2="203.8867" y1="295.6973" y2="295.6973"/><text fill="#000000" font-family="Segoe UI" font-size="13" lengthAdjust="spacing" textLength="50.4067" x="28.8735" y="290.4346">add(a, b)</text></g><g class="message" data-participant-1="Op" data-participant-2="Tensor"><polygon fill="#181818" points="526.7393,322.9883,536.7393,326.9883,526.7393,330.9883,530.7393,326.9883" style="stroke:#181818;stroke-width:1;"/><line style="stroke:#181818;stroke-width:1;" x1="209.8867" x2="532.7393" y1="326.9883" y2="326.9883"/><text fill="#000000" font-family="Segoe UI" font-size="13" lengthAdjust="spacing" textLength="304.8525" x="216.8867" y="321.7256">new Tensor({ ctx: { op:'Add', inputs:[a,b], backward } })</text></g><g class="message" data-participant-1="Op" data-participant-2="User"><polygon fill="#181818" points="32.8735,354.2793,22.8735,358.2793,32.8735,362.2793,28.8735,358.2793" style="stroke:#181818;stroke-width:1;"/><line style="stroke:#181818;stroke-width:1;stroke-dasharray:2.0,2.0;" x1="26.8735" x2="208.8867" y1="358.2793" y2="358.2793"/><text fill="#000000" font-family="Segoe UI" font-size="13" lengthAdjust="spacing" textLength="16.8086" x="38.8735" y="353.0166">t_2</text></g><rect fill="#EEEEEE" height="3" style="stroke:#EEEEEE;stroke-width:1;" width="1165.4009" x="0" y="387.9248"/><line style="stroke:#000000;stroke-width:1;" x1="0" x2="1165.4009" y1="387.9248" y2="387.9248"/><line style="stroke:#000000;stroke-width:1;" x1="0" x2="1165.4009" y1="390.9248" y2="390.9248"/><rect fill="#EEEEEE" height="25.291" style="stroke:#000000;stroke-width:2;" width="107.2598" x="529.0706" y="376.2793"/><text fill="#000000" font-family="Segoe UI" font-size="13" font-weight="bold" lengthAdjust="spacing" textLength="89.6733" x="535.0706" y="394.3076">Compile phase</text><g class="message" data-participant-1="User" data-participant-2="Compile"><polygon fill="#181818" points="619.1636,430.8613,629.1636,434.8613,619.1636,438.8613,623.1636,434.8613" style="stroke:#181818;stroke-width:1;"/><line style="stroke:#181818;stroke-width:1;" x1="21.8735" x2="625.1636" y1="434.8613" y2="434.8613"/><text fill="#000000" font-family="Segoe UI" font-size="13" lengthAdjust="spacing" textLength="102.5908" x="28.8735" y="429.5986">compileGraph([y])</text></g><g class="message" data-participant-1="Compile" data-participant-2="Compile"><line style="stroke:#181818;stroke-width:1;" x1="631.1636" x2="673.1636" y1="466.1523" y2="466.1523"/><line style="stroke:#181818;stroke-width:1;" x1="673.1636" x2="673.1636" y1="466.1523" y2="479.1523"/><line style="stroke:#181818;stroke-width:1;" x1="632.1636" x2="673.1636" y1="479.1523" y2="479.1523"/><polygon fill="#181818" points="642.1636,475.1523,632.1636,479.1523,642.1636,483.1523,638.1636,479.1523" style="stroke:#181818;stroke-width:1;"/><text fill="#000000" font-family="Segoe UI" font-size="13" lengthAdjust="spacing" textLength="135.7764" x="638.1636" y="460.8896">DFS through _ctx.inputs</text></g><g class="message" data-participant-1="Compile" data-participant-2="User"><polygon fill="#181818" points="32.8735,523.7344,22.8735,527.7344,32.8735,531.7344,28.8735,527.7344" style="stroke:#181818;stroke-width:1;"/><line style="stroke:#181818;stroke-width:1;stroke-dasharray:2.0,2.0;" x1="26.8735" x2="630.1636" y1="527.7344" y2="527.7344"/><text fill="#000000" font-family="Segoe UI" font-size="13" lengthAdjust="spacing" textLength="49.8481" x="38.8735" y="505.1807">Graph IR</text><text fill="#000000" font-family="Segoe UI" font-size="13" lengthAdjust="spacing" textLength="198.7197" x="38.8735" y="522.4717">(nodes, values, initializers, outputs)</text></g><rect fill="#EEEEEE" height="3" style="stroke:#EEEEEE;stroke-width:1;" width="1165.4009" x="0" y="557.3799"/><line style="stroke:#000000;stroke-width:1;" x1="0" x2="1165.4009" y1="557.3799" y2="557.3799"/><line style="stroke:#000000;stroke-width:1;" x1="0" x2="1165.4009" y1="560.3799" y2="560.3799"/><rect fill="#EEEEEE" height="25.291" style="stroke:#000000;stroke-width:2;" width="104.1367" x="530.6321" y="545.7344"/><text fill="#000000" font-family="Segoe UI" font-size="13" font-weight="bold" lengthAdjust="spacing" textLength="86.5503" x="536.6321" y="563.7627">Execute phase</text><g class="message" data-participant-1="User" data-participant-2="Engine"><polygon fill="#181818" points="768.9399,600.3164,778.9399,604.3164,768.9399,608.3164,772.9399,604.3164" style="stroke:#181818;stroke-width:1;"/><line style="stroke:#181818;stroke-width:1;" x1="21.8735" x2="774.9399" y1="604.3164" y2="604.3164"/><text fill="#000000" font-family="Segoe UI" font-size="13" lengthAdjust="spacing" textLength="121.3291" x="28.8735" y="599.0537">Engine.create(device)</text></g><g class="message" data-participant-1="Engine" data-participant-2="Backend"><polygon fill="#181818" points="1042.7583,631.6074,1052.7583,635.6074,1042.7583,639.6074,1046.7583,635.6074" style="stroke:#181818;stroke-width:1;"/><line style="stroke:#181818;stroke-width:1;" x1="780.9399" x2="1048.7583" y1="635.6074" y2="635.6074"/><text fill="#000000" font-family="Segoe UI" font-size="13" lengthAdjust="spacing" textLength="94.1167" x="787.9399" y="630.3447">factory()  (async)</text></g><g class="message" data-participant-1="Backend" data-participant-2="Engine"><polygon fill="#181818" points="791.9399,662.8984,781.9399,666.8984,791.9399,670.8984,787.9399,666.8984" style="stroke:#181818;stroke-width:1;"/><line style="stroke:#181818;stroke-width:1;stroke-dasharray:2.0,2.0;" x1="785.9399" x2="1053.7583" y1="666.8984" y2="666.8984"/><text fill="#000000" font-family="Segoe UI" font-size="13" lengthAdjust="spacing" textLength="99.106" x="797.9399" y="661.6357">Backend instance</text></g><g class="message" data-participant-1="Engine" data-participant-2="User"><polygon fill="#181818" points="32.8735,694.1895,22.8735,698.1895,32.8735,702.1895,28.8735,698.1895" style="stroke:#181818;stroke-width:1;"/><line style="stroke:#181818;stroke-width:1;stroke-dasharray:2.0,2.0;" x1="26.8735" x2="779.9399" y1="698.1895" y2="698.1895"/><text fill="#000000" font-family="Segoe UI" font-size="13" lengthAdjust="spacing" textLength="39.1143" x="38.8735" y="692.9268">engine</text></g><g class="message" data-participant-1="User" data-participant-2="Engine"><polygon fill="#181818" points="768.9399,725.4805,778.9399,729.4805,768.9399,733.4805,772.9399,729.4805" style="stroke:#181818;stroke-width:1;"/><line style="stroke:#181818;stroke-width:1;" x1="21.8735" x2="774.9399" y1="729.4805" y2="729.4805"/><text fill="#000000" font-family="Segoe UI" font-size="13" lengthAdjust="spacing" textLength="89.5972" x="28.8735" y="724.2178">evaluate(graph)</text></g><g class="message" data-participant-1="Engine" data-participant-2="Engine"><line style="stroke:#181818;stroke-width:1;" x1="780.9399" x2="822.9399" y1="760.7715" y2="760.7715"/><line style="stroke:#181818;stroke-width:1;" x1="822.9399" x2="822.9399" y1="760.7715" y2="773.7715"/><line style="stroke:#181818;stroke-width:1;" x1="781.9399" x2="822.9399" y1="773.7715" y2="773.7715"/><polygon fill="#181818" points="791.9399,769.7715,781.9399,773.7715,791.9399,777.7715,787.9399,773.7715" style="stroke:#181818;stroke-width:1;"/><text fill="#000000" font-family="Segoe UI" font-size="13" lengthAdjust="spacing" textLength="88.0674" x="787.9399" y="755.5088">topologicalSort</text></g><path d="M715.6016,788.7715 L788.252,788.7715 L788.252,798.0625 L778.252,808.0625 L715.6016,808.0625 L715.6016,788.7715" fill="#EEEEEE" style="stroke:#000000;stroke-width:1.5;"/><rect fill="none" height="441.7246" style="stroke:#000000;stroke-width:1.5;" width="439.7993" x="715.6016" y="788.7715"/><text fill="#000000" font-family="Segoe UI" font-size="13" font-weight="bold" lengthAdjust="spacing" textLength="27.6504" x="730.6016" y="803.7998">loop</text><text fill="#000000" font-family="Segoe UI" font-size="11" font-weight="bold" lengthAdjust="spacing" textLength="151.0996" x="803.252" y="802.6416">[for each node in topo order]</text><path d="M725.6016,815.0625 L786.3501,815.0625 L786.3501,824.3535 L776.3501,834.3535 L725.6016,834.3535 L725.6016,815.0625" fill="#EEEEEE" style="stroke:#000000;stroke-width:1.5;"/><rect fill="none" height="364.1426" style="stroke:#000000;stroke-width:1.5;" width="419.7993" x="725.6016" y="815.0625"/><text fill="#000000" font-family="Segoe UI" font-size="13" font-weight="bold" lengthAdjust="spacing" textLength="15.7485" x="740.6016" y="830.0908">alt</text><text fill="#000000" font-family="Segoe UI" font-size="11" font-weight="bold" lengthAdjust="spacing" textLength="54.3394" x="801.3501" y="828.9326">[Constant]</text><g class="message" data-participant-1="Engine" data-participant-2="Backend"><polygon fill="#181818" points="1042.7583,853.6445,1052.7583,857.6445,1042.7583,861.6445,1046.7583,857.6445" style="stroke:#181818;stroke-width:1;"/><line style="stroke:#181818;stroke-width:1;" x1="780.9399" x2="1048.7583" y1="857.6445" y2="857.6445"/><text fill="#000000" font-family="Segoe UI" font-size="13" lengthAdjust="spacing" textLength="176.6426" x="787.9399" y="852.3818">allocate + write(initializer data)</text></g><line style="stroke:#000000;stroke-width:1;stroke-dasharray:2.0,2.0;" x1="725.6016" x2="1145.4009" y1="866.6445" y2="866.6445"/><text fill="#000000" font-family="Segoe UI" font-size="11" font-weight="bold" lengthAdjust="spacing" textLength="342.6221" x="730.6016" y="878.5146">[View op (Transpose/Slice/Permute/Expand/Squeeze/Unsqueeze)]</text><g class="message" data-participant-1="Engine" data-participant-2="Engine"><line style="stroke:#181818;stroke-width:1;" x1="780.9399" x2="822.9399" y1="905.5664" y2="905.5664"/><line style="stroke:#181818;stroke-width:1;" x1="822.9399" x2="822.9399" y1="905.5664" y2="918.5664"/><line style="stroke:#181818;stroke-width:1;" x1="781.9399" x2="822.9399" y1="918.5664" y2="918.5664"/><polygon fill="#181818" points="791.9399,914.5664,781.9399,918.5664,791.9399,922.5664,787.9399,918.5664" style="stroke:#181818;stroke-width:1;"/><text fill="#000000" font-family="Segoe UI" font-size="13" lengthAdjust="spacing" textLength="174.0781" x="787.9399" y="900.3037">viewRegistry &#8212; metadata only</text></g><line style="stroke:#000000;stroke-width:1;stroke-dasharray:2.0,2.0;" x1="725.6016" x2="1145.4009" y1="927.5664" y2="927.5664"/><text fill="#000000" font-family="Segoe UI" font-size="11" font-weight="bold" lengthAdjust="spacing" textLength="81.4688" x="730.6016" y="939.4365">[Reshape/View]</text><path d="M735.6016,950.1973 L796.3501,950.1973 L796.3501,959.4883 L786.3501,969.4883 L735.6016,969.4883 L735.6016,950.1973" fill="#EEEEEE" style="stroke:#000000;stroke-width:1.5;"/><rect fill="none" height="111.5039" style="stroke:#000000;stroke-width:1.5;" width="399.7993" x="735.6016" y="950.1973"/><text fill="#000000" font-family="Segoe UI" font-size="13" font-weight="bold" lengthAdjust="spacing" textLength="15.7485" x="750.6016" y="965.2256">alt</text><text fill="#000000" font-family="Segoe UI" font-size="11" font-weight="bold" lengthAdjust="spacing" textLength="65.8711" x="811.3501" y="964.0674">[contiguous]</text><g class="message" data-participant-1="Engine" data-participant-2="Engine"><line style="stroke:#181818;stroke-width:1;" x1="780.9399" x2="822.9399" y1="992.7793" y2="992.7793"/><line style="stroke:#181818;stroke-width:1;" x1="822.9399" x2="822.9399" y1="992.7793" y2="1005.7793"/><line style="stroke:#181818;stroke-width:1;" x1="781.9399" x2="822.9399" y1="1005.7793" y2="1005.7793"/><polygon fill="#181818" points="791.9399,1001.7793,781.9399,1005.7793,791.9399,1009.7793,787.9399,1005.7793" style="stroke:#181818;stroke-width:1;"/><text fill="#000000" font-family="Segoe UI" font-size="13" lengthAdjust="spacing" textLength="86.6963" x="787.9399" y="987.5166">zero-copy view</text></g><line style="stroke:#000000;stroke-width:1;stroke-dasharray:2.0,2.0;" x1="735.6016" x2="1135.4009" y1="1014.7793" y2="1014.7793"/><text fill="#000000" font-family="Segoe UI" font-size="11" font-weight="bold" lengthAdjust="spacing" textLength="90.3525" x="740.6016" y="1026.6494">[non-contiguous]</text><g class="message" data-participant-1="Engine" data-participant-2="Backend"><polygon fill="#181818" points="1042.7583,1049.7012,1052.7583,1053.7012,1042.7583,1057.7012,1046.7583,1053.7012" style="stroke:#181818;stroke-width:1;"/><line style="stroke:#181818;stroke-width:1;" x1="780.9399" x2="1048.7583" y1="1053.7012" y2="1053.7012"/><text fill="#000000" font-family="Segoe UI" font-size="13" lengthAdjust="spacing" textLength="165.9849" x="787.9399" y="1048.4385">Contiguous kernel + reshape</text></g><line style="stroke:#000000;stroke-width:1;stroke-dasharray:2.0,2.0;" x1="725.6016" x2="1145.4009" y1="1069.7012" y2="1069.7012"/><text fill="#000000" font-family="Segoe UI" font-size="11" font-weight="bold" lengthAdjust="spacing" textLength="57.9004" x="730.6016" y="1081.5713">[Kernel op]</text><g class="message" data-participant-1="Engine" data-participant-2="Backend"><polygon fill="#181818" points="1042.7583,1104.623,1052.7583,1108.623,1042.7583,1112.623,1046.7583,1108.623" style="stroke:#181818;stroke-width:1;"/><line style="stroke:#181818;stroke-width:1;" x1="780.9399" x2="1048.7583" y1="1108.623" y2="1108.623"/><text fill="#000000" font-family="Segoe UI" font-size="13" lengthAdjust="spacing" textLength="90.981" x="787.9399" y="1103.3604">allocate(output)</text></g><g class="message" data-participant-1="Engine" data-participant-2="Backend"><polygon fill="#181818" points="1042.7583,1135.9141,1052.7583,1139.9141,1042.7583,1143.9141,1046.7583,1139.9141" style="stroke:#181818;stroke-width:1;"/><line style="stroke:#181818;stroke-width:1;" x1="780.9399" x2="1048.7583" y1="1139.9141" y2="1139.9141"/><text fill="#000000" font-family="Segoe UI" font-size="13" lengthAdjust="spacing" textLength="173.8877" x="787.9399" y="1134.6514">execute(node, inputs, outputs)</text></g><g class="message" data-participant-1="Backend" data-participant-2="Engine"><polygon fill="#181818" points="791.9399,1167.2051,781.9399,1171.2051,791.9399,1175.2051,787.9399,1171.2051" style="stroke:#181818;stroke-width:1;"/><line style="stroke:#181818;stroke-width:1;stroke-dasharray:2.0,2.0;" x1="785.9399" x2="1053.7583" y1="1171.2051" y2="1171.2051"/><text fill="#000000" font-family="Segoe UI" font-size="13" lengthAdjust="spacing" textLength="249.8184" x="797.9399" y="1165.9424">(sync for CPU/WASM, queued for WebGPU)</text></g><g class="message" data-participant-1="Engine" data-participant-2="Engine"><line style="stroke:#181818;stroke-width:1;" x1="780.9399" x2="822.9399" y1="1209.4961" y2="1209.4961"/><line style="stroke:#181818;stroke-width:1;" x1="822.9399" x2="822.9399" y1="1209.4961" y2="1222.4961"/><line style="stroke:#181818;stroke-width:1;" x1="781.9399" x2="822.9399" y1="1222.4961" y2="1222.4961"/><polygon fill="#181818" points="791.9399,1218.4961,781.9399,1222.4961,791.9399,1226.4961,787.9399,1222.4961" style="stroke:#181818;stroke-width:1;"/><text fill="#000000" font-family="Segoe UI" font-size="13" lengthAdjust="spacing" textLength="235.79" x="787.9399" y="1204.2334">decrement input refcounts &#8594; dispose if 0</text></g><g class="message" data-participant-1="User" data-participant-2="Engine"><polygon fill="#181818" points="768.9399,1256.7871,778.9399,1260.7871,768.9399,1264.7871,772.9399,1260.7871" style="stroke:#181818;stroke-width:1;"/><line style="stroke:#181818;stroke-width:1;" x1="21.8735" x2="774.9399" y1="1260.7871" y2="1260.7871"/><text fill="#000000" font-family="Segoe UI" font-size="13" lengthAdjust="spacing" textLength="46.6172" x="28.8735" y="1255.5244">get(y.id)</text></g><g class="message" data-participant-1="Engine" data-participant-2="Backend"><polygon fill="#181818" points="1042.7583,1288.0781,1052.7583,1292.0781,1042.7583,1296.0781,1046.7583,1292.0781" style="stroke:#181818;stroke-width:1;"/><line style="stroke:#181818;stroke-width:1;" x1="780.9399" x2="1048.7583" y1="1292.0781" y2="1292.0781"/><text fill="#000000" font-family="Segoe UI" font-size="13" lengthAdjust="spacing" textLength="69.6465" x="787.9399" y="1286.8154">read(tensor)</text></g><g class="message" data-participant-1="Backend" data-participant-2="User"><polygon fill="#181818" points="32.8735,1319.3691,22.8735,1323.3691,32.8735,1327.3691,28.8735,1323.3691" style="stroke:#181818;stroke-width:1;"/><line style="stroke:#181818;stroke-width:1;stroke-dasharray:2.0,2.0;" x1="26.8735" x2="1053.7583" y1="1323.3691" y2="1323.3691"/><text fill="#000000" font-family="Segoe UI" font-size="13" lengthAdjust="spacing" textLength="92.0093" x="38.8735" y="1318.1064">ArrayBufferView</text></g><!--SRC=[ZLNBRXCn5DtFLroL1JDYck6nYrIaDhIeubKr11O58SU-Cx7giGVRqtH0IApu0CGNyYNSiITfGiD3MIIsZy-vZtCTBxr2U8tQ6GlFPOcyuxJny-iFEB6cXfb32nCZ4Bo1StIjyadYBgLkc6Krp1c_hAnfjPWOHGntJWxxpmR2BPWmIwahA9bok77o14j6T2T6-vUiHjYROcKGPgTxISAu9xPUF26mbrmsJ7lOyo7GDDi3vk1KIxzz_Ag1Kh_JAHEYg5jLZ4QZ27tLR0DZmeJancA4nArj63Tr8nK-jQnP3AAJkBMDEzQLr4XqjjLUrWDZtDr67b71K8jUkMcB9NDriSHvrRJnod2S90S7SDHA9Q1PC8UG8glGvg0Dz36r7ZCuE4X2T_OVXqh068RgN3p87-QFtcT9sARZeRrZqBWS5kbduFvw39_1DEEx4wETf_ZkvY2OP_05lgnkq_MWGkmVxYThHQhq6AZCASjXdYMq_1-TGo58WWpGUZU-OFdyVHuij6HMHD6UQ5FoOIZ5KFIX61k9hmx6iDMgYuwoNvrjmPwSJC4loB7L0ZvGPACOp0tuHZnGmUavzKhJ0BWShfXg-sz9bP5CoKzeQMLQtrDa8TBZQ-JKdTkHHZCGRVmnuXQPnrJWbUIO9SCn0GSB4B8CKz2b6K3ANATvbgmEzpSPLvioD97Zckmc5unMl1qDzZdrWLHzjfjnh27UD3JRbUHCJOtrYJA6nepwZ8mle2yDAGSK62jeOW6Oyh3o52q1TgN7b3ASfE4UBAsa43RA6coOqLMaDmFUIF8JYQQlBTEkCGwBgQAo5MTeQwfsSNnDqoMAwSSMyHCMC-tYh-mtyNLELyHuZfLqtdRXiQlHis1zerMtqgNtRi4QB7hzmDJdnUczabLhMXUsTj9J1cQVcwOBGW4N2BNH-t-vVrERoHe4bsWrAYgIZT54DdeZ1ivdyTmq_onq6fsQ_H68qRp1xgintV1tVssd0TFUdC4IaxDPyVPm-Y87Qa2B8co-nVdJirdePWXxHy44qZpKI2zaKALSIqx_Ajx1ps_VGSZGT90bt4_2ytZBnnNwj1j9iNkIQDP46b_7xHaQnkFGMjOTjMM9DlJw5m00]--></g></svg>